<?xml version="1.0" encoding="UTF-8" standalone="no"?>
<!DOCTYPE svg PUBLIC "-//W3C//DTD SVG 1.1//EN"
 "http://www.w3.org/Graphics/SVG/1.1/DTD/svg11.dtd">
<!-- Generated by graphviz version 2.38.0 (20140413.2041)
 -->
<!-- Title: %3 Pages: 1 -->
<svg width="6981pt" height="1790pt"
 viewBox="0.00 0.00 6980.63 1790.05" xmlns="http://www.w3.org/2000/svg" xmlns:xlink="http://www.w3.org/1999/xlink">
<g id="graph0" class="graph" transform="scale(1 1) rotate(0) translate(4 1786.05)">
<title>%3</title>
<polygon fill="white" stroke="none" points="-4,4 -4,-1786.05 6976.63,-1786.05 6976.63,4 -4,4"/>
<text text-anchor="middle" x="3486.31" y="-67.8" font-family="Times,serif" font-size="14.00">Namespaces:</text>
<text text-anchor="middle" x="3486.31" y="-52.8" font-family="Times,serif" font-size="14.00">rdf: http://www.w3.org/1999/02/22&#45;rdf&#45;syntax&#45;ns#</text>
<text text-anchor="middle" x="3486.31" y="-37.8" font-family="Times,serif" font-size="14.00">rdfs: http://www.w3.org/2000/01/rdf&#45;schema#</text>
<text text-anchor="middle" x="3486.31" y="-22.8" font-family="Times,serif" font-size="14.00">schema: http://schema.org/</text>
<text text-anchor="middle" x="3486.31" y="-7.8" font-family="Times,serif" font-size="14.00">xml: http://www.w3.org/XML/1998/namespace</text>
<!-- Rschema:Periodical -->
<g id="node1" class="node"><title>Rschema:Periodical</title>
<ellipse fill="none" stroke="blue" cx="4425.94" cy="-288.052" rx="95.5831" ry="18"/>
<text text-anchor="middle" x="4425.94" y="-284.352" font-family="Times,serif" font-size="14.00">schema:Periodical</text>
</g>
<!-- Rrdfs:Class -->
<g id="node2" class="node"><title>Rrdfs:Class</title>
<ellipse fill="none" stroke="blue" cx="6914.78" cy="-730.052" rx="57.6901" ry="18"/>
<text text-anchor="middle" x="6914.78" y="-726.352" font-family="Times,serif" font-size="14.00">rdfs:Class</text>
</g>
<!-- Rschema:Periodical&#45;&gt;Rrdfs:Class -->
<g id="edge1" class="edge"><title>Rschema:Periodical&#45;&gt;Rrdfs:Class</title>
<path fill="none" stroke="black" d="M4520.9,-285.659C4946.84,-275.25 6679.39,-237.8 6762.94,-315.052 6795.7,-345.348 6766.83,-472.716 6780.94,-515.052 6805.95,-590.13 6861.66,-666.136 6892.39,-704.497"/>
<polygon fill="black" stroke="black" points="6889.9,-706.976 6898.91,-712.538 6895.33,-702.566 6889.9,-706.976"/>
<text text-anchor="middle" x="6809.94" y="-635.852" font-family="Times,serif" font-size="14.00">rdf:type</text>
</g>
<!-- Rschema:PublicationIssue -->
<g id="node3" class="node"><title>Rschema:PublicationIssue</title>
<ellipse fill="none" stroke="blue" cx="1944.2" cy="-1555.05" rx="126.978" ry="18"/>
<text text-anchor="middle" x="1944.2" y="-1551.35" font-family="Times,serif" font-size="14.00">schema:PublicationIssue</text>
</g>
<!-- Rschema:PublicationIssue&#45;&gt;Rrdfs:Class -->
<g id="edge2" class="edge"><title>Rschema:PublicationIssue&#45;&gt;Rrdfs:Class</title>
<path fill="none" stroke="black" d="M2041.27,-1566.64C2644.2,-1637.62 5908.17,-1995.68 6762.94,-1536.05 6904.25,-1460.06 6913.66,-892.989 6913.89,-758.566"/>
<polygon fill="black" stroke="black" points="6917.39,-758.276 6913.89,-748.275 6910.39,-758.275 6917.39,-758.276"/>
<text text-anchor="middle" x="4425.94" y="-1770.85" font-family="Times,serif" font-size="14.00">rdf:type</text>
</g>
<!-- Rschema:PublicationVolume -->
<g id="node4" class="node"><title>Rschema:PublicationVolume</title>
<ellipse fill="none" stroke="blue" cx="4425.94" cy="-177.052" rx="135.676" ry="18"/>
<text text-anchor="middle" x="4425.94" y="-173.352" font-family="Times,serif" font-size="14.00">schema:PublicationVolume</text>
</g>
<!-- Rschema:PublicationVolume&#45;&gt;Rrdfs:Class -->
<g id="edge3" class="edge"><title>Rschema:PublicationVolume&#45;&gt;Rrdfs:Class</title>
<path fill="none" stroke="black" d="M4551.29,-169.971C5009.57,-145.022 6586.77,-69.7021 6762.94,-204.052 6845.02,-266.653 6896.45,-602.06 6910.11,-701.958"/>
<polygon fill="black" stroke="black" points="6906.65,-702.473 6911.46,-711.916 6913.59,-701.537 6906.65,-702.473"/>
<text text-anchor="middle" x="6809.94" y="-354.852" font-family="Times,serif" font-size="14.00">rdf:type</text>
</g>
<!-- Rschema:ScholarlyArticle -->
<g id="node5" class="node"><title>Rschema:ScholarlyArticle</title>
<ellipse fill="none" stroke="blue" cx="4425.94" cy="-1454.05" rx="124.278" ry="18"/>
<text text-anchor="middle" x="4425.94" y="-1450.35" font-family="Times,serif" font-size="14.00">schema:ScholarlyArticle</text>
</g>
<!-- Rschema:ScholarlyArticle&#45;&gt;Rrdfs:Class -->
<g id="edge4" class="edge"><title>Rschema:ScholarlyArticle&#45;&gt;Rrdfs:Class</title>
<path fill="none" stroke="black" d="M4549,-1456.76C5017.22,-1466.64 6676.64,-1496.51 6762.94,-1426.05 6869.39,-1339.14 6904.71,-878.312 6912.16,-758.525"/>
<polygon fill="black" stroke="black" points="6915.67,-758.519 6912.78,-748.326 6908.68,-758.096 6915.67,-758.519"/>
<text text-anchor="middle" x="6809.94" y="-1406.85" font-family="Times,serif" font-size="14.00">rdf:type</text>
</g>
<!-- Rhttp://linter.structured&#45;data.org/examples/schema.org/eg&#45;0399&#45;jsonld.html#issue -->
<g id="node6" class="node"><title>Rhttp://linter.structured&#45;data.org/examples/schema.org/eg&#45;0399&#45;jsonld.html#issue</title>
<ellipse fill="none" stroke="blue" cx="389.315" cy="-694.052" rx="389.131" ry="18"/>
<text text-anchor="middle" x="389.315" y="-690.352" font-family="Times,serif" font-size="14.00">http://linter.structured&#45;data.org/examples/schema.org/eg&#45;0399&#45;jsonld.html#issue</text>
</g>
<!-- Rhttp://linter.structured&#45;data.org/examples/schema.org/eg&#45;0399&#45;jsonld.html#issue&#45;&gt;Rschema:PublicationIssue -->
<g id="edge5" class="edge"><title>Rhttp://linter.structured&#45;data.org/examples/schema.org/eg&#45;0399&#45;jsonld.html#issue&#45;&gt;Rschema:PublicationIssue</title>
<path fill="none" stroke="black" d="M407.31,-712.342C473.751,-782.935 724.709,-1041.11 976.631,-1190.05 1286.1,-1373.02 1703.47,-1493.22 1870.08,-1536.79"/>
<polygon fill="black" stroke="black" points="1869.65,-1540.29 1880.21,-1539.42 1871.42,-1533.52 1869.65,-1540.29"/>
<text text-anchor="middle" x="877.631" y="-1178.85" font-family="Times,serif" font-size="14.00">rdf:type</text>
</g>
<!-- Rschema:Thing -->
<g id="node7" class="node"><title>Rschema:Thing</title>
<ellipse fill="none" stroke="blue" cx="4425.94" cy="-905.052" rx="75.2868" ry="18"/>
<text text-anchor="middle" x="4425.94" y="-901.352" font-family="Times,serif" font-size="14.00">schema:Thing</text>
</g>
<!-- Rhttp://linter.structured&#45;data.org/examples/schema.org/eg&#45;0399&#45;jsonld.html#issue&#45;&gt;Rschema:Thing -->
<g id="edge6" class="edge"><title>Rhttp://linter.structured&#45;data.org/examples/schema.org/eg&#45;0399&#45;jsonld.html#issue&#45;&gt;Rschema:Thing</title>
<path fill="none" stroke="black" d="M457.106,-711.813C565.439,-740.057 786.516,-795.347 976.631,-828.052 1347.42,-891.836 1441.86,-904.237 1817.46,-926.052 2073.56,-940.926 3920.29,-912.997 4340.16,-906.402"/>
<polygon fill="black" stroke="black" points="4340.45,-909.897 4350.4,-906.24 4340.34,-902.898 4340.45,-909.897"/>
<text text-anchor="middle" x="1388.04" y="-928.852" font-family="Times,serif" font-size="14.00">rdf:type</text>
</g>
<!-- Rrdfs:Resource -->
<g id="node8" class="node"><title>Rrdfs:Resource</title>
<ellipse fill="none" stroke="blue" cx="4425.94" cy="-815.052" rx="75.2868" ry="18"/>
<text text-anchor="middle" x="4425.94" y="-811.352" font-family="Times,serif" font-size="14.00">rdfs:Resource</text>
</g>
<!-- Rhttp://linter.structured&#45;data.org/examples/schema.org/eg&#45;0399&#45;jsonld.html#issue&#45;&gt;Rrdfs:Resource -->
<g id="edge7" class="edge"><title>Rhttp://linter.structured&#45;data.org/examples/schema.org/eg&#45;0399&#45;jsonld.html#issue&#45;&gt;Rrdfs:Resource</title>
<path fill="none" stroke="black" d="M483.815,-711.545C599.171,-732.215 801.529,-765.506 976.631,-779.052 1659.74,-831.896 3877.75,-819.025 4340.03,-815.704"/>
<polygon fill="black" stroke="black" points="4340.33,-819.202 4350.3,-815.63 4340.28,-812.203 4340.33,-819.202"/>
<text text-anchor="middle" x="1388.04" y="-812.852" font-family="Times,serif" font-size="14.00">rdf:type</text>
</g>
<!-- Rschema:CreativeWork -->
<g id="node9" class="node"><title>Rschema:CreativeWork</title>
<ellipse fill="none" stroke="blue" cx="4425.94" cy="-761.052" rx="114.28" ry="18"/>
<text text-anchor="middle" x="4425.94" y="-757.352" font-family="Times,serif" font-size="14.00">schema:CreativeWork</text>
</g>
<!-- Rhttp://linter.structured&#45;data.org/examples/schema.org/eg&#45;0399&#45;jsonld.html#issue&#45;&gt;Rschema:CreativeWork -->
<g id="edge8" class="edge"><title>Rhttp://linter.structured&#45;data.org/examples/schema.org/eg&#45;0399&#45;jsonld.html#issue&#45;&gt;Rschema:CreativeWork</title>
<path fill="none" stroke="black" d="M622.244,-708.501C904.519,-725.301 1395.74,-752.01 1817.46,-762.052 2774.1,-784.83 3928.73,-769.309 4302.12,-763.208"/>
<polygon fill="black" stroke="black" points="4302.2,-766.707 4312.14,-763.043 4302.08,-759.708 4302.2,-766.707"/>
<text text-anchor="middle" x="1388.04" y="-765.852" font-family="Times,serif" font-size="14.00">rdf:type</text>
</g>
<!-- L2012|Datatype: schema:Date -->
<g id="node10" class="node"><title>L2012|Datatype: schema:Date</title>
<polygon fill="none" stroke="black" points="1296.04,-473.052 1296.04,-519.052 1480.04,-519.052 1480.04,-473.052 1296.04,-473.052"/>
<text text-anchor="middle" x="1388.04" y="-503.852" font-family="Times,serif" font-size="14.00">2012</text>
<polyline fill="none" stroke="black" points="1296.04,-496.052 1480.04,-496.052 "/>
<text text-anchor="middle" x="1388.04" y="-480.852" font-family="Times,serif" font-size="14.00">Datatype: schema:Date</text>
</g>
<!-- Rhttp://linter.structured&#45;data.org/examples/schema.org/eg&#45;0399&#45;jsonld.html#issue&#45;&gt;L2012|Datatype: schema:Date -->
<g id="edge9" class="edge"><title>Rhttp://linter.structured&#45;data.org/examples/schema.org/eg&#45;0399&#45;jsonld.html#issue&#45;&gt;L2012|Datatype: schema:Date</title>
<path fill="none" stroke="black" d="M440.907,-676.205C541.513,-641.528 774.441,-565.276 976.631,-529.052 1081.09,-510.336 1202.43,-502.229 1285.93,-498.721"/>
<polygon fill="black" stroke="black" points="1286.07,-502.218 1295.92,-498.316 1285.79,-495.224 1286.07,-502.218"/>
<text text-anchor="middle" x="877.631" y="-572.852" font-family="Times,serif" font-size="14.00">schema:datePublished</text>
</g>
<!-- Rhttp://linter.structured&#45;data.org/examples/schema.org/eg&#45;0399&#45;jsonld.html#periodical -->
<g id="node11" class="node"><title>Rhttp://linter.structured&#45;data.org/examples/schema.org/eg&#45;0399&#45;jsonld.html#periodical</title>
<ellipse fill="none" stroke="blue" cx="1388.04" cy="-556.052" rx="411.327" ry="18"/>
<text text-anchor="middle" x="1388.04" y="-552.352" font-family="Times,serif" font-size="14.00">http://linter.structured&#45;data.org/examples/schema.org/eg&#45;0399&#45;jsonld.html#periodical</text>
</g>
<!-- Rhttp://linter.structured&#45;data.org/examples/schema.org/eg&#45;0399&#45;jsonld.html#issue&#45;&gt;Rhttp://linter.structured&#45;data.org/examples/schema.org/eg&#45;0399&#45;jsonld.html#periodical -->
<g id="edge27" class="edge"><title>Rhttp://linter.structured&#45;data.org/examples/schema.org/eg&#45;0399&#45;jsonld.html#issue&#45;&gt;Rhttp://linter.structured&#45;data.org/examples/schema.org/eg&#45;0399&#45;jsonld.html#periodical</title>
<path fill="none" stroke="black" d="M513.534,-676.992C701.547,-650.961 1058.64,-601.52 1252.95,-574.618"/>
<polygon fill="black" stroke="black" points="1253.51,-578.073 1262.93,-573.235 1252.55,-571.14 1253.51,-578.073"/>
<text text-anchor="middle" x="877.631" y="-641.852" font-family="Times,serif" font-size="14.00">schema:isPartOf</text>
</g>
<!-- L5 -->
<g id="node20" class="node"><title>L5</title>
<polygon fill="none" stroke="black" points="1361.04,-418.052 1361.04,-454.052 1415.04,-454.052 1415.04,-418.052 1361.04,-418.052"/>
<text text-anchor="middle" x="1388.04" y="-432.352" font-family="Times,serif" font-size="14.00">5</text>
</g>
<!-- Rhttp://linter.structured&#45;data.org/examples/schema.org/eg&#45;0399&#45;jsonld.html#issue&#45;&gt;L5 -->
<g id="edge28" class="edge"><title>Rhttp://linter.structured&#45;data.org/examples/schema.org/eg&#45;0399&#45;jsonld.html#issue&#45;&gt;L5</title>
<path fill="none" stroke="black" d="M422.664,-675.983C509.154,-628.875 754.3,-503.182 976.631,-463.052 1112.98,-438.44 1278.42,-435.626 1350.52,-435.706"/>
<polygon fill="black" stroke="black" points="1350.86,-439.207 1360.87,-435.738 1350.88,-432.207 1350.86,-439.207"/>
<text text-anchor="middle" x="877.631" y="-510.852" font-family="Times,serif" font-size="14.00">schema:issueNumber</text>
</g>
<!-- Rhttp://linter.structured&#45;data.org/examples/schema.org/eg&#45;0399&#45;jsonld.html#issue&#45;&gt;L5 -->
<g id="edge29" class="edge"><title>Rhttp://linter.structured&#45;data.org/examples/schema.org/eg&#45;0399&#45;jsonld.html#issue&#45;&gt;L5</title>
<path fill="none" stroke="black" d="M411.314,-675.959C468.416,-628.068 633.22,-498.43 796.631,-451.052 999.083,-392.354 1257.12,-418.256 1350.91,-430.737"/>
<polygon fill="black" stroke="black" points="1350.63,-434.231 1361.01,-432.114 1351.58,-427.295 1350.63,-434.231"/>
<text text-anchor="middle" x="877.631" y="-454.852" font-family="Times,serif" font-size="14.00">schema:position</text>
</g>
<!-- Rhttp://linter.structured&#45;data.org/examples/schema.org/eg&#45;0399&#45;jsonld.html#periodical&#45;&gt;Rschema:Periodical -->
<g id="edge13" class="edge"><title>Rhttp://linter.structured&#45;data.org/examples/schema.org/eg&#45;0399&#45;jsonld.html#periodical&#45;&gt;Rschema:Periodical</title>
<path fill="none" stroke="black" d="M1451.52,-573.904C1541.78,-595.457 1707.85,-618.494 1799.46,-528.052 1834.68,-493.278 1781.19,-339.731 1817.46,-306.052 1864.07,-262.765 3840.06,-281.628 4320.48,-286.862"/>
<polygon fill="black" stroke="black" points="4320.49,-290.363 4330.53,-286.972 4320.57,-283.363 4320.49,-290.363"/>
<text text-anchor="middle" x="1944.2" y="-309.852" font-family="Times,serif" font-size="14.00">rdf:type</text>
</g>
<!-- Rhttp://linter.structured&#45;data.org/examples/schema.org/eg&#45;0399&#45;jsonld.html#periodical&#45;&gt;Rschema:PublicationVolume -->
<g id="edge12" class="edge"><title>Rhttp://linter.structured&#45;data.org/examples/schema.org/eg&#45;0399&#45;jsonld.html#periodical&#45;&gt;Rschema:PublicationVolume</title>
<path fill="none" stroke="black" d="M1450.34,-573.866C1540.67,-595.929 1708.6,-620.249 1799.46,-528.052 1825.7,-501.423 1790.4,-217.849 1817.46,-192.052 1997.76,-20.1636 3795.63,-132.767 4296.19,-167.718"/>
<polygon fill="black" stroke="black" points="4296.12,-171.222 4306.34,-168.429 4296.61,-164.239 4296.12,-171.222"/>
<text text-anchor="middle" x="1944.2" y="-195.852" font-family="Times,serif" font-size="14.00">rdf:type</text>
</g>
<!-- Rhttp://linter.structured&#45;data.org/examples/schema.org/eg&#45;0399&#45;jsonld.html#periodical&#45;&gt;Rschema:Thing -->
<g id="edge10" class="edge"><title>Rhttp://linter.structured&#45;data.org/examples/schema.org/eg&#45;0399&#45;jsonld.html#periodical&#45;&gt;Rschema:Thing</title>
<path fill="none" stroke="black" d="M1493.69,-573.456C1586.84,-594.356 1720.26,-638.49 1799.46,-728.052 1819.03,-750.187 1795.49,-772.296 1817.46,-792.052 1902.43,-868.451 1960.79,-804.632 2070.94,-835.052 2079.21,-837.337 2080.52,-840.355 2088.94,-842.052 2532.34,-931.438 3975.59,-912.906 4340.51,-906.639"/>
<polygon fill="black" stroke="black" points="4340.79,-910.134 4350.73,-906.462 4340.67,-903.136 4340.79,-910.134"/>
<text text-anchor="middle" x="1944.2" y="-839.852" font-family="Times,serif" font-size="14.00">rdf:type</text>
</g>
<!-- Rhttp://linter.structured&#45;data.org/examples/schema.org/eg&#45;0399&#45;jsonld.html#periodical&#45;&gt;Rrdfs:Resource -->
<g id="edge15" class="edge"><title>Rhttp://linter.structured&#45;data.org/examples/schema.org/eg&#45;0399&#45;jsonld.html#periodical&#45;&gt;Rrdfs:Resource</title>
<path fill="none" stroke="black" d="M1430.29,-574.056C1505.85,-606.498 1672.12,-675.359 1817.46,-718.052 1927.97,-750.515 1968.15,-720.064 2070.94,-772.052 2080.49,-776.883 2078.95,-784.19 2088.94,-788.052 2301.89,-870.429 3947.76,-828.772 4340.83,-817.552"/>
<polygon fill="black" stroke="black" points="4341.09,-821.046 4350.99,-817.261 4340.89,-814.049 4341.09,-821.046"/>
<text text-anchor="middle" x="1944.2" y="-776.852" font-family="Times,serif" font-size="14.00">rdf:type</text>
</g>
<!-- Rhttp://linter.structured&#45;data.org/examples/schema.org/eg&#45;0399&#45;jsonld.html#periodical&#45;&gt;Rschema:CreativeWork -->
<g id="edge16" class="edge"><title>Rhttp://linter.structured&#45;data.org/examples/schema.org/eg&#45;0399&#45;jsonld.html#periodical&#45;&gt;Rschema:CreativeWork</title>
<path fill="none" stroke="black" d="M1435.72,-573.961C1513.52,-602.907 1675.22,-659.231 1817.46,-684.052 1936.5,-704.825 1968.2,-694.115 2088.94,-699.052 2934.89,-733.642 3954,-753.038 4301.76,-759.026"/>
<polygon fill="black" stroke="black" points="4301.8,-762.527 4311.86,-759.199 4301.92,-755.528 4301.8,-762.527"/>
<text text-anchor="middle" x="1944.2" y="-702.852" font-family="Times,serif" font-size="14.00">rdf:type</text>
</g>
<!-- Rschema:Series -->
<g id="node12" class="node"><title>Rschema:Series</title>
<ellipse fill="none" stroke="blue" cx="4425.94" cy="-562.052" rx="77.9862" ry="18"/>
<text text-anchor="middle" x="4425.94" y="-558.352" font-family="Times,serif" font-size="14.00">schema:Series</text>
</g>
<!-- Rhttp://linter.structured&#45;data.org/examples/schema.org/eg&#45;0399&#45;jsonld.html#periodical&#45;&gt;Rschema:Series -->
<g id="edge11" class="edge"><title>Rhttp://linter.structured&#45;data.org/examples/schema.org/eg&#45;0399&#45;jsonld.html#periodical&#45;&gt;Rschema:Series</title>
<path fill="none" stroke="black" d="M1799.66,-556.61C1889.08,-556.744 1983.18,-556.894 2070.94,-557.052 2955.9,-558.64 4027.99,-561.119 4337.47,-561.845"/>
<polygon fill="black" stroke="black" points="4337.71,-565.346 4347.72,-561.869 4337.73,-558.346 4337.71,-565.346"/>
<text text-anchor="middle" x="1944.2" y="-560.852" font-family="Times,serif" font-size="14.00">rdf:type</text>
</g>
<!-- Rschema:CreativeWorkSeries -->
<g id="node13" class="node"><title>Rschema:CreativeWorkSeries</title>
<ellipse fill="none" stroke="blue" cx="4425.94" cy="-508.052" rx="142.975" ry="18"/>
<text text-anchor="middle" x="4425.94" y="-504.352" font-family="Times,serif" font-size="14.00">schema:CreativeWorkSeries</text>
</g>
<!-- Rhttp://linter.structured&#45;data.org/examples/schema.org/eg&#45;0399&#45;jsonld.html#periodical&#45;&gt;Rschema:CreativeWorkSeries -->
<g id="edge14" class="edge"><title>Rhttp://linter.structured&#45;data.org/examples/schema.org/eg&#45;0399&#45;jsonld.html#periodical&#45;&gt;Rschema:CreativeWorkSeries</title>
<path fill="none" stroke="black" d="M1671.01,-542.98C1719.84,-541.067 1770.11,-539.318 1817.46,-538.052 2750.17,-513.098 3871.1,-508.879 4272.65,-508.182"/>
<polygon fill="black" stroke="black" points="4272.88,-511.682 4282.88,-508.165 4272.87,-504.682 4272.88,-511.682"/>
<text text-anchor="middle" x="1944.2" y="-541.852" font-family="Times,serif" font-size="14.00">rdf:type</text>
</g>
<!-- Rschema:Intangible -->
<g id="node14" class="node"><title>Rschema:Intangible</title>
<ellipse fill="none" stroke="blue" cx="4425.94" cy="-398.052" rx="96.6831" ry="18"/>
<text text-anchor="middle" x="4425.94" y="-394.352" font-family="Times,serif" font-size="14.00">schema:Intangible</text>
</g>
<!-- Rhttp://linter.structured&#45;data.org/examples/schema.org/eg&#45;0399&#45;jsonld.html#periodical&#45;&gt;Rschema:Intangible -->
<g id="edge17" class="edge"><title>Rhttp://linter.structured&#45;data.org/examples/schema.org/eg&#45;0399&#45;jsonld.html#periodical&#45;&gt;Rschema:Intangible</title>
<path fill="none" stroke="black" d="M1454.09,-573.825C1544.06,-594.074 1705.96,-614.182 1799.46,-528.052 1838.8,-491.81 1776.98,-444.018 1817.46,-409.052 1865.54,-367.515 3836.07,-390.392 4318.95,-396.631"/>
<polygon fill="black" stroke="black" points="4319.01,-400.132 4329.06,-396.762 4319.1,-393.133 4319.01,-400.132"/>
<text text-anchor="middle" x="1944.2" y="-412.852" font-family="Times,serif" font-size="14.00">rdf:type</text>
</g>
<!-- LCataloging &amp; Classification Quarterly -->
<g id="node15" class="node"><title>LCataloging &amp; Classification Quarterly</title>
<polygon fill="none" stroke="black" points="4282.44,-325.052 4282.44,-361.052 4569.44,-361.052 4569.44,-325.052 4282.44,-325.052"/>
<text text-anchor="middle" x="4425.94" y="-339.352" font-family="Times,serif" font-size="14.00">Cataloging &amp; Classification Quarterly</text>
</g>
<!-- Rhttp://linter.structured&#45;data.org/examples/schema.org/eg&#45;0399&#45;jsonld.html#periodical&#45;&gt;LCataloging &amp; Classification Quarterly -->
<g id="edge18" class="edge"><title>Rhttp://linter.structured&#45;data.org/examples/schema.org/eg&#45;0399&#45;jsonld.html#periodical&#45;&gt;LCataloging &amp; Classification Quarterly</title>
<path fill="none" stroke="black" d="M1452.62,-573.842C1542.71,-594.773 1706.85,-616.432 1799.46,-528.052 1849.95,-479.867 1765.61,-418.777 1817.46,-372.052 1863.26,-330.773 3720.39,-338.756 4271.99,-342.045"/>
<polygon fill="black" stroke="black" points="4271.99,-345.545 4282.01,-342.105 4272.03,-338.545 4271.99,-345.545"/>
<text text-anchor="middle" x="1944.2" y="-375.852" font-family="Times,serif" font-size="14.00">rdfs:label</text>
</g>
<!-- Rhttp://linter.structured&#45;data.org/examples/schema.org/eg&#45;0399&#45;jsonld.html#periodical&#45;&gt;LCataloging &amp; Classification Quarterly -->
<g id="edge23" class="edge"><title>Rhttp://linter.structured&#45;data.org/examples/schema.org/eg&#45;0399&#45;jsonld.html#periodical&#45;&gt;LCataloging &amp; Classification Quarterly</title>
<path fill="none" stroke="black" d="M1451.76,-573.859C1541.94,-595.217 1707.48,-617.858 1799.46,-528.052 1830.6,-497.65 1785.3,-362.375 1817.46,-333.052 1840.26,-312.256 3717.82,-334.166 4272.37,-341.098"/>
<polygon fill="black" stroke="black" points="4272.39,-344.598 4282.43,-341.224 4272.48,-337.599 4272.39,-344.598"/>
<text text-anchor="middle" x="1944.2" y="-336.852" font-family="Times,serif" font-size="14.00">schema:name</text>
</g>
<!-- L0163&#45;9374 -->
<g id="node16" class="node"><title>L0163&#45;9374</title>
<polygon fill="none" stroke="black" points="4379.44,-214.052 4379.44,-250.052 4472.44,-250.052 4472.44,-214.052 4379.44,-214.052"/>
<text text-anchor="middle" x="4425.94" y="-228.352" font-family="Times,serif" font-size="14.00">0163&#45;9374</text>
</g>
<!-- Rhttp://linter.structured&#45;data.org/examples/schema.org/eg&#45;0399&#45;jsonld.html#periodical&#45;&gt;L0163&#45;9374 -->
<g id="edge19" class="edge"><title>Rhttp://linter.structured&#45;data.org/examples/schema.org/eg&#45;0399&#45;jsonld.html#periodical&#45;&gt;L0163&#45;9374</title>
<path fill="none" stroke="black" d="M1450.91,-573.865C1541.17,-595.645 1708.13,-619.285 1799.46,-528.052 1840.43,-487.119 1775.63,-308.107 1817.46,-268.052 1865.18,-222.356 3995.14,-230.069 4369.16,-231.778"/>
<polygon fill="black" stroke="black" points="4369.19,-235.278 4379.2,-231.824 4369.22,-228.278 4369.19,-235.278"/>
<text text-anchor="middle" x="1944.2" y="-271.852" font-family="Times,serif" font-size="14.00">schema:identifier</text>
</g>
<!-- Rhttp://linter.structured&#45;data.org/examples/schema.org/eg&#45;0399&#45;jsonld.html#periodical&#45;&gt;L0163&#45;9374 -->
<g id="edge21" class="edge"><title>Rhttp://linter.structured&#45;data.org/examples/schema.org/eg&#45;0399&#45;jsonld.html#periodical&#45;&gt;L0163&#45;9374</title>
<path fill="none" stroke="black" d="M1450.64,-573.882C1540.96,-595.825 1708.43,-619.83 1799.46,-528.052 1846.49,-480.633 1768.84,-273.841 1817.46,-228.052 1865.55,-182.758 3995.2,-223.418 4369.17,-230.915"/>
<polygon fill="black" stroke="black" points="4369.14,-234.415 4379.21,-231.117 4369.28,-227.416 4369.14,-234.415"/>
<text text-anchor="middle" x="1944.2" y="-231.852" font-family="Times,serif" font-size="14.00">schema:issn</text>
</g>
<!-- L1544&#45;4554 -->
<g id="node17" class="node"><title>L1544&#45;4554</title>
<polygon fill="none" stroke="black" points="4379.44,-435.052 4379.44,-471.052 4472.44,-471.052 4472.44,-435.052 4379.44,-435.052"/>
<text text-anchor="middle" x="4425.94" y="-449.352" font-family="Times,serif" font-size="14.00">1544&#45;4554</text>
</g>
<!-- Rhttp://linter.structured&#45;data.org/examples/schema.org/eg&#45;0399&#45;jsonld.html#periodical&#45;&gt;L1544&#45;4554 -->
<g id="edge20" class="edge"><title>Rhttp://linter.structured&#45;data.org/examples/schema.org/eg&#45;0399&#45;jsonld.html#periodical&#45;&gt;L1544&#45;4554</title>
<path fill="none" stroke="black" d="M1457.2,-573.866C1547.06,-592.898 1704.83,-610.237 1799.46,-528.052 1828.61,-502.731 1787.46,-467.365 1817.46,-443.052 1861.22,-407.586 2014.61,-442.932 2070.94,-443.052 2988.99,-445.002 4108.42,-451.229 4368.93,-452.726"/>
<polygon fill="black" stroke="black" points="4369.25,-456.228 4379.27,-452.785 4369.29,-449.228 4369.25,-456.228"/>
<text text-anchor="middle" x="1944.2" y="-446.852" font-family="Times,serif" font-size="14.00">schema:identifier</text>
</g>
<!-- Rhttp://linter.structured&#45;data.org/examples/schema.org/eg&#45;0399&#45;jsonld.html#periodical&#45;&gt;L1544&#45;4554 -->
<g id="edge22" class="edge"><title>Rhttp://linter.structured&#45;data.org/examples/schema.org/eg&#45;0399&#45;jsonld.html#periodical&#45;&gt;L1544&#45;4554</title>
<path fill="none" stroke="black" d="M1741.37,-546.764C1761.31,-541.701 1780.82,-535.529 1799.46,-528.052 1809.12,-524.175 1807.89,-517.165 1817.46,-513.052 1929.07,-465.066 1967.7,-488.902 2088.94,-481.052 2997.62,-422.215 4109.17,-445.042 4368.85,-451.548"/>
<polygon fill="black" stroke="black" points="4369.07,-455.054 4379.16,-451.809 4369.25,-448.057 4369.07,-455.054"/>
<text text-anchor="middle" x="1944.2" y="-516.852" font-family="Times,serif" font-size="14.00">schema:issn</text>
</g>
<!-- L50 -->
<g id="node18" class="node"><title>L50</title>
<polygon fill="none" stroke="black" points="4398.94,-654.052 4398.94,-690.052 4452.94,-690.052 4452.94,-654.052 4398.94,-654.052"/>
<text text-anchor="middle" x="4425.94" y="-668.352" font-family="Times,serif" font-size="14.00">50</text>
</g>
<!-- Rhttp://linter.structured&#45;data.org/examples/schema.org/eg&#45;0399&#45;jsonld.html#periodical&#45;&gt;L50 -->
<g id="edge24" class="edge"><title>Rhttp://linter.structured&#45;data.org/examples/schema.org/eg&#45;0399&#45;jsonld.html#periodical&#45;&gt;L50</title>
<path fill="none" stroke="black" d="M1452.26,-573.835C1535.26,-596.21 1685.9,-633.472 1817.46,-648.052 2347.78,-706.822 4112.28,-677.709 4388.44,-672.73"/>
<polygon fill="black" stroke="black" points="4388.77,-676.224 4398.71,-672.543 4388.64,-669.226 4388.77,-676.224"/>
<text text-anchor="middle" x="1944.2" y="-668.852" font-family="Times,serif" font-size="14.00">schema:position</text>
</g>
<!-- Rhttp://linter.structured&#45;data.org/examples/schema.org/eg&#45;0399&#45;jsonld.html#periodical&#45;&gt;L50 -->
<g id="edge26" class="edge"><title>Rhttp://linter.structured&#45;data.org/examples/schema.org/eg&#45;0399&#45;jsonld.html#periodical&#45;&gt;L50</title>
<path fill="none" stroke="black" d="M1519.2,-573.158C1604.04,-583.984 1717.21,-597.818 1817.46,-608.052 1873.69,-613.791 2018.63,-607.631 2070.94,-629.052 2080.57,-632.998 2079.17,-640.448 2088.94,-644.052 2535.57,-808.79 4127.32,-694.949 4388.54,-674.911"/>
<polygon fill="black" stroke="black" points="4388.93,-678.392 4398.63,-674.133 4388.39,-671.412 4388.93,-678.392"/>
<text text-anchor="middle" x="1944.2" y="-633.852" font-family="Times,serif" font-size="14.00">schema:volumeNumber</text>
</g>
<!-- LTaylor &amp; Francis Group -->
<g id="node19" class="node"><title>LTaylor &amp; Francis Group</title>
<polygon fill="none" stroke="black" points="4333.44,-599.052 4333.44,-635.052 4518.44,-635.052 4518.44,-599.052 4333.44,-599.052"/>
<text text-anchor="middle" x="4425.94" y="-613.352" font-family="Times,serif" font-size="14.00">Taylor &amp; Francis Group</text>
</g>
<!-- Rhttp://linter.structured&#45;data.org/examples/schema.org/eg&#45;0399&#45;jsonld.html#periodical&#45;&gt;LTaylor &amp; Francis Group -->
<g id="edge25" class="edge"><title>Rhttp://linter.structured&#45;data.org/examples/schema.org/eg&#45;0399&#45;jsonld.html#periodical&#45;&gt;LTaylor &amp; Francis Group</title>
<path fill="none" stroke="black" d="M1643.28,-570.191C1776.05,-577.03 1941.2,-584.685 2088.94,-589.052 2952.95,-614.591 3997.39,-617.013 4323.01,-617.108"/>
<polygon fill="black" stroke="black" points="4323.36,-620.608 4333.36,-617.11 4323.36,-613.608 4323.36,-620.608"/>
<text text-anchor="middle" x="1944.2" y="-592.852" font-family="Times,serif" font-size="14.00">schema:publisher</text>
</g>
<!-- B_:genid1 -->
<g id="node21" class="node"><title>B_:genid1</title>
<ellipse fill="none" stroke="green" cx="1388.04" cy="-1163.05" rx="18" ry="18"/>
</g>
<!-- B_:genid1&#45;&gt;Rschema:ScholarlyArticle -->
<g id="edge33" class="edge"><title>B_:genid1&#45;&gt;Rschema:ScholarlyArticle</title>
<path fill="none" stroke="black" d="M1405.56,-1167.89C1464.48,-1185.79 1667.9,-1253 1799.46,-1364.05 1809.92,-1372.88 1805.72,-1382 1817.46,-1389.05 1921.83,-1451.78 1967.49,-1417.08 2088.94,-1426.05 2927.26,-1487.97 3939.3,-1467.98 4294.3,-1458.13"/>
<polygon fill="black" stroke="black" points="4294.46,-1461.62 4304.36,-1457.85 4294.26,-1454.63 4294.46,-1461.62"/>
<text text-anchor="middle" x="1944.2" y="-1431.85" font-family="Times,serif" font-size="14.00">rdf:type</text>
</g>
<!-- B_:genid1&#45;&gt;Rschema:Thing -->
<g id="edge31" class="edge"><title>B_:genid1&#45;&gt;Rschema:Thing</title>
<path fill="none" stroke="black" d="M1403.91,-1154.09C1457.42,-1122.34 1646.09,-1014.81 1817.46,-971.052 1872.2,-957.071 2019.95,-975.403 2070.94,-951.052 2081.43,-946.038 2078.28,-936.71 2088.94,-932.052 2298.22,-840.594 3947.77,-889.179 4340.99,-902.169"/>
<polygon fill="black" stroke="black" points="4341.04,-905.672 4351.15,-902.506 4341.28,-898.676 4341.04,-905.672"/>
<text text-anchor="middle" x="1944.2" y="-974.852" font-family="Times,serif" font-size="14.00">rdf:type</text>
</g>
<!-- B_:genid1&#45;&gt;Rrdfs:Resource -->
<g id="edge32" class="edge"><title>B_:genid1&#45;&gt;Rrdfs:Resource</title>
<path fill="none" stroke="black" d="M1405.7,-1158.24C1465.09,-1140.4 1669.88,-1073.17 1799.46,-959.052 1810.28,-949.52 1805.37,-939.923 1817.46,-932.052 1913.27,-869.645 1963.12,-926.128 2070.94,-888.052 2079.56,-885.004 2080.11,-880.466 2088.94,-878.052 2525.59,-758.599 3976.17,-799.535 4341.07,-812"/>
<polygon fill="black" stroke="black" points="4341.17,-815.506 4351.29,-812.351 4341.41,-808.51 4341.17,-815.506"/>
<text text-anchor="middle" x="1944.2" y="-935.852" font-family="Times,serif" font-size="14.00">rdf:type</text>
</g>
<!-- B_:genid1&#45;&gt;Rschema:CreativeWork -->
<g id="edge34" class="edge"><title>B_:genid1&#45;&gt;Rschema:CreativeWork</title>
<path fill="none" stroke="black" d="M1406.08,-1160.09C1469.51,-1148.11 1693.76,-1097.09 1799.46,-959.052 1824.26,-926.663 1786.9,-896.075 1817.46,-869.052 1859.77,-831.631 2027.07,-885.637 2070.94,-850.052 2093.22,-831.975 2066.09,-805.414 2088.94,-788.052 2266.29,-653.255 3859.72,-729.938 4308.05,-754.395"/>
<polygon fill="black" stroke="black" points="4307.92,-757.894 4318.1,-754.946 4308.31,-750.904 4307.92,-757.894"/>
<text text-anchor="middle" x="1944.2" y="-872.852" font-family="Times,serif" font-size="14.00">rdf:type</text>
</g>
<!-- Rschema:Article -->
<g id="node22" class="node"><title>Rschema:Article</title>
<ellipse fill="none" stroke="blue" cx="4425.94" cy="-1235.05" rx="81.4863" ry="18"/>
<text text-anchor="middle" x="4425.94" y="-1231.35" font-family="Times,serif" font-size="14.00">schema:Article</text>
</g>
<!-- B_:genid1&#45;&gt;Rschema:Article -->
<g id="edge30" class="edge"><title>B_:genid1&#45;&gt;Rschema:Article</title>
<path fill="none" stroke="black" d="M1406.15,-1165.06C1463.93,-1171.74 1657.12,-1193.29 1817.46,-1202.05 1937.96,-1208.64 1968.27,-1205.22 2088.94,-1207.05 2963.58,-1220.35 4022.52,-1231.11 4334.42,-1234.18"/>
<polygon fill="black" stroke="black" points="4334.72,-1237.68 4344.76,-1234.28 4334.79,-1230.68 4334.72,-1237.68"/>
<text text-anchor="middle" x="1944.2" y="-1210.85" font-family="Times,serif" font-size="14.00">rdf:type</text>
</g>
<!-- LBe Careful What You Wish For: FRBR, Some Lacunae, A Review -->
<g id="node23" class="node"><title>LBe Careful What You Wish For: FRBR, Some Lacunae, A Review</title>
<polygon fill="none" stroke="black" points="4188.94,-1162.05 4188.94,-1198.05 4662.94,-1198.05 4662.94,-1162.05 4188.94,-1162.05"/>
<text text-anchor="middle" x="4425.94" y="-1176.35" font-family="Times,serif" font-size="14.00">Be Careful What You Wish For: FRBR, Some Lacunae, A Review</text>
</g>
<!-- B_:genid1&#45;&gt;LBe Careful What You Wish For: FRBR, Some Lacunae, A Review -->
<g id="edge35" class="edge"><title>B_:genid1&#45;&gt;LBe Careful What You Wish For: FRBR, Some Lacunae, A Review</title>
<path fill="none" stroke="black" d="M1406.17,-1163.04C1483.29,-1163.01 1806.05,-1162.96 2070.94,-1164.05 2839.85,-1167.23 3750.03,-1174.38 4178.51,-1177.94"/>
<polygon fill="black" stroke="black" points="4178.52,-1181.44 4188.55,-1178.03 4178.58,-1174.45 4178.52,-1181.44"/>
<text text-anchor="middle" x="1944.2" y="-1167.85" font-family="Times,serif" font-size="14.00">rdfs:label</text>
</g>
<!-- B_:genid1&#45;&gt;LBe Careful What You Wish For: FRBR, Some Lacunae, A Review -->
<g id="edge41" class="edge"><title>B_:genid1&#45;&gt;LBe Careful What You Wish For: FRBR, Some Lacunae, A Review</title>
<path fill="none" stroke="black" d="M1406.18,-1163.92C1464.03,-1166.8 1657.46,-1176.03 1817.46,-1179.05 2685.15,-1195.42 3715.55,-1187.83 4178.36,-1182.99"/>
<polygon fill="black" stroke="black" points="4178.55,-1186.49 4188.51,-1182.88 4178.48,-1179.49 4178.55,-1186.49"/>
<text text-anchor="middle" x="1944.2" y="-1186.85" font-family="Times,serif" font-size="14.00">schema:name</text>
</g>
<!-- LWorks -->
<g id="node24" class="node"><title>LWorks</title>
<polygon fill="none" stroke="black" points="4394.94,-1107.05 4394.94,-1143.05 4456.94,-1143.05 4456.94,-1107.05 4394.94,-1107.05"/>
<text text-anchor="middle" x="4425.94" y="-1121.35" font-family="Times,serif" font-size="14.00">Works</text>
</g>
<!-- B_:genid1&#45;&gt;LWorks -->
<g id="edge36" class="edge"><title>B_:genid1&#45;&gt;LWorks</title>
<path fill="none" stroke="black" d="M1406.18,-1162.12C1464.03,-1159.02 1657.45,-1149.03 1817.46,-1145.05 2862.05,-1119.11 4142.7,-1123.69 4384.53,-1124.84"/>
<polygon fill="black" stroke="black" points="4384.61,-1128.34 4394.63,-1124.89 4384.64,-1121.34 4384.61,-1128.34"/>
<text text-anchor="middle" x="1944.2" y="-1148.85" font-family="Times,serif" font-size="14.00">schema:about</text>
</g>
<!-- LCatalog -->
<g id="node25" class="node"><title>LCatalog</title>
<polygon fill="none" stroke="black" points="4389.94,-1052.05 4389.94,-1088.05 4461.94,-1088.05 4461.94,-1052.05 4389.94,-1052.05"/>
<text text-anchor="middle" x="4425.94" y="-1066.35" font-family="Times,serif" font-size="14.00">Catalog</text>
</g>
<!-- B_:genid1&#45;&gt;LCatalog -->
<g id="edge37" class="edge"><title>B_:genid1&#45;&gt;LCatalog</title>
<path fill="none" stroke="black" d="M1406.06,-1160.89C1484.08,-1151.08 1815.58,-1110.69 2088.94,-1097.05 3011.5,-1051.01 4141.43,-1065.52 4379.58,-1069.28"/>
<polygon fill="black" stroke="black" points="4379.87,-1072.79 4389.92,-1069.45 4379.98,-1065.79 4379.87,-1072.79"/>
<text text-anchor="middle" x="1944.2" y="-1120.85" font-family="Times,serif" font-size="14.00">schema:about</text>
</g>
<!-- LSmiraglia, Richard P. -->
<g id="node26" class="node"><title>LSmiraglia, Richard P.</title>
<polygon fill="none" stroke="black" points="4342.94,-997.052 4342.94,-1033.05 4508.94,-1033.05 4508.94,-997.052 4342.94,-997.052"/>
<text text-anchor="middle" x="4425.94" y="-1011.35" font-family="Times,serif" font-size="14.00">Smiraglia, Richard P.</text>
</g>
<!-- B_:genid1&#45;&gt;LSmiraglia, Richard P. -->
<g id="edge38" class="edge"><title>B_:genid1&#45;&gt;LSmiraglia, Richard P.</title>
<path fill="none" stroke="black" d="M1405.69,-1158.93C1482.74,-1140.11 1812.85,-1062.38 2088.94,-1042.05 2959.57,-977.939 4017.55,-1002.55 4332.36,-1012.01"/>
<polygon fill="black" stroke="black" points="4332.7,-1015.52 4342.8,-1012.33 4332.91,-1008.53 4332.7,-1015.52"/>
<text text-anchor="middle" x="1944.2" y="-1079.85" font-family="Times,serif" font-size="14.00">schema:author</text>
</g>
<!-- LThe library catalog as a catalog of works was an infectious idea, which together with research led to reconceptualization in the form of the FRBR conceptual model. Two categories of lacunae emerge&#45;&#45;the expression entity, and gaps in the model such as aggregates and dynamic documents. Evidence needed to extend the FRBR model is available in contemporary research on instantiation. The challenge for the bibliographic community is to begin to think of FRBR as a form of knowledge organization system, adding a final dimension to classification. The articles in the present special issue offer a compendium of the promise of the FRBR model. -->
<g id="node27" class="node"><title>LThe library catalog as a catalog of works was an infectious idea, which together with research led to reconceptualization in the form of the FRBR conceptual model. Two categories of lacunae emerge&#45;&#45;the expression entity, and gaps in the model such as aggregates and dynamic documents. Evidence needed to extend the FRBR model is available in contemporary research on instantiation. The challenge for the bibliographic community is to begin to think of FRBR as a form of knowledge organization system, adding a final dimension to classification. The articles in the present special issue offer a compendium of the promise of the FRBR model.</title>
<polygon fill="none" stroke="black" points="2088.94,-942.052 2088.94,-978.052 6762.94,-978.052 6762.94,-942.052 2088.94,-942.052"/>
<text text-anchor="middle" x="4425.94" y="-956.352" font-family="Times,serif" font-size="14.00">The library catalog as a catalog of works was an infectious idea, which together with research led to reconceptualization in the form of the FRBR conceptual model. Two categories of lacunae emerge&#45;&#45;the expression entity, and gaps in the model such as aggregates and dynamic documents. Evidence needed to extend the FRBR model is available in contemporary research on instantiation. The challenge for the bibliographic community is to begin to think of FRBR as a form of knowledge organization system, adding a final dimension to classification. The articles in the present special issue offer a compendium of the promise of the FRBR model.</text>
</g>
<!-- B_:genid1&#45;&gt;LThe library catalog as a catalog of works was an infectious idea, which together with research led to reconceptualization in the form of the FRBR conceptual model. Two categories of lacunae emerge&#45;&#45;the expression entity, and gaps in the model such as aggregates and dynamic documents. Evidence needed to extend the FRBR model is available in contemporary research on instantiation. The challenge for the bibliographic community is to begin to think of FRBR as a form of knowledge organization system, adding a final dimension to classification. The articles in the present special issue offer a compendium of the promise of the FRBR model. -->
<g id="edge39" class="edge"><title>B_:genid1&#45;&gt;LThe library catalog as a catalog of works was an infectious idea, which together with research led to reconceptualization in the form of the FRBR conceptual model. Two categories of lacunae emerge&#45;&#45;the expression entity, and gaps in the model such as aggregates and dynamic documents. Evidence needed to extend the FRBR model is available in contemporary research on instantiation. The challenge for the bibliographic community is to begin to think of FRBR as a form of knowledge organization system, adding a final dimension to classification. The articles in the present special issue offer a compendium of the promise of the FRBR model.</title>
<path fill="none" stroke="black" d="M1405.1,-1156.76C1461.05,-1135.08 1652.94,-1062.77 1817.46,-1025.05 1832.3,-1021.65 2073.75,-988.197 2088.94,-987.052 2128.2,-984.089 2167.85,-981.312 2207.79,-978.711"/>
<polygon fill="black" stroke="black" points="2208.2,-982.192 2217.95,-978.054 2207.74,-975.207 2208.2,-982.192"/>
<text text-anchor="middle" x="1944.2" y="-1028.85" font-family="Times,serif" font-size="14.00">schema:description</text>
</g>
<!-- L#issue -->
<g id="node28" class="node"><title>L#issue</title>
<polygon fill="none" stroke="black" points="4393.44,-1491.05 4393.44,-1527.05 4458.44,-1527.05 4458.44,-1491.05 4393.44,-1491.05"/>
<text text-anchor="middle" x="4425.94" y="-1505.35" font-family="Times,serif" font-size="14.00">#issue</text>
</g>
<!-- B_:genid1&#45;&gt;L#issue -->
<g id="edge40" class="edge"><title>B_:genid1&#45;&gt;L#issue</title>
<path fill="none" stroke="black" d="M1406,-1165.94C1469.16,-1177.64 1692.56,-1227.58 1799.46,-1364.05 1822.73,-1393.77 1789.61,-1421.57 1817.46,-1447.05 1907.18,-1529.13 1967.62,-1472.75 2088.94,-1481.05 3015.02,-1544.39 4152.31,-1516.86 4382.98,-1510.31"/>
<polygon fill="black" stroke="black" points="4383.38,-1513.8 4393.28,-1510.01 4383.18,-1506.8 4383.38,-1513.8"/>
<text text-anchor="middle" x="1944.2" y="-1496.85" font-family="Times,serif" font-size="14.00">schema:isPartOf</text>
</g>
<!-- L368 -->
<g id="node29" class="node"><title>L368</title>
<polygon fill="none" stroke="black" points="4398.94,-1381.05 4398.94,-1417.05 4452.94,-1417.05 4452.94,-1381.05 4398.94,-1381.05"/>
<text text-anchor="middle" x="4425.94" y="-1395.35" font-family="Times,serif" font-size="14.00">368</text>
</g>
<!-- B_:genid1&#45;&gt;L368 -->
<g id="edge42" class="edge"><title>B_:genid1&#45;&gt;L368</title>
<path fill="none" stroke="black" d="M1404.52,-1170.85C1459.31,-1198.12 1649.8,-1289.88 1817.46,-1334.05 1935.21,-1365.08 1967.49,-1362.08 2088.94,-1371.05 3022.2,-1439.98 4170.76,-1407.4 4388.42,-1400.3"/>
<polygon fill="black" stroke="black" points="4388.77,-1403.79 4398.65,-1399.96 4388.54,-1396.8 4388.77,-1403.79"/>
<text text-anchor="middle" x="1944.2" y="-1373.85" font-family="Times,serif" font-size="14.00">schema:pageEnd</text>
</g>
<!-- L360 -->
<g id="node30" class="node"><title>L360</title>
<polygon fill="none" stroke="black" points="4398.94,-1326.05 4398.94,-1362.05 4452.94,-1362.05 4452.94,-1326.05 4398.94,-1326.05"/>
<text text-anchor="middle" x="4425.94" y="-1340.35" font-family="Times,serif" font-size="14.00">360</text>
</g>
<!-- B_:genid1&#45;&gt;L360 -->
<g id="edge43" class="edge"><title>B_:genid1&#45;&gt;L360</title>
<path fill="none" stroke="black" d="M1405.59,-1168.44C1462.34,-1186.74 1654.59,-1247.17 1817.46,-1280.05 1936.76,-1304.14 1967.54,-1307.31 2088.94,-1316.05 3022.32,-1383.29 4170.79,-1352.07 4388.43,-1345.25"/>
<polygon fill="black" stroke="black" points="4388.77,-1348.74 4398.65,-1344.93 4388.54,-1341.75 4388.77,-1348.74"/>
<text text-anchor="middle" x="1944.2" y="-1318.85" font-family="Times,serif" font-size="14.00">schema:pageStart</text>
</g>
<!-- Rhttps://doi.org/10.1080/01639374.2012.682254 -->
<g id="node31" class="node"><title>Rhttps://doi.org/10.1080/01639374.2012.682254</title>
<ellipse fill="none" stroke="blue" cx="4425.94" cy="-1289.05" rx="231.259" ry="18"/>
<text text-anchor="middle" x="4425.94" y="-1285.35" font-family="Times,serif" font-size="14.00">https://doi.org/10.1080/01639374.2012.682254</text>
</g>
<!-- B_:genid1&#45;&gt;Rhttps://doi.org/10.1080/01639374.2012.682254 -->
<g id="edge44" class="edge"><title>B_:genid1&#45;&gt;Rhttps://doi.org/10.1080/01639374.2012.682254</title>
<path fill="none" stroke="black" d="M1406,-1166.33C1483.8,-1181.2 1814.45,-1242.34 2088.94,-1262.05 2861.15,-1317.51 3780.57,-1305.28 4198.31,-1295.46"/>
<polygon fill="black" stroke="black" points="4198.48,-1298.96 4208.39,-1295.23 4198.31,-1291.96 4198.48,-1298.96"/>
<text text-anchor="middle" x="1944.2" y="-1264.85" font-family="Times,serif" font-size="14.00">schema:sameAs</text>
</g>
</g>
</svg>

