<svg xmlns="http://www.w3.org/2000/svg" version="1.1" x="0" y="0" viewBox="0 0 1308 1200" width="100%" height="100%" xml:space="preserve">
<defs>
<style type="text/css">

svg {background: gray;}

@font-face {
    font-family: RobotoFlex;
    src: url("https://pixelambacht.nl/remote/RobotoFlex[slnt,wdth,wght,opsz].woff2");
    font-display:swap;
    text-align: initial;
    font-variation-settings: "wght" 400, "wdth" 100, "opsz" 14, "GRAD" 0, "slnt" 0, "XTRA" 468, "XOPQ" 96, "YOPQ" 79, "YTLC" 514, "YTUC" 712, "YTAS" 750, "YTDE" -203, "YTFI" 738;
    font-weight: 100 1000;
    font-stretch: 25% 151%;
}

@font-face {
    font-family:zilla-slab;
    src:url('https://s3.amazonaws.com/benetta.net/fonts/zilla-slab/zilla-slab-v6-latin-500.woff2') format('woff2');
    font-display:swap;
    text-align: initial;
    font-style: normal;
    font-weight: 500;
}

.rfr-96 {
    font-family: RobotoFlex;
    font-variation-settings: "GRAD" 1;
    font-size: 96px;
}

.zs1-96 {
    font-family: zilla-slab;
    font-size: 96px;
}

.fff {
    fill: #fff;
}

/* ontology */
#path06 {
    fill: #ffffbf;
}

/* rules, orange */
#path08 {
    fill: #fc8d59;
}

/* rules, green */
#path10 {
    fill: #99d594;
}

/* ontology */
#path16 {
    fill: #ffffbf;
}

/* rules, orange */
#path18 {
    fill: #fc8d59;
}

/* rules, green */
#path20 {
    fill: #99d594;
}
</style>
</defs>

<path id="path06" d="m1114.3 860.4 66.8-21.2-7.2-55.4-70.2-3c-11.6-40.3-32.1-76.9-59.3-107.3l35-60.7-42.7-36-53.9 45.2c-30.8-18.9-65.7-32-103-37.5l-11.8-69-55.8-.5-12.6 69.2c-37.3 5.3-72.3 18.1-103.2 36.9l-53.2-45.5-43.2 35.3 34.5 61.3c-24.5 27.1-43.7 59.1-55.9 94.3l-70-1.1-10.7 54.8 65.8 25.1c-.2 3.8-.3 7.7-.3 11.6 0 34 6.2 66.6 17.5 96.7l-54.5 43.9 26.7 49 66.6-22.6c22.3 29.2 50.3 53.9 82.4 72.3l-14 68.6 51.9 20.6 36.8-59.9c20 4.6 40.8 7 62.1 7 16.2 0 32.1-1.4 47.5-4.1l33.1 61.7 53.1-17.3-10-69.6c33.1-16.7 62.4-39.8 86.2-67.7l64.9 26.4 29.8-47.2-52.2-47.2c14.4-32.8 22.5-69.1 23-107.1z"/>

<path id="path08" d="M792.7 248.6c-.5-31.5-9.7-60.9-25.1-86L809.4 97l-42.6-39.3-60.1 46c-24.7-14.1-53.4-22.1-83.9-22.1h-2.9l-35.2-69.3-55.4 16.8 9.1 75.1c-26.3 15.1-48.2 37.1-63.2 63.5l-77.6-5-13.9 56.2 69.3 30.4v2.2c0 34.5 10.3 66.6 27.9 93.4l-39.7 66.8 43.8 37.9 58.6-47.9c23.7 12.7 50.7 19.8 79.3 19.8 2.7 0 5.4-.1 8.1-.2l37.3 68.2 54.9-18.4-11.4-74.8c25.8-15.9 47-38.5 61.2-65.4l77.7 2.6 12.1-56.6z"/>

<path id="path10" d="m563.3 707.9-56.7-50.2c10.1-29.8 11.3-60.6 5.2-89.4l61.3-47.8-26.8-51.2-72 23.2c-18.6-21.6-42.8-38.8-71.6-49-.9-.3-1.8-.6-2.8-.9l-9.9-77.1-57.8-2.9-16.7 73.8c-29.9 5.4-57.8 18.8-80.8 38.6l-71.4-30.8-32 48.3 55.1 51.9c-.3.7-.5 1.4-.8 2.1-11.6 32.5-12.7 66.2-5 97.3l-59.8 49.7 28.5 50.4 71.3-25.4c18.1 19.7 41.1 35.5 68.1 45.1 2.6.9 5.1 1.8 7.7 2.5l12.3 76.8 57.9 1.1 14.4-74.3c29.6-6.3 57.2-20.5 79.6-41l72.3 28.5z"/>

<text class="zs1-96" x="655.3" y="887">Ontology</text>
<text class="rfr-96" x="246.411" y="638.588">Rules</text>
<text class="rfr-96" x="519.411" y="287.588">Rules</text>

<path id="path16" d="M1298.7 872.6c0-243.8-203-432.4-454.7-435.9v41.1c228.3 3.5 412.2 173.7 412.2 394.9 0 88.2-47 156.8-97.1 222.9l-18.8-19.8 9.4 59.8 55.6 9.3-17-18.3c58.3-74.3 110.4-153.8 110.4-254z"/>
<path id="path18" d="M331.8 267.5h-41.5S268.3 151 373.8 32l-20-22 55.5 12 7.5 57.5-16-17.5s-76.5 69-69 205.5z"/>
<path id="path20" d="m212 291.2 16 37.3S74 389.2 76.7 579.8l26-5.3-41.4 44-51.3-24 26.6-5.3c0 .1-33.5-190.9 175.4-298z"/>

</svg>