<svg xmlns="http://www.w3.org/2000/svg" viewBox="0 0 1479 643" xml:space="preserve">
<style>
svg {
    background: gray
}

@font-face {
    font-family: Recursive-2019;
    text-align: initial;
    font-weight: 100 1000;
    font-stretch: 25% 151%;
    font-display:swap;
    src:url("https://s3.amazonaws.com/benetta.net/fonts/recursive-woff2/Recursive-VF.ttf") format("truetype");
}

.sz-46 {
    font-family: Recursive-2019;
    font-size: 46px;
    fill: #fff;
    font-feature-settings: "ss01" on, "ss02" on, "ss08" on;
}

.sz-40 {
    font-family: Recursive-2019;
    font-size: 40px;
    fill: #fff;
    font-feature-settings: "ss01" on, "ss02" on, "ss08" on;
}
</style>
<path fill="none" stroke="#bdbdbd" stroke-width="10" stroke-linejoin="round" stroke-miterlimit="10" d="M161.7 168.6v-30h1156v24m-1156 370.7v-30h1156v24m-1154-152.7v30h1156v-24m-771-242v27m380.7-27v27m12 210.3v27m-201.7 5.7v27"/>
<path fill="none" stroke="#bdbdbd" stroke-width="10" stroke-linecap="round" stroke-linejoin="round" stroke-miterlimit="10" d="M741.7 479.6v47.3"/>
<path fill="none" stroke="#bdbdbd" stroke-width="10" stroke-linejoin="round" stroke-miterlimit="10" d="M562 371.3v27m179.7-281.7v27"/>
<path fill="#9361a8" d="M333.4 342.6c0 17.7-14.3 32-32 32H32c-17.7 0-32-14.3-32-32v-149c0-17.7 14.3-32 32-32h269.3c17.7 0 32 14.3 32 32v149z"/>
<path fill="#5ab067" d="M715.4 342.6c0 17.7-14.3 32-32 32H414c-17.7 0-32-14.3-32-32v-149c0-17.7 14.3-32 32-32h269.3c17.7 0 32 14.3 32 32v149z"/>
<path fill="#f15b43" d="M1097.4 342.6c0 17.7-14.3 32-32 32H796c-17.7 0-32-14.3-32-32v-149c0-17.7 14.3-32 32-32h269.3c17.7 0 32 14.3 32 32v149z"/>
<path fill="#a5a9ac" d="M1478.2 342.6c0 17.7-14.3 32-32 32h-269.3c-17.7 0-32-14.3-32-32v-149c0-17.7 14.3-32 32-32h269.3c17.7 0 32 14.3 32 32z"/>
<path fill="#727ab8" d="M453.9 642.6h-425C13 642.6.1 629.7.1 613.8v-59C.1 538.9 13 526 28.9 526h425c15.9 0 28.8 12.9 28.8 28.8v59c0 15.9-12.9 28.8-28.8 28.8zm498.3 0h-425c-15.9 0-28.8-12.9-28.8-28.8v-59c0-15.9 12.9-28.8 28.8-28.8h425c15.9 0 28.8 12.9 28.8 28.8v59c0 15.9-12.9 28.8-28.8 28.8zm498.3 0h-425c-15.9 0-28.8-12.9-28.8-28.8v-59c0-15.9 12.9-28.8 28.8-28.8h425c15.9 0 28.8 12.9 28.8 28.8v59c.1 15.9-12.8 28.8-28.8 28.8z"/>
<path fill="#747bb4" d="M877.6 116.6H602.2c-10.3 0-18.7-12.9-18.7-28.8v-59c0-15.9 8.4-28.8 18.7-28.8h275.4c10.3 0 18.7 12.9 18.7 28.8v59c0 15.9-8.4 28.8-18.7 28.8z"/>

<text class="sz-46"><tspan x="1240" y="310.6">Medical</tspan><tspan x="1220" y="357.6">Condition</tspan></text>
<text class="sz-46"><tspan x="75.779" y="574.6">Decrease Action</tspan><tspan x="138.779" y="621.6">of Drug(s)</tspan></text>
<text class="sz-46"><tspan x="587.314" y="571.6">Increase Action</tspan><tspan x="641.814" y="618.6">of Drug(s)</tspan></text>
<text class="sz-46"><tspan x="1098.995" y="573.6">Cause Adverse</tspan><tspan x="1175.795" y="620.6">Effects</tspan></text>
<text class="sz-40" x="586.888" y="468.6">Possible Effects</text>
<text class="sz-46" x="800" y="359.188">Supplement</text>
<text class="sz-46" x="490" y="353.189">Food</text>
<text class="sz-46" x="740.29" y="72.703">Drug</text>
<text class="sz-46" x="80" y="340">Drug(s)</text>

<g fill="#fff">
<path d="M1299.9 209.8c0-17.4 24.8-29.4 47.1-29.4h2.9c6 0 9-.1 11.3 1.9 2 1.7 3.3 4 3.9 7 .2 1.1-.5 2.3-1.6 2.5-1.1.3-2.3-.5-2.5-1.6-.4-2-1.3-3.6-2.5-4.6-1.1-.9-3.7-.9-8.5-.9h-3c-22.5 0-42.9 12-42.9 25.2s20.5 25.2 42.9 25.2c1.7 0 3.3.1 4.6.1 3.9.2 5.9.2 7-.9 1.6-1.6 1.9-4.3 1.8-6.2-.1-1.2.9-2.1 2-2.2 1.2 0 2.1.9 2.2 2 .2 4-.9 7.2-3.1 9.3-2.5 2.4-5.7 2.3-10.1 2.1-1.3-.1-2.8-.1-4.5-.1-22.2 0-47-12.1-47-29.4z"/>
<path d="M1363.1 198.4c-3.2 0-5.8-3.2-5.8-7.1 0-3.9 2.6-7.1 5.8-7.1 3.2 0 5.8 3.2 5.8 7.1 0 3.9-2.6 7.1-5.8 7.1m0 36.9c-3.2 0-5.8-3.2-5.8-7.1 0-3.9 2.6-7.1 5.8-7.1 3.2 0 5.8 3.2 5.8 7.1 0 3.9-2.6 7.1-5.8 7.1m-124.7-32.6c0-13.2 4.1-23.9 10.6-27.7 3.2-1.9 6.7-1.8 9.7.1 3.3 2 5.3 6.3 7.7 11.2 2.6 5.3 5.5 11.4 10.6 16 5.3 4.8 12.1 5.6 12.2 5.6 1.9.2 11.1.1 12.1 0 1.2-.1 2.2.7 2.3 1.9.1 1.2-.7 2.2-1.9 2.3-1.4.2-10.9.2-13 0-.3 0-8.2-1-14.6-6.7-5.7-5.1-8.9-11.9-11.5-17.3-2.1-4.3-3.9-8-6.1-9.4-1.7-1.1-3.5-1.1-5.4 0-4.6 2.7-9 11.8-8.5 26.2.2 7 7.1 18.3 13.1 28.2 3.7 6.1 7.2 11.8 9.3 16.6.5 1.1 0 2.3-1.1 2.8s-2.3 0-2.8-1.1c-2-4.5-5.4-10.1-9-16.1-6.6-10.9-13.5-22.1-13.8-30.3.1-.8.1-1.6.1-2.3z"/>
<path d="M1275.4 260.4c0-6.7-5.4-12.1-12.1-12.1-6.7 0-12.1 5.4-12.1 12.1 0 6.7 5.4 12.1 12.1 12.1 6.7.1 12.1-5.4 12.1-12.1zm-15.5 0c0-1.9 1.5-3.4 3.4-3.4s3.4 1.5 3.4 3.4-1.5 3.4-3.4 3.4c-1.9.1-3.4-1.5-3.4-3.4z"/>
</g>
<path fill="#fff" d="M913.9 202.2h-9.6v-24h9.6zm57.6-2.4v-19.2c0-.6-.3-1.2-.7-1.7-.4-.4-1.1-.7-1.7-.7h-7.2v24h7.2c.6 0 1.2-.3 1.7-.7.4-.4.7-1 .7-1.7zm-43.2-21.5h-9.6v24h9.6zm14.4 0h-9.6v24h9.6zm-50.4 23.9h7.2v-24h-7.2c-1.3 0-2.4 1.1-2.4 2.4v19.2c0 .6.3 1.2.7 1.7.5.5 1.1.7 1.7.7zm64.8-23.9h-9.6v24h9.6zm-27.8 82.3c.5.5.7 1.2.5 1.9l-2.2 13 10.5-15.7h-4.3c-.7 0-1.4-.3-1.8-.8-.5-.5-.7-1.2-.5-1.9l2.2-13-10.5 15.7h4.3c.7 0 1.4.3 1.8.8zm-25-34.4H957v67.1h-52.7zm12.3 37.1c.4.8 1.2 1.3 2.1 1.3h6l-3.5 21.2c-.2 1.1.4 2.2 1.5 2.6 1.1.4 2.2 0 2.9-.9l19.2-28.8c.5-.7.5-1.7.1-2.5s-1.2-1.3-2.1-1.3h-6l3.5-21.2c.2-1.1-.4-2.2-1.5-2.6-1.1-.4-2.2 0-2.9.9l-19.2 28.9c-.5.7-.5 1.6-.1 2.4zm59.6-39.5v81.5c0 1.9-.8 3.7-2.1 5.1-1.3 1.3-3.2 2.1-5.1 2.1h-76.7c-1.9 0-3.7-.8-5.1-2.1-1.3-1.3-2.1-3.2-2.1-5.1v-81.5c0-4.4 1.8-8.7 4.9-11.9 3.1-3.1 7.4-4.9 11.9-4.9h57.5c4.4 0 8.7 1.8 11.9 4.9 3.2 3.2 4.9 7.5 4.9 11.9zm-14.3 0c0-.6-.3-1.2-.7-1.7-.4-.4-1.1-.7-1.7-.7H902c-1.3 0-2.4 1.1-2.4 2.4v71.9c0 .6.3 1.2.7 1.7.4.4 1.1.7 1.7.7h57.5c.6 0 1.2-.3 1.7-.7.4-.4.7-1.1.7-1.7zm-738.6 21.7c0-14.2-12.5-27.8-30.1-27.7h-65.4c-16.5 0-27.7 13.7-27.7 27.5 0 14 11.1 27.7 27.6 27.7h65.4c17.6 0 30.2-13.6 30.2-27.5zm-12.6-2.7c0 1.3-1.2 2.5-2.5 2.6-1.3 0-2.5-1.2-2.5-2.5 0-2.2-1.1-4.8-2.8-6.7-1.7-1.9-4-3.1-6.3-3.1-12.8-.1-24.3-.2-37.3-.2l-.1 35.1h-31.4c-13.7 0-22.6-11.4-22.6-22.6 0-11.1 9-22.5 22.7-22.5h31.4v5c12.8 0 25.4.2 37.3.2 4 0 7.6 1.9 10.1 4.7 2.4 2.7 4 6.3 4 10zm-51.5-15c-13.9-.1-23.7 0-35.1.2-4.5.7-7.3 3.5-8.6 6.2-.6 1.2 0 2.8 1.1 3.4 1.2.6 2.8.1 3.4-1.1.8-1.6 2-3 4.7-3.5 11.8-.2 24.5-.2 34.5-.2zM726.8 58.4c0-14.2-12.5-27.8-30.1-27.7h-65.4c-16.5 0-27.7 13.7-27.7 27.5 0 14 11.1 27.7 27.6 27.7h65.4c17.6-.1 30.2-13.6 30.2-27.5zm-12.6-2.7c0 1.3-1.2 2.5-2.5 2.6-1.3 0-2.5-1.2-2.5-2.5 0-2.2-1.1-4.8-2.8-6.7-1.7-1.9-4-3.1-6.3-3.1-12.8-.1-24.3-.2-37.3-.2l-.1 35.1h-31.4c-13.7 0-22.6-11.4-22.6-22.6 0-11.1 9-22.5 22.7-22.5h31.4v5c12.8 0 25.4.2 37.3.2 4 0 7.6 1.9 10.1 4.7 2.4 2.7 4 6.3 4 10zm-51.5-15c-13.9-.1-23.7 0-35.1.2-4.5.7-7.3 3.5-8.6 6.2-.6 1.2 0 2.8 1.1 3.4 1.2.6 2.8.1 3.4-1.1.8-1.6 2-3 4.7-3.5 11.8-.2 24.5-.2 34.5-.2z"/>
<g fill="#fff">
<path d="M546 303.5c-7.8 0-15.3-1.5-22.4-4.5-3.4-1.4-6.7-3.2-9.8-5.3-3-2.1-5.9-4.4-8.5-7-2.6-2.6-5-5.5-7-8.5-2.1-3.1-3.9-6.4-5.3-9.8-3-7.1-4.5-14.6-4.5-22.4 0-6 .9-11.9 2.7-17.6 1.8-5.5 4.3-10.7 7.6-15.4.3-.4.8-.7 1.3-.7.3 0 .6.1.9.3.3.2.6.6.6 1 .1.4 0 .8-.3 1.2-6.4 9.2-9.8 20-9.8 31.2 0 14.5 5.7 28.2 16 38.5s24 16 38.5 16c3.5 0 7.1-.3 10.5-1 1.6-.3 3.2-.7 4.7-1.2.1 0 .3-.1.4-.1.7 0 1.3.5 1.5 1.1 0 .1.1.3.1.4 0 .7-.5 1.3-1.1 1.5-1.6.5-3.3.9-5 1.2-3.6.7-7.3 1.1-11.1 1.1zm38.9-15.7c-.4 0-.8-.2-1.1-.5-.3-.3-.4-.7-.4-1.1 0-.4.2-.8.5-1.1 10.7-10.4 16.7-24.3 16.7-39.2 0-14.6-5.7-28.3-16-38.5-10.3-10.3-24-16-38.5-16-7.1 0-14.1 1.4-20.6 4-1.5.6-3 1.3-4.4 2.1-.2.1-.5.2-.7.2-.6 0-1.1-.3-1.4-.8-.1-.2-.2-.5-.2-.7 0-.6.3-1.1.8-1.4 1.5-.8 3.1-1.5 4.7-2.2 6.9-2.8 14.3-4.3 21.8-4.3 7.8 0 15.3 1.5 22.4 4.5 3.4 1.4 6.7 3.2 9.8 5.3 3 2.1 5.9 4.4 8.5 7 2.6 2.6 5 5.5 7 8.5 2.1 3.1 3.9 6.4 5.3 9.8 3 7.1 4.5 14.6 4.5 22.4 0 8-1.6 15.7-4.7 22.9-1.5 3.5-3.4 6.8-5.5 9.9-2.2 3.1-4.6 6-7.3 8.6-.4.4-.8.6-1.2.6z"/>
<path d="M546 272.9c-3.6 0-7.2-.7-10.5-2.1-3.2-1.4-6.1-3.3-8.6-5.8s-4.4-5.4-5.8-8.6c-1.4-3.3-2.1-6.9-2.1-10.5 0-4.7 1.2-9.2 3.5-13.3.3-.5.8-.8 1.4-.8.3 0 .5.1.8.2.7.4 1 1.4.6 2.1-2 3.6-3.1 7.6-3.1 11.7 0 6.4 2.5 12.4 7 16.9 4.5 4.5 10.5 7 16.9 7 6.4 0 12.4-2.5 16.9-7 4.5-4.5 7-10.5 7-16.9 0-13.2-10.7-23.9-23.9-23.9-.9 0-1.5-.7-1.5-1.5 0-.9.7-1.5 1.5-1.5 3.6 0 7.2.7 10.5 2.1 3.2 1.4 6.1 3.3 8.6 5.8s4.4 5.4 5.8 8.6c1.4 3.3 2.1 6.9 2.1 10.5 0 3.6-.7 7.2-2.1 10.5-1.4 3.2-3.3 6.1-5.8 8.6s-5.4 4.4-8.6 5.8c-3.4 1.4-6.9 2.1-10.6 2.1zm-78.1-32.6h-2.7c-5.9 0-10.7-4.8-10.7-10.7v-9.2c0-.4.2-.8.5-1.1.3-.3.7-.5 1.1-.5h21c.4 0 .8.2 1.1.5.3.3.5.7.5 1.1v9.2c-.1 5.9-4.9 10.7-10.8 10.7zm-10.3-18.4v7.6c0 2 .8 3.9 2.2 5.4 1.4 1.4 3.4 2.2 5.4 2.2h2.7c2 0 3.9-.8 5.4-2.2 1.4-1.4 2.2-3.4 2.2-5.4v-7.6z"/>
<path d="M456 221.9c-.9 0-1.5-.7-1.5-1.5v-27.2c0-.9.7-1.5 1.5-1.5.9 0 1.5.7 1.5 1.5v27.2c.1.8-.6 1.5-1.5 1.5zm7 0c-.9 0-1.5-.7-1.5-1.5v-27.2c0-.9.7-1.5 1.5-1.5.9 0 1.5.7 1.5 1.5v27.2c.1.8-.6 1.5-1.5 1.5zm7 0c-.9 0-1.5-.7-1.5-1.5v-27.2c0-.9.7-1.5 1.5-1.5.9 0 1.5.7 1.5 1.5v27.2c.1.8-.6 1.5-1.5 1.5zm7.1 0c-.9 0-1.5-.7-1.5-1.5v-27.2c0-.9.7-1.5 1.5-1.5.9 0 1.5.7 1.5 1.5v27.2c0 .8-.7 1.5-1.5 1.5zm-10.6 95c-.9 0-1.5-.7-1.5-1.5v-76.6c0-.9.7-1.5 1.5-1.5.9 0 1.5.7 1.5 1.5v76.6c.1.8-.6 1.5-1.5 1.5zm161.3-2.6c-.9 0-1.5-.7-1.5-1.5v-76.6c0-.9.7-1.5 1.5-1.5.9 0 1.5.7 1.5 1.5v76.6c.1.8-.6 1.5-1.5 1.5z"/>
<path d="M627.8 237.7c-2.1 0-4.2-.6-6.1-1.8-1.8-1.1-3.4-2.7-4.8-4.8-2.7-4.1-4.2-9.5-4.2-15.2 0-5.7 1.5-11.1 4.2-15.1 1.4-2 3-3.6 4.8-4.8 1.9-1.2 4-1.8 6.1-1.8 2.1 0 4.2.6 6.1 1.8 1.8 1.1 3.4 2.7 4.8 4.8 2.7 4.1 4.2 9.4 4.2 15.1 0 5.7-1.5 11.1-4.2 15.2-1.4 2-3 3.6-4.8 4.8-1.9 1.2-4 1.8-6.1 1.8zm0-3.1c3.1 0 6-1.9 8.3-5.2 2.4-3.5 3.7-8.4 3.7-13.4s-1.4-9.9-3.7-13.4c-2.3-3.4-5.2-5.2-8.3-5.2-3.1 0-6 1.9-8.3 5.2-2.4 3.5-3.7 8.4-3.7 13.4s1.4 9.9 3.7 13.4c2.3 3.4 5.2 5.2 8.3 5.2z"/>
</g>
</svg>