<svg xmlns="http://www.w3.org/2000/svg" viewBox="0 0 1006 1144" width="100%" height="100%" xml:space="preserve">
<defs>
<style type="text/css">

svg {
    background: gray;
}

@font-face {
    font-family: RobotoFlex;
    src: url("https://pixelambacht.nl/remote/RobotoFlex[slnt,wdth,wght,opsz].woff2");
    font-display:swap;
    text-align: initial;
    font-variation-settings: "wght" 400, "wdth" 100, "opsz" 14, "GRAD" 0, "slnt" 0, "XTRA" 468, "XOPQ" 96, "YOPQ" 79, "YTLC" 514, "YTUC" 712, "YTAS" 750, "YTDE" -203, "YTFI" 738;
    font-weight: 100 1000;
    font-stretch: 25% 151%;
}

.rfr-46 {
    font-family: RobotoFlex;
    font-size: 46px;
    font-variation-settings: "GRAD" 1;
}

.rfr-72 {
    font-family: RobotoFlex;
    font-size: 72px;
    font-variation-settings: "GRAD" 1;
}

.fff {
    fill: #fff;
}

</style>
</defs>
<path fill="#b3d9fe" d="m687.8 384-77-103.7 77-107.7h154.4l77.3 105.7-76 105.7"/>
<path fill="none" stroke="#000" stroke-width="3" stroke-linejoin="round" stroke-miterlimit="10" d="m687.8 384-77-103.7 77-107.7h154.4l77.3 105.7-76 105.7"/>
<path fill="#ffe7e0" d="M951.2 595.3H577.8c-23.9 0-43.3-19.4-43.3-43.3V425.6c0-23.9 19.4-43.3 43.3-43.3h373.3c23.9 0 43.3 19.4 43.3 43.3v126.3c.1 24-19.3 43.4-43.2 43.4z"/>
<path fill="none" stroke="#000" stroke-width="3" stroke-miterlimit="10" d="M951.2 595.3H577.8c-23.9 0-43.3-19.4-43.3-43.3V425.6c0-23.9 19.4-43.3 43.3-43.3h373.3c23.9 0 43.3 19.4 43.3 43.3v126.3c.1 24-19.3 43.4-43.2 43.4z"/>
<path fill="#ff7d7a" d="M334.5 462.3H48c-20.2 0-36.5-16-36.5-35.7v-48.9C11.5 358 27.8 342 48 342h286.5c20.2 0 36.5 16 36.5 35.7v48.9c0 19.7-16.3 35.7-36.5 35.7Z"/>
<path fill="none" stroke="#000" stroke-width="3" stroke-miterlimit="10" d="M334.5 462.3H48c-20.2 0-36.5-16-36.5-35.7v-48.9C11.5 358 27.8 342 48 342h286.5c20.2 0 36.5 16 36.5 35.7v48.9c0 19.7-16.3 35.7-36.5 35.7Z"/>
<path fill="#fefcca" d="M334.5 730.9H48c-20.2 0-36.5-16-36.5-35.7v-48.9c0-19.7 16.3-35.7 36.5-35.7h286.5c20.2 0 36.5 16 36.5 35.7v48.9c0 19.7-16.3 35.7-36.5 35.7z"/>
<path fill="none" stroke="#000" stroke-width="3" stroke-miterlimit="10" d="M334.5 730.9H48c-20.2 0-36.5-16-36.5-35.7v-48.9c0-19.7 16.3-35.7 36.5-35.7h286.5c20.2 0 36.5 16 36.5 35.7v48.9c0 19.7-16.3 35.7-36.5 35.7z"/>

<g transform="translate(-322.5 -107.7)" fill="#ffe7e0" stroke="#000" stroke-width="3" stroke-miterlimit="10">
<path d="m400.5 142.5.4 190.1c0 6.1 3.5 11.7 9 14.3 36.9 17.3 171 23 211.1-2.3 3.8-2.4 6.1-6.6 6.1-11.1v-191"/>
<ellipse cx="513.7" cy="143.6" rx="113.3" ry="24.4"/>
</g>

<text class="rfr-46" x="110" y="682">UI Client</text>
<text class="rfr-46 fff" transform="translate(101 1140)">Member</text>
<text class="rfr-46" x="91.169"  y="388.655"><tspan x="91"  y="389">Algorithm</tspan><tspan x="112" y="444">Service</tspan></text>
<text class="rfr-46" x="139.999" y="145.655"><tspan x="140" y="146">Data</tspan><tspan x="134" y="201">Store</tspan></text>
<text class="rfr-72" x="662.917" y="474.988"><tspan x="663" y="475">Online </tspan><tspan x="566" y="546">Computation</tspan></text>
<text class="rfr-46" x="673.644" y="238.488"><tspan x="674" y="245">Machine</tspan><tspan x="676" y="290">Learning </tspan><tspan x="670" y="340">Algorithm</tspan></text>
<path d="M191.7 602.8v-141M191.5 603.4l-13.7-36.3h27.5z"/>
<path fill="#fff" stroke="#fff" d="M189.7 461.8v105.3h-11.8l13.8 38.1 13.7-38.1h-11.7V461.8zM534.5 451.1l-120.4-17.2 1.7-11.6-39.7 8.2 35.8 19 1.7-11.6 120.8 17.4c0-1.4 0-2.8.1-4.2zM187.3 729.6v77.5h-11.7l13.7 38.2 13.8-38.2h-11.8v-77.5zM189.5 255.2v41.7h-11.7l13.7 38.2 13.8-38.2h-11.8v-41.7z"/>

<g transform="translate(-322.5 -107.7)">
<ellipse fill="#fff" cx="514.4" cy="1009.3" rx="37.9" ry="28.1"/>
<ellipse fill="none" stroke="#fff" stroke-width="3" stroke-miterlimit="10" cx="514.4" cy="1009.3" rx="37.9" ry="28.1"/>
</g>

<path fill="#fff" stroke="#fff" stroke-width="3" stroke-miterlimit="10" d="M191.9 928.1v85"/>
<path fill="none" stroke="#fff" stroke-width="3" stroke-linecap="round" stroke-miterlimit="10" d="m154 1095.6 37.9-83.5 37.9 83.5M115.5 957.1h151.8"/>
<text class="rfr-46 fff" x="249" y="832">Recommendations</text>

</svg>