<svg id="ide-title-no" xmlns="http://www.w3.org/2000/svg" version="1.1" x="0" y="0" viewBox="0 0 643 617" xml:space="preserve">
<defs>
<style type="text/css">

svg {
    background: gray;
}

@font-face {
    font-family: "RobotoFlex";
    src: url("https://s3.amazonaws.com/benetta.net/fonts/robotoflex-woff2/RobotoFlex.woff2");
    font-display:swap;
    text-align: initial;
    font-variation-settings: "wght" 400, "wdth" 100, "opsz" 14, "GRAD" 0, "slnt" 0, "XTRA" 468, "XOPQ" 96, "YOPQ" 79, "YTLC" 514, "YTUC" 712, "YTAS" 750, "YTDE" -203, "YTFI" 738;
    font-weight: 100 1000;
    font-stretch: 25% 151%;
}

@font-face {
    font-family:zilla-slab;
    src:url('https://s3.amazonaws.com/benetta.net/fonts/zilla-slab/zilla-slab-v6-latin-500.woff2') format('woff2');
    font-display:swap;
    text-align: initial;
    font-style:normal;
    font-weight:500;
}

.rfr {
    font-family: "RobotoFlex";
    font-variation-settings: "GRAD" 1;
}

.zs1 {
    font-family: zilla-slab;
}

.fff {
    fill: #fff;
}
</style>
</defs>

<circle fill="#4992ff" stroke="#231f20" stroke-width="2" stroke-miterlimit="10" cx="322.2" cy="332" r="109"/>
<circle fill="#92b655" stroke="#231f20" stroke-width="2" stroke-miterlimit="10" cx="555.3" cy="255.9" r="77" id="circle8"/>
<circle fill="#db4955" stroke="#231f20" stroke-width="2" stroke-miterlimit="10" cx="320.2" cy="88" r="77" id="circle10"/>
<circle fill="#ff9200" stroke="#231f20" stroke-width="2" stroke-miterlimit="10" cx="88" cy="255.9" r="77" id="circle12"/>
<circle fill="#49b6ff" stroke="#231f20" stroke-width="2" stroke-miterlimit="10" cx="178.6" cy="529" r="77" id="circle14"/>
<circle fill="#6d49aa" stroke="#231f20" stroke-width="2" stroke-miterlimit="10" cx="464.8" cy="529" r="77" id="circle16"/>
<path fill="#92b655" stroke="#231f20" stroke-width="2" stroke-miterlimit="10" d="M548.4 340.5c-1.7 43.1-15.4 83.2-37.8 116.9 5.7 3.7 11 8 15.6 12.9 26-38.4 40.7-83.3 42.2-130.5-4.3.7-8.7 1-13.2 1-2.2.1-4.5-.1-6.8-.3z"/>
<path fill="#ff9200" stroke="#231f20" stroke-width="2" stroke-miterlimit="10" d="M240.5 117.6a87.1 87.1 0 0 1-4.7-19.7c-33.9 12.2-65 31.9-91.2 58.1-7.3 7.3-14.1 15-20.4 23 6.2 2.9 11.9 6.5 17.1 10.8 25.8-32.3 59.9-57.5 99.2-72.2z" id="path20"/>
<path fill="#49b6ff" stroke="#231f20" stroke-width="2" stroke-miterlimit="10" d="M130.7 458.8c-22.9-34-36.9-74.5-38.6-118.1-1.3.1-2.7.1-4.1.1-5.5 0-10.8-.5-16-1.5 1.5 48.1 16.6 93.9 43.4 132.8 4.6-5 9.7-9.5 15.3-13.3z" id="path22"/>
<path fill="#6d49aa" stroke="#231f20" stroke-width="2" stroke-miterlimit="10" d="M390.3 570c-3.2-5.9-5.8-12.1-7.5-18.7-19.9 5.7-40.8 8.7-62.5 8.7-20.7 0-40.7-2.8-59.8-8-1.8 6.6-4.5 12.9-7.7 18.7 21.7 6.1 44.4 9.3 67.6 9.3 23.9-.1 47.4-3.5 69.9-10z" id="path24"/>
<path fill="#db4955" stroke="#231f20" stroke-width="2" stroke-miterlimit="10" d="M495.8 156c-26.2-26.2-57.3-45.9-91.2-58.1-.8 6.9-2.4 13.5-4.7 19.7 39.9 14.9 74.5 40.6 100.3 73.6 5.1-4.4 10.7-8.1 16.8-11.2-6.5-8.4-13.5-16.4-21.2-24z" id="path26"/>
<text class="rfr fff" font-size="32" x="285.282" y="91.666" id="text17">Write</text>
<text class="rfr fff" font-size="32" x="515.282" y="263" id="text19">Debug</text>
<text class="rfr fff" font-size="30" x="20.282" y="263" id="text21">Document</text>
<text class="rfr fff" font-size="32" x="155.282" y="536.5" id="text23">Run</text>
<text class="rfr fff" font-size="32" x="403.282" y="536.5" id="text25">Translate</text>
<text class="zs1 fff" font-size="72" x="266" y="354">IDE</text>
</svg>