<svg version="1.0" xmlns="http://www.w3.org/2000/svg" viewBox="0 0 983 912" preserveAspectRatio="xMidYMid meet">
<g transform="translate(0.000000,912.000000) scale(0.100000,-0.100000)" fill="#000000" stroke="none">
<path d="M2918 8924 c-104 -36 -171 -130 -171 -239 -1 -221 242 -335 421 -198 21 15 46 51 64 89 l30 64 419 0 419 0 0 -1090 c0 -619 -4 -1090 -9 -1090 -5 0 -25 7 -44 15 -74 31 -208 64 -304 75 -305 36 -628 -97 -924 -378 -129 -122 -190 -199 -269 -340 l-66 -116 -129 -41 c-72 -23 -182 -63 -247 -88 l-116 -47 -515 0 -515 0 -4 29 c-2 16 -4 192 -4 391 l1 362 51 19 c112 42 186 145 185 258 -1 237 -279 365 -455 210 -63 -56 -88 -107 -94 -196 -4 -64 -1 -79 22 -127 32 -66 90 -118 156 -142 30 -11 50 -25 54 -37 2 -10 5 -197 6 -415 0 -270 4 -400 12 -409 8 -10 105 -13 483 -13 259 0 475 -3 478 -6 4 -4 -20 -25 -52 -48 -179 -126 -303 -286 -356 -456 -10 -34 -19 -107 -22 -189 l-6 -134 -165 6 c-91 4 -196 7 -233 7 l-67 0 -17 49 c-21 64 -73 123 -137 155 -65 33 -170 36 -234 7 -96 -44 -155 -130 -162 -239 -11 -157 112 -285 273 -286 114 0 224 76 264 184 l17 45 243 0 243 0 33 -93 c37 -101 95 -222 150 -308 19 -30 35 -59 35 -64 0 -5 -11 -34 -25 -65 -29 -63 -81 -216 -90 -269 l-7 -36 -402 -1 c-441 -1 -784 -7 -804 -14 -9 -3 -12 -76 -12 -318 0 -173 -3 -394 -6 -493 l-7 -179 -52 -23 c-73 -32 -119 -74 -149 -134 -50 -100 -28 -234 52 -313 110 -111 299 -106 400 9 57 65 67 93 67 188 0 85 -1 88 -41 145 -34 49 -53 64 -117 97 l-77 38 0 459 0 459 569 0 568 0 6 -128 c15 -362 194 -699 577 -1083 224 -224 368 -333 587 -443 385 -194 780 -197 1156 -10 l107 53 0 -560 0 -559 -213 0 c-118 0 -274 -3 -349 -6 l-134 -7 -17 45 c-44 115 -130 178 -244 178 -105 0 -180 -44 -228 -132 -53 -97 -35 -216 44 -296 77 -76 200 -95 299 -46 58 29 91 66 122 137 l21 47 383 0 384 0 6 22 c3 13 6 295 6 628 l1 605 46 35 c26 19 79 62 117 95 l70 60 250 6 c138 3 254 4 259 2 9 -5 9 -1355 -1 -1368 -4 -6 -30 -21 -59 -34 -134 -62 -190 -207 -129 -336 57 -120 184 -173 317 -133 94 28 169 134 169 239 0 106 -55 185 -164 235 l-58 26 3 685 c2 377 6 688 9 693 3 4 46 10 95 14 126 10 335 41 505 76 79 16 148 27 152 24 4 -3 8 -468 8 -1033 0 -785 3 -1030 12 -1039 9 -9 123 -12 454 -12 l441 0 32 -65 c37 -75 86 -120 155 -140 63 -19 90 -19 155 1 166 49 233 252 130 392 -92 125 -283 137 -392 24 -20 -20 -44 -59 -55 -87 l-20 -50 -415 -3 c-362 -2 -416 0 -421 13 -3 8 -4 468 -3 1022 l2 1007 112 42 c434 161 673 380 752 690 l11 41 182 11 c408 26 700 93 958 220 l115 57 505 0 505 0 0 -385 0 -385 -70 -37 c-112 -58 -165 -139 -165 -249 0 -162 148 -295 304 -274 150 19 248 128 250 275 1 114 -73 217 -183 257 l-51 18 -1 395 c0 378 -2 437 -15 449 -3 3 -221 7 -485 9 -263 1 -479 5 -479 8 0 4 26 34 57 68 164 177 229 360 221 626 l-3 125 290 3 c160 1 299 0 311 -2 13 -4 28 -25 44 -62 58 -141 201 -208 349 -163 102 31 185 149 184 264 -1 117 -87 228 -202 262 -139 40 -304 -50 -341 -187 l-11 -40 -323 0 -324 0 -22 83 c-48 179 -167 444 -289 643 -34 54 -61 102 -61 106 0 4 367 9 816 10 794 3 816 4 830 22 12 17 14 101 14 497 l0 478 60 27 c66 30 132 94 157 152 23 55 21 160 -5 213 -50 103 -142 163 -252 164 -108 0 -192 -50 -245 -146 -26 -47 -30 -64 -30 -129 1 -131 66 -215 208 -269 l27 -11 0 -460 0 -460 -823 0 -824 0 -51 63 c-109 135 -270 271 -397 334 -48 24 -154 59 -210 68 -22 4 -86 7 -141 7 l-102 -1 -65 78 c-277 331 -553 558 -850 696 l-107 50 0 718 0 717 350 0 349 0 26 -54 c36 -76 60 -103 118 -133 124 -65 285 -14 348 110 66 127 8 290 -124 348 -136 60 -296 -7 -345 -143 l-17 -48 -386 0 -386 0 -7 -31 c-3 -17 -6 -350 -6 -740 0 -390 -3 -709 -6 -709 -4 0 -37 9 -73 19 -132 39 -242 54 -401 55 -85 1 -179 -3 -207 -7 l-53 -8 0 670 0 670 47 21 c110 48 163 125 164 234 1 79 -23 136 -77 188 -75 72 -184 91 -279 49 -60 -27 -89 -52 -123 -111 -36 -60 -38 -174 -5 -236 28 -53 93 -109 147 -127 l41 -14 0 -677 0 -678 -150 -49 c-170 -56 -342 -138 -493 -233 -57 -36 -106 -66 -108 -66 -2 0 -5 510 -6 1134 -2 624 -7 1138 -11 1143 -5 4 -212 10 -460 13 l-451 5 -9 31 c-14 48 -78 126 -125 152 -56 31 -141 37 -204 16z m2476 -2199 c300 -22 619 -159 916 -394 169 -134 481 -455 466 -480 -4 -5 -23 -15 -44 -22 -55 -18 -168 -76 -243 -126 -121 -79 -293 -256 -379 -389 l-33 -52 -66 19 c-286 79 -512 216 -648 392 l-45 58 35 38 c45 50 54 68 67 128 28 132 -83 263 -224 263 -142 0 -253 -142 -217 -278 24 -93 105 -159 206 -169 54 -6 56 -7 99 -67 80 -112 216 -225 353 -295 71 -35 213 -89 321 -121 39 -12 74 -25 77 -29 2 -4 -7 -34 -20 -67 -14 -32 -30 -85 -36 -117 -10 -48 -18 -62 -50 -87 -48 -39 -89 -120 -89 -177 0 -91 67 -177 162 -209 100 -33 208 15 261 116 25 47 28 63 24 108 -11 106 -81 182 -189 204 -67 14 -66 9 -14 143 78 202 296 454 490 567 357 209 685 154 997 -169 222 -228 459 -662 545 -998 27 -101 29 -125 29 -285 -1 -163 -3 -181 -28 -255 -14 -44 -43 -109 -64 -144 -47 -79 -161 -196 -244 -250 -252 -164 -621 -261 -1090 -287 l-126 -7 -6 124 c-6 135 -36 271 -81 373 -14 32 -26 64 -26 71 0 7 28 28 63 45 88 46 209 126 297 197 85 69 242 229 280 285 22 34 29 38 68 38 119 0 206 60 236 161 54 181 -136 339 -309 258 -139 -65 -167 -230 -60 -358 l27 -31 -24 -32 c-107 -152 -358 -362 -549 -462 l-74 -38 -70 69 c-121 119 -236 181 -422 228 -153 38 -273 48 -498 42 -191 -5 -358 -25 -524 -61 l-65 -14 -55 43 c-75 57 -207 197 -252 265 -94 143 -133 261 -133 405 0 55 6 128 13 161 l13 62 56 6 c107 13 168 57 207 149 56 135 -57 297 -209 297 -94 0 -155 -35 -201 -115 -51 -89 -38 -185 36 -263 l40 -43 -15 -69 c-9 -38 -16 -80 -16 -94 0 -15 -3 -26 -6 -26 -11 0 -127 73 -214 134 -140 99 -303 265 -365 373 l-19 33 41 42 c51 53 73 102 73 166 0 63 -21 112 -66 156 -110 106 -289 79 -356 -53 -76 -148 12 -307 181 -330 48 -6 50 -7 102 -86 66 -99 227 -263 335 -341 45 -33 127 -86 183 -119 63 -38 103 -67 106 -80 2 -11 11 -54 19 -96 32 -170 123 -327 283 -488 57 -56 103 -104 103 -106 0 -2 -12 -6 -27 -9 -16 -4 -120 -36 -233 -71 -445 -139 -712 -188 -1020 -188 -178 0 -283 14 -425 59 -109 34 -105 30 -94 89 21 110 -21 203 -112 249 -138 68 -290 -7 -324 -161 -4 -20 0 -54 10 -88 21 -73 74 -127 148 -151 63 -20 102 -15 172 21 38 19 53 22 68 13 86 -45 285 -92 444 -103 l92 -7 30 -77 c79 -202 109 -395 80 -533 -19 -90 -73 -191 -130 -242 -65 -58 -175 -112 -274 -133 -72 -16 -78 -16 -86 0 -5 9 -24 35 -42 59 -86 114 -251 119 -349 10 -80 -89 -75 -214 14 -301 45 -45 93 -63 161 -63 106 1 177 53 217 159 17 46 20 48 71 59 236 47 397 168 464 346 15 40 33 78 39 84 14 16 189 58 346 85 226 38 574 37 735 -3 49 -13 50 -13 57 -61 15 -110 83 -186 184 -207 186 -39 336 161 242 321 -49 84 -110 119 -206 119 -58 0 -109 -23 -159 -72 l-42 -41 -98 18 c-142 27 -458 32 -623 11 -107 -14 -376 -68 -415 -82 -9 -4 -14 22 -19 93 -8 118 -34 239 -75 352 -17 47 -31 88 -31 92 0 4 33 10 73 13 310 28 539 76 917 196 224 70 310 94 415 115 469 91 862 82 1134 -28 229 -92 375 -269 426 -512 37 -181 29 -338 -25 -486 -151 -413 -708 -665 -1625 -734 -204 -15 -741 -19 -903 -7 l-84 7 -19 55 c-31 92 -122 160 -213 160 -90 0 -194 -77 -216 -160 -35 -130 61 -267 195 -278 94 -8 159 30 235 137 15 20 19 21 162 13 81 -4 151 -11 155 -15 18 -19 -210 -183 -342 -246 -193 -92 -333 -125 -530 -125 -374 1 -731 178 -1108 552 -311 307 -485 588 -553 893 -12 50 -17 120 -17 214 0 119 4 155 26 237 50 187 144 351 291 505 l84 88 48 -23 c96 -47 192 -39 260 21 132 115 86 333 -78 378 -176 47 -328 -106 -278 -280 9 -33 7 -36 -55 -103 -36 -38 -93 -103 -126 -146 -34 -42 -64 -78 -68 -80 -10 -3 -64 89 -115 199 -112 236 -130 465 -50 646 76 174 251 336 492 455 70 35 143 69 162 76 94 36 265 90 272 86 4 -3 4 -26 1 -53 -11 -99 34 -262 103 -366 122 -186 376 -368 722 -516 37 -16 42 -22 42 -51 0 -57 19 -104 60 -151 115 -130 333 -82 380 84 16 56 12 102 -15 156 -39 77 -109 123 -189 123 -77 0 -106 -11 -162 -63 l-55 -50 -44 18 c-128 48 -346 172 -461 261 -229 177 -338 386 -304 580 26 154 107 297 255 452 153 161 305 272 470 345 133 58 224 77 382 78 272 1 522 -117 789 -374 l115 -110 21 21 22 21 -71 78 c-38 43 -117 116 -175 163 -58 47 -106 90 -108 95 -4 13 155 111 280 174 117 59 233 102 370 137 105 27 329 55 385 48 17 -2 66 -6 109 -9z"/>
</g>
</svg>