<?xml version="1.0" encoding="UTF-8" standalone="no"?>
<svg xmlns="http://www.w3.org/2000/svg" xmlns:xlink="http://www.w3.org/1999/xlink" contentScriptType="application/ecmascript" contentStyleType="text/css" height="478px" preserveAspectRatio="none" style="width:1825px;height:478px;" version="1.1" viewBox="0 0 1825 478" width="1825px" zoomAndPan="magnify"><defs><filter height="300%" id="fhvww14" width="300%" x="-1" y="-1"><feGaussianBlur result="blurOut" stdDeviation="2.0"/><feColorMatrix in="blurOut" result="blurOut2" type="matrix" values="0 0 0 0 0 0 0 0 0 0 0 0 0 0 0 0 0 0 .4 0"/><feOffset dx="4.0" dy="4.0" in="blurOut2" result="blurOut3"/><feBlend in="SourceGraphic" in2="blurOut3" mode="normal"/></filter></defs><g><!--class Subject--><rect fill="#FEFECE" filter="url(#fhvww14)" height="31.9688" style="stroke: #A80036; stroke-width: 1.5;" width="53" x="58.5" y="14.5"/><text fill="#000000" font-family="sans-serif" font-size="12" lengthAdjust="spacingAndGlyphs" textLength="47" x="61.5" y="30.6387">Subject</text><line style="stroke: #A80036; stroke-width: 1.5;" x1="59.5" x2="110.5" y1="38.4688" y2="38.4688"/><!--class PrincipalInvestigator--><rect fill="#FEFECE" filter="url(#fhvww14)" height="31.9688" style="stroke: #A80036; stroke-width: 1.5;" width="133" x="146.5" y="14.5"/><text fill="#000000" font-family="sans-serif" font-size="12" lengthAdjust="spacingAndGlyphs" textLength="127" x="149.5" y="30.6387">PrincipalInvestigator</text><line style="stroke: #A80036; stroke-width: 1.5;" x1="147.5" x2="278.5" y1="38.4688" y2="38.4688"/><!--class AdverseEventBegin--><rect fill="#FEFECE" filter="url(#fhvww14)" height="31.9688" style="stroke: #A80036; stroke-width: 1.5;" width="126" x="789" y="239"/><text fill="#000000" font-family="sans-serif" font-size="12" lengthAdjust="spacingAndGlyphs" textLength="120" x="792" y="255.1387">AdverseEventBegin</text><line style="stroke: #A80036; stroke-width: 1.5;" x1="790" x2="914" y1="262.9688" y2="262.9688"/><!--class AdverseEventInterval--><rect fill="#FEFECE" filter="url(#fhvww14)" height="31.9688" style="stroke: #A80036; stroke-width: 1.5;" width="137" x="864.5" y="130"/><text fill="#000000" font-family="sans-serif" font-size="12" lengthAdjust="spacingAndGlyphs" textLength="131" x="867.5" y="146.1387">AdverseEventInterval</text><line style="stroke: #A80036; stroke-width: 1.5;" x1="865.5" x2="1000.5" y1="153.9688" y2="153.9688"/><!--class AdverseEventEnd--><rect fill="#FEFECE" filter="url(#fhvww14)" height="31.9688" style="stroke: #A80036; stroke-width: 1.5;" width="115" x="956.5" y="239"/><text fill="#000000" font-family="sans-serif" font-size="12" lengthAdjust="spacingAndGlyphs" textLength="109" x="959.5" y="255.1387">AdverseEventEnd</text><line style="stroke: #A80036; stroke-width: 1.5;" x1="957.5" x2="1070.5" y1="262.9688" y2="262.9688"/><!--class MedicalConditionOutcome--><rect fill="#FEFECE" filter="url(#fhvww14)" height="31.9688" style="stroke: #A80036; stroke-width: 1.5;" width="168" x="315" y="14.5"/><text fill="#000000" font-family="sans-serif" font-size="12" lengthAdjust="spacingAndGlyphs" textLength="162" x="318" y="30.6387">MedicalConditionOutcome</text><line style="stroke: #A80036; stroke-width: 1.5;" x1="316" x2="482" y1="38.4688" y2="38.4688"/><!--class StudyDesignActivity--><rect fill="#FEFECE" filter="url(#fhvww14)" height="31.9688" style="stroke: #A80036; stroke-width: 1.5;" width="127" x="518.5" y="14.5"/><text fill="#000000" font-family="sans-serif" font-size="12" lengthAdjust="spacingAndGlyphs" textLength="121" x="521.5" y="30.6387">StudyDesignActivity</text><line style="stroke: #A80036; stroke-width: 1.5;" x1="519.5" x2="644.5" y1="38.4688" y2="38.4688"/><!--class Outcome--><rect fill="#FEFECE" filter="url(#fhvww14)" height="31.9688" style="stroke: #A80036; stroke-width: 1.5;" width="62" x="681" y="14.5"/><text fill="#000000" font-family="sans-serif" font-size="12" lengthAdjust="spacingAndGlyphs" textLength="56" x="684" y="30.6387">Outcome</text><line style="stroke: #A80036; stroke-width: 1.5;" x1="682" x2="742" y1="38.4688" y2="38.4688"/><!--class MedicalCondition--><rect fill="#FEFECE" filter="url(#fhvww14)" height="31.9688" style="stroke: #A80036; stroke-width: 1.5;" width="112" x="29" y="130"/><text fill="#000000" font-family="sans-serif" font-size="12" lengthAdjust="spacingAndGlyphs" textLength="106" x="32" y="146.1387">MedicalCondition</text><line style="stroke: #A80036; stroke-width: 1.5;" x1="30" x2="140" y1="153.9688" y2="153.9688"/><!--class Interval--><rect fill="#FEFECE" filter="url(#fhvww14)" height="31.9688" style="stroke: #A80036; stroke-width: 1.5;" width="52" x="1642" y="14.5"/><text fill="#000000" font-family="sans-serif" font-size="12" lengthAdjust="spacingAndGlyphs" textLength="46" x="1645" y="30.6387">Interval</text><line style="stroke: #A80036; stroke-width: 1.5;" x1="1643" x2="1693" y1="38.4688" y2="38.4688"/><!--class EndInstant--><rect fill="#FEFECE" filter="url(#fhvww14)" height="31.9688" style="stroke: #A80036; stroke-width: 1.5;" width="74" x="1570" y="130"/><text fill="#000000" font-family="sans-serif" font-size="12" lengthAdjust="spacingAndGlyphs" textLength="68" x="1573" y="146.1387">EndInstant</text><line style="stroke: #A80036; stroke-width: 1.5;" x1="1571" x2="1643" y1="153.9688" y2="153.9688"/><!--class BeginInstant--><rect fill="#FEFECE" filter="url(#fhvww14)" height="31.9688" style="stroke: #A80036; stroke-width: 1.5;" width="85" x="1686.5" y="130"/><text fill="#000000" font-family="sans-serif" font-size="12" lengthAdjust="spacingAndGlyphs" textLength="79" x="1689.5" y="146.1387">BeginInstant</text><line style="stroke: #A80036; stroke-width: 1.5;" x1="1687.5" x2="1770.5" y1="153.9688" y2="153.9688"/><!--class UnderlyingCondition--><rect fill="#FEFECE" filter="url(#fhvww14)" height="31.9688" style="stroke: #A80036; stroke-width: 1.5;" width="131" x="176.5" y="130"/><text fill="#000000" font-family="sans-serif" font-size="12" lengthAdjust="spacingAndGlyphs" textLength="125" x="179.5" y="146.1387">UnderlyingCondition</text><line style="stroke: #A80036; stroke-width: 1.5;" x1="177.5" x2="306.5" y1="153.9688" y2="153.9688"/><!--class StudySubject--><rect fill="#FEFECE" filter="url(#fhvww14)" height="31.9688" style="stroke: #A80036; stroke-width: 1.5;" width="88" x="343" y="130"/><text fill="#000000" font-family="sans-serif" font-size="12" lengthAdjust="spacingAndGlyphs" textLength="82" x="346" y="146.1387">StudySubject</text><line style="stroke: #A80036; stroke-width: 1.5;" x1="344" x2="430" y1="153.9688" y2="153.9688"/><!--class Duration--><rect fill="#FEFECE" filter="url(#fhvww14)" height="31.9688" style="stroke: #A80036; stroke-width: 1.5;" width="60" x="466" y="130"/><text fill="#000000" font-family="sans-serif" font-size="12" lengthAdjust="spacingAndGlyphs" textLength="54" x="469" y="146.1387">Duration</text><line style="stroke: #A80036; stroke-width: 1.5;" x1="467" x2="525" y1="153.9688" y2="153.9688"/><!--class Animal--><rect fill="#FEFECE" filter="url(#fhvww14)" height="31.9688" style="stroke: #A80036; stroke-width: 1.5;" width="47" x="561.5" y="130"/><text fill="#000000" font-family="sans-serif" font-size="12" lengthAdjust="spacingAndGlyphs" textLength="41" x="564.5" y="146.1387">Animal</text><line style="stroke: #A80036; stroke-width: 1.5;" x1="562.5" x2="607.5" y1="153.9688" y2="153.9688"/><!--class MedicalConditionInterval--><rect fill="#FEFECE" filter="url(#fhvww14)" height="31.9688" style="stroke: #A80036; stroke-width: 1.5;" width="158" x="6" y="239"/><text fill="#000000" font-family="sans-serif" font-size="12" lengthAdjust="spacingAndGlyphs" textLength="152" x="9" y="255.1387">MedicalConditionInterval</text><line style="stroke: #A80036; stroke-width: 1.5;" x1="7" x2="163" y1="262.9688" y2="262.9688"/><!--class AnimalStudySubject--><rect fill="#FEFECE" filter="url(#fhvww14)" height="31.9688" style="stroke: #A80036; stroke-width: 1.5;" width="129" x="199.5" y="239"/><text fill="#000000" font-family="sans-serif" font-size="12" lengthAdjust="spacingAndGlyphs" textLength="123" x="202.5" y="255.1387">AnimalStudySubject</text><line style="stroke: #A80036; stroke-width: 1.5;" x1="200.5" x2="327.5" y1="262.9688" y2="262.9688"/><!--class DrugProduct--><rect fill="#FEFECE" filter="url(#fhvww14)" height="31.9688" style="stroke: #A80036; stroke-width: 1.5;" width="85" x="363.5" y="239"/><text fill="#000000" font-family="sans-serif" font-size="12" lengthAdjust="spacingAndGlyphs" textLength="79" x="366.5" y="255.1387">DrugProduct</text><line style="stroke: #A80036; stroke-width: 1.5;" x1="364.5" x2="447.5" y1="262.9688" y2="262.9688"/><!--class EntityInterval--><rect fill="#FEFECE" filter="url(#fhvww14)" height="31.9688" style="stroke: #A80036; stroke-width: 1.5;" width="87" x="483.5" y="239"/><text fill="#000000" font-family="sans-serif" font-size="12" lengthAdjust="spacingAndGlyphs" textLength="81" x="486.5" y="255.1387">EntityInterval</text><line style="stroke: #A80036; stroke-width: 1.5;" x1="484.5" x2="569.5" y1="262.9688" y2="262.9688"/><!--class EligibilityDetermination--><rect fill="#FEFECE" filter="url(#fhvww14)" height="31.9688" style="stroke: #A80036; stroke-width: 1.5;" width="148" x="606" y="239"/><text fill="#000000" font-family="sans-serif" font-size="12" lengthAdjust="spacingAndGlyphs" textLength="142" x="609" y="255.1387">EligibilityDetermination</text><line style="stroke: #A80036; stroke-width: 1.5;" x1="607" x2="753" y1="262.9688" y2="262.9688"/><!--class EntityOutcome--><rect fill="#FEFECE" filter="url(#fhvww14)" height="31.9688" style="stroke: #A80036; stroke-width: 1.5;" width="97" x="36.5" y="338.5"/><text fill="#000000" font-family="sans-serif" font-size="12" lengthAdjust="spacingAndGlyphs" textLength="91" x="39.5" y="354.6387">EntityOutcome</text><line style="stroke: #A80036; stroke-width: 1.5;" x1="37.5" x2="132.5" y1="362.4688" y2="362.4688"/><!--class BeginOrOccurInstant--><rect fill="#FEFECE" filter="url(#fhvww14)" height="31.9688" style="stroke: #A80036; stroke-width: 1.5;" width="135" x="168.5" y="338.5"/><text fill="#000000" font-family="sans-serif" font-size="12" lengthAdjust="spacingAndGlyphs" textLength="129" x="171.5" y="354.6387">BeginOrOccurInstant</text><line style="stroke: #A80036; stroke-width: 1.5;" x1="169.5" x2="302.5" y1="362.4688" y2="362.4688"/><!--class Instant--><rect fill="#FEFECE" filter="url(#fhvww14)" height="44.7734" style="stroke: #A80036; stroke-width: 1.5;" width="146" x="339" y="332"/><text fill="#000000" font-family="sans-serif" font-size="12" lengthAdjust="spacingAndGlyphs" textLength="44" x="390" y="348.1387">Instant</text><line style="stroke: #A80036; stroke-width: 1.5;" x1="340" x2="484" y1="355.9688" y2="355.9688"/><text fill="#000000" font-family="sans-serif" font-size="11" lengthAdjust="spacingAndGlyphs" textLength="134" x="345" y="370.1792">inXSDDate  : date [1..1]</text><!--class AnimalSubject--><rect fill="#FEFECE" filter="url(#fhvww14)" height="31.9688" style="stroke: #A80036; stroke-width: 1.5;" width="94" x="520" y="338.5"/><text fill="#000000" font-family="sans-serif" font-size="12" lengthAdjust="spacingAndGlyphs" textLength="88" x="523" y="354.6387">AnimalSubject</text><line style="stroke: #A80036; stroke-width: 1.5;" x1="521" x2="613" y1="362.4688" y2="362.4688"/><!--class DrugSubstance--><rect fill="#FEFECE" filter="url(#fhvww14)" height="31.9688" style="stroke: #A80036; stroke-width: 1.5;" width="103" x="649.5" y="338.5"/><text fill="#000000" font-family="sans-serif" font-size="12" lengthAdjust="spacingAndGlyphs" textLength="97" x="652.5" y="354.6387">DrugSubstance</text><line style="stroke: #A80036; stroke-width: 1.5;" x1="650.5" x2="751.5" y1="362.4688" y2="362.4688"/><!--class DataCollectionDate--><rect fill="#FEFECE" filter="url(#fhvww14)" height="31.9688" style="stroke: #A80036; stroke-width: 1.5;" width="127" x="21.5" y="438"/><text fill="#000000" font-family="sans-serif" font-size="12" lengthAdjust="spacingAndGlyphs" textLength="121" x="24.5" y="454.1387">DataCollectionDate</text><line style="stroke: #A80036; stroke-width: 1.5;" x1="22.5" x2="147.5" y1="461.9688" y2="461.9688"/><!--class AdverseEvent--><rect fill="#FEFECE" filter="url(#fhvww14)" height="44.7734" style="stroke: #A80036; stroke-width: 1.5;" width="174" x="1128" y="8"/><text fill="#000000" font-family="sans-serif" font-size="12" lengthAdjust="spacingAndGlyphs" textLength="85" x="1172.5" y="24.1387">AdverseEvent</text><line style="stroke: #A80036; stroke-width: 1.5;" x1="1129" x2="1301" y1="31.9688" y2="31.9688"/><text fill="#000000" font-family="sans-serif" font-size="11" lengthAdjust="spacingAndGlyphs" textLength="162" x="1134" y="46.1792">reportedTerm  : string [1..1]</text><!--class Causality--><rect fill="#FEFECE" filter="url(#fhvww14)" height="31.9688" style="stroke: #A80036; stroke-width: 1.5;" width="62" x="1044" y="130"/><text fill="#000000" font-family="sans-serif" font-size="12" lengthAdjust="spacingAndGlyphs" textLength="56" x="1047" y="146.1387">Causality</text><line style="stroke: #A80036; stroke-width: 1.5;" x1="1045" x2="1105" y1="153.9688" y2="153.9688"/><!--class AdverseEventOutcome--><rect fill="#FEFECE" filter="url(#fhvww14)" height="31.9688" style="stroke: #A80036; stroke-width: 1.5;" width="147" x="1141.5" y="130"/><text fill="#000000" font-family="sans-serif" font-size="12" lengthAdjust="spacingAndGlyphs" textLength="141" x="1144.5" y="146.1387">AdverseEventOutcome</text><line style="stroke: #A80036; stroke-width: 1.5;" x1="1142.5" x2="1287.5" y1="153.9688" y2="153.9688"/><!--class Severity--><rect fill="#FEFECE" filter="url(#fhvww14)" height="31.9688" style="stroke: #A80036; stroke-width: 1.5;" width="55" x="1323.5" y="130"/><text fill="#000000" font-family="sans-serif" font-size="12" lengthAdjust="spacingAndGlyphs" textLength="49" x="1326.5" y="146.1387">Severity</text><line style="stroke: #A80036; stroke-width: 1.5;" x1="1324.5" x2="1377.5" y1="153.9688" y2="153.9688"/><!--class MeddraConcept--><rect fill="#FEFECE" filter="url(#fhvww14)" height="31.9688" style="stroke: #A80036; stroke-width: 1.5;" width="105" x="1422.5" y="130"/><text fill="#000000" font-family="sans-serif" font-size="12" lengthAdjust="spacingAndGlyphs" textLength="99" x="1425.5" y="146.1387">MeddraConcept</text><line style="stroke: #A80036; stroke-width: 1.5;" x1="1423.5" x2="1526.5" y1="153.9688" y2="153.9688"/><!--class BiologicEntity--><rect fill="#FEFECE" filter="url(#fhvww14)" height="31.9688" style="stroke: #A80036; stroke-width: 1.5;" width="89" x="183.5" y="438"/><text fill="#000000" font-family="sans-serif" font-size="12" lengthAdjust="spacingAndGlyphs" textLength="83" x="186.5" y="454.1387">BiologicEntity</text><line style="stroke: #A80036; stroke-width: 1.5;" x1="184.5" x2="271.5" y1="461.9688" y2="461.9688"/><!--class PreparatoryIntervention--><rect fill="#FEFECE" filter="url(#fhvww14)" height="31.9688" style="stroke: #A80036; stroke-width: 1.5;" width="155" x="307.5" y="438"/><text fill="#000000" font-family="sans-serif" font-size="12" lengthAdjust="spacingAndGlyphs" textLength="149" x="310.5" y="454.1387">PreparatoryIntervention</text><line style="stroke: #A80036; stroke-width: 1.5;" x1="308.5" x2="461.5" y1="461.9688" y2="461.9688"/><!--class EligibilityDeterminationOutcome--><rect fill="#FEFECE" filter="url(#fhvww14)" height="31.9688" style="stroke: #A80036; stroke-width: 1.5;" width="204" x="498" y="438"/><text fill="#000000" font-family="sans-serif" font-size="12" lengthAdjust="spacingAndGlyphs" textLength="198" x="501" y="454.1387">EligibilityDeterminationOutcome</text><line style="stroke: #A80036; stroke-width: 1.5;" x1="499" x2="701" y1="461.9688" y2="461.9688"/><path d="M949.3418,162.3876 C957.4585,170.8923 967.1761,181.6468 975,192 C985.2228,205.5276 995.2578,221.8269 1002.5882,234.4572 " fill="none" style="stroke: #800000; stroke-width: 1.0;"/><polygon fill="#800000" points="1005.1618,238.9326,1004.1427,229.1366,1002.6692,234.5982,997.2077,233.1247,1005.1618,238.9326" style="stroke: #800000; stroke-width: 1.0;"/><text fill="#000000" font-family="sans-serif" font-size="13" lengthAdjust="spacingAndGlyphs" textLength="81" x="988" y="205.0669">hasEnd[0..1]</text><path d="M880.1207,162.2011 C866.3003,169.1038 853.0376,178.729 845,192 C837.4506,204.4649 839.5844,220.8912 843.4037,233.8455 " fill="none" style="stroke: #800000; stroke-width: 1.0;"/><polygon fill="#800000" points="844.995,238.8034,846.053,229.0115,843.4669,234.0426,838.4358,231.4565,844.995,238.8034" style="stroke: #800000; stroke-width: 1.0;"/><text fill="#000000" font-family="sans-serif" font-size="13" lengthAdjust="spacingAndGlyphs" textLength="120" x="846" y="205.0669">hasBeginning[1..1]</text><path d="M1641.9001,44.2789 C1627.8668,53.2468 1611.8668,66.3718 1604,83 C1597.8948,95.9046 1598.7862,112.0051 1601.1312,124.6992 " fill="none" style="stroke: #800000; stroke-width: 1.0;"/><polygon fill="#800000" points="1602.2091,129.9118,1604.3036,120.2882,1601.1965,125.0154,1596.4694,121.9083,1602.2091,129.9118" style="stroke: #800000; stroke-width: 1.0;"/><text fill="#000000" font-family="sans-serif" font-size="13" lengthAdjust="spacingAndGlyphs" textLength="80" x="1605" y="96.0669">hasEnd[1..*]</text><path d="M1676.4818,46.5598 C1687.301,67.0453 1706.035,102.5171 1717.958,125.0927 " fill="none" style="stroke: #800000; stroke-width: 1.0;"/><polygon fill="#800000" points="1720.3936,129.7043,1719.7274,119.878,1718.0585,125.2831,1712.6534,123.6142,1720.3936,129.7043" style="stroke: #800000; stroke-width: 1.0;"/><text fill="#000000" font-family="sans-serif" font-size="13" lengthAdjust="spacingAndGlyphs" textLength="120" x="1704" y="96.0669">hasBeginning[1..1]</text><path d="M1127.8875,44.386 C1073.3059,54.2224 1008.9239,68.2468 985,83 C967.9342,93.524 953.8587,111.6378 944.6754,125.7489 " fill="none" style="stroke: #800000; stroke-width: 1.0;"/><polygon fill="#800000" points="941.9846,129.9869,950.1856,124.5331,944.6647,125.7659,943.4319,120.245,941.9846,129.9869" style="stroke: #800000; stroke-width: 1.0;"/><text fill="#000000" font-family="sans-serif" font-size="13" lengthAdjust="spacingAndGlyphs" textLength="104" x="986" y="96.0669">hasInterval[1..1]</text><path d="M1157.6792,53.0567 C1142.04,60.975 1125.8763,70.9636 1113,83 C1100.3679,94.808 1090.4695,111.7449 1083.946,125.0843 " fill="none" style="stroke: #800000; stroke-width: 1.0;"/><polygon fill="#800000" points="1081.6964,129.8199,1089.1712,123.4068,1083.8418,125.3036,1081.945,119.9742,1081.6964,129.8199" style="stroke: #800000; stroke-width: 1.0;"/><text fill="#000000" font-family="sans-serif" font-size="13" lengthAdjust="spacingAndGlyphs" textLength="90" x="1114" y="96.0669">causality[1..1]</text><path d="M1213.7757,53.034 C1213.1802,66.6344 1212.6591,84.3114 1213,100 C1213.175,108.0517 1213.522,116.8906 1213.8785,124.6499 " fill="none" style="stroke: #800000; stroke-width: 1.0;"/><polygon fill="#800000" points="1214.1249,129.8264,1217.6925,120.6464,1213.8872,124.8321,1209.7015,121.0268,1214.1249,129.8264" style="stroke: #800000; stroke-width: 1.0;"/><text fill="#000000" font-family="sans-serif" font-size="13" lengthAdjust="spacingAndGlyphs" textLength="91" x="1214" y="96.0669">outcome[0..1]</text><path d="M1266.8759,53.2575 C1281.8125,61.309 1297.4455,71.3192 1310,83 C1322.9338,95.0336 1333.6537,111.9575 1340.8845,125.2346 " fill="none" style="stroke: #800000; stroke-width: 1.0;"/><polygon fill="#800000" points="1343.3882,129.9453,1342.6962,120.1208,1341.0415,125.5302,1335.6321,123.8755,1343.3882,129.9453" style="stroke: #800000; stroke-width: 1.0;"/><text fill="#000000" font-family="sans-serif" font-size="13" lengthAdjust="spacingAndGlyphs" textLength="84" x="1326" y="96.0669">severity[1..1]</text><path d="M1302.0815,41.2392 C1340.0401,48.7741 1383.8049,61.5174 1419,83 C1436.5458,93.7097 1451.697,111.6343 1461.7988,125.6318 " fill="none" style="stroke: #800000; stroke-width: 1.0;"/><polygon fill="#800000" points="1464.7688,129.8374,1462.8445,120.1784,1461.8845,125.7532,1456.3097,124.7932,1464.7688,129.8374" style="stroke: #800000; stroke-width: 1.0;"/><text fill="#000000" font-family="sans-serif" font-size="13" lengthAdjust="spacingAndGlyphs" textLength="90" x="1440" y="96.0669">hasCode[1..1]</text></g></svg>