<?xml version="1.0" encoding="utf-8"?>
<svg version="1.1" xmlns="http://www.w3.org/2000/svg" width="640" height="260">
<path fill="#EBEAF1" d="M452.49,171.98c-11.95-3.57-27.01-5.42-43.31-4.82c-38.11,1.4-68.52,15.61-67.93,31.74
c0.59,16.13,31.96,28.07,70.07,26.68c6.59-0.24,12.95-0.88,18.96-1.83"/>
<circle fill="#EBEAF1" cx="447.09" cy="205.55" r="33.96"/>
<ellipse fill="#EBEAF1" cx="491.21" cy="233.11" rx="16.41" ry="9.16"/>
<ellipse fill="#EBEAF1" cx="480.08" cy="174.67" rx="10.15" ry="5.67"/>
<ellipse fill="#EBEAF1" cx="491.28" cy="186.93" rx="10.15" ry="5.67"/>
<ellipse fill="#EBEAF1" cx="495.47" cy="201.05" rx="10.15" ry="5.67"/>
<ellipse fill="#EBEAF1" cx="494.08" cy="215.18" rx="10.15" ry="5.67"/>
<path fill="#D8D5E3" d="M461.99,181.68c-11.95-3.57-27.01-5.42-43.31-4.82c-38.11,1.4-68.52,15.61-67.93,31.74
c0.59,16.13,31.96,28.07,70.07,26.68c6.59-0.24,12.95-0.88,18.96-1.83"/>
<circle fill="#D8D5E3" cx="456.59" cy="215.26" r="33.96"/>
<ellipse fill="#D8D5E3" cx="500.71" cy="242.81" rx="16.41" ry="9.16"/>
<ellipse fill="#D8D5E3" cx="489.58" cy="184.37" rx="10.15" ry="5.67"/>
<ellipse fill="#D8D5E3" cx="500.78" cy="196.63" rx="10.15" ry="5.67"/>
<ellipse fill="#D8D5E3" cx="504.97" cy="210.76" rx="10.15" ry="5.67"/>
<ellipse fill="#D8D5E3" cx="503.58" cy="224.88" rx="10.15" ry="5.67"/>
<path fill="#3A2D72" d="M472.33,189.7c-11.95-3.57-27.01-5.42-43.31-4.82c-38.11,1.4-68.52,15.61-67.93,31.74
c0.59,16.13,31.96,28.07,70.07,26.68c6.59-0.24,12.95-0.88,18.96-1.83"/>
<circle fill="#3A2D72" cx="466.93" cy="223.28" r="33.96"/>
<ellipse fill="#3A2D72" cx="511.05" cy="250.84" rx="16.41" ry="9.16"/>
<ellipse fill="#3A2D72" cx="499.92" cy="192.4" rx="10.15" ry="5.67"/>
<ellipse fill="#3A2D72" cx="511.12" cy="204.66" rx="10.15" ry="5.67"/>
<ellipse fill="#3A2D72" cx="515.31" cy="218.78" rx="10.15" ry="5.67"/>
<ellipse fill="#3A2D72" cx="513.92" cy="232.91" rx="10.15" ry="5.67"/>
<path fill="#FFFFFF" d="M400.26,211.41v0.74h2.25l-0.31,1.98h-1.95v7.58h-2.84v-7.58h-1.44v-1.98h1.44v-0.85
c0-1.84,1.21-3.26,3.66-3.26c0.99,0,1.91,0.25,2.61,0.61l-0.77,1.85c-0.54-0.27-1.08-0.36-1.5-0.36
C400.59,210.15,400.26,210.51,400.26,211.41z"/>
<path fill="#FFFFFF" d="M412.27,216.94c0,3.06-1.76,5.08-4.68,5.08c-2.9,0-4.68-1.87-4.68-5.1c0-3.06,1.76-5.08,4.68-5.08
S412.27,213.71,412.27,216.94z M405.86,216.92c0,2.12,0.58,3.01,1.73,3.01s1.73-0.92,1.73-2.99c0-2.12-0.58-3.01-1.73-3.01
S405.86,214.85,405.86,216.92z"/>
<path fill="#FFFFFF" d="M422.96,216.94c0,3.06-1.76,5.08-4.68,5.08c-2.9,0-4.68-1.87-4.68-5.1c0-3.06,1.76-5.08,4.68-5.08
S422.96,213.71,422.96,216.94z M416.55,216.92c0,2.12,0.58,3.01,1.73,3.01s1.73-0.92,1.73-2.99c0-2.12-0.58-3.01-1.73-3.01
S416.55,214.85,416.55,216.92z"/>
<path fill="#FFFFFF" d="M430.83,221.26c-0.72,0.5-1.73,0.76-2.59,0.76c-2.11-0.02-3.13-1.21-3.13-3.46v-4.43h-1.35v-1.98h1.35
v-2.07l2.84-0.32v2.39h2.2l-0.31,1.98h-1.89v4.39c0,0.92,0.31,1.24,0.9,1.24c0.32,0,0.65-0.09,1.03-0.32L430.83,221.26z"/>
<path fill="#FFFFFF" d="M440.93,216.9c0,2.95-1.44,5.11-3.8,5.11c-0.94,0-1.73-0.32-2.32-1.01v4.39l-2.84,0.31v-13.56h2.5
l0.14,1.06c0.79-0.99,1.82-1.37,2.7-1.37C439.83,211.84,440.93,213.8,440.93,216.9z M437.97,216.94c0-2.38-0.58-3.01-1.57-3.01
c-0.61,0-1.19,0.41-1.6,1.12v4.03c0.4,0.58,0.86,0.85,1.46,0.85C437.33,219.92,437.97,219.08,437.97,216.94z"/>
<path fill="#FFFFFF" d="M449.03,212l-0.45,2.76c-0.31-0.07-0.54-0.13-0.86-0.13c-1.17,0-1.67,0.87-1.98,2.3v4.77h-2.84v-9.56
h2.49l0.23,1.84c0.43-1.31,1.37-2.11,2.47-2.11C448.43,211.88,448.72,211.91,449.03,212z"/>
<path fill="#FFFFFF" d="M453.38,208.73c0,0.92-0.7,1.62-1.69,1.62s-1.67-0.7-1.67-1.62c0-0.92,0.68-1.62,1.67-1.62
S453.38,207.81,453.38,208.73z M453.13,221.71h-2.84v-9.56h2.84V221.71z"/>
<path fill="#FFFFFF" d="M463.79,214.72v6.99h-2.84v-6.5c0-1.01-0.34-1.28-0.9-1.28c-0.63,0-1.15,0.45-1.66,1.24v6.54h-2.84v-9.56
h2.48l0.2,1.13c0.81-0.94,1.73-1.44,2.92-1.44C462.8,211.84,463.79,212.9,463.79,214.72z"/>
<path fill="#FFFFFF" d="M472.1,221.26c-0.72,0.5-1.73,0.76-2.59,0.76c-2.11-0.02-3.13-1.21-3.13-3.46v-4.43h-1.35v-1.98h1.35
v-2.07l2.84-0.32v2.39h2.2l-0.31,1.98h-1.89v4.39c0,0.92,0.31,1.24,0.9,1.24c0.32,0,0.65-0.09,1.03-0.32L472.1,221.26z"/>
<path fill="#F9EEE7" d="M413.93,24h-50c-5.52,0-10,4.48-10,10v90h140V39h-70v-5C423.93,28.48,419.45,24,413.93,24z"/>
<path fill="#F3DED0" d="M428,10.5h-50c-5.52,0-10,4.48-12,12v90l142-2v-85h-70v-5C438,14.98,433.52,10.5,428,10.5z"/>
<path fill="#C45814" d="M438,0h-50c-5.52,0-10,4.48-10,10v90h140V15h-70v-5C448,4.48,443.52,0,438,0z"/>
<rect x="438" y="36" fill="#E7BCA1" width="60" height="6"/>
<path fill="#E7BCA1" d="M414.4,41.8h5v1.24h-5V41.8z"/>
<path fill="#E7BCA1" d="M419.1,41.8h5v1.24h-5V41.8z"/>
<path fill="#E7BCA1" d="M423.8,41.8h5v1.24h-5V41.8z"/>
<path fill="#E7BCA1" d="M432.37,37.15c0,0.49-0.4,0.9-0.9,0.9c-0.51,0-0.91-0.41-0.91-0.9s0.4-0.9,0.91-0.9
C431.97,36.25,432.37,36.66,432.37,37.15z M432.37,40.59c0,0.5-0.4,0.91-0.9,0.91c-0.51,0-0.91-0.41-0.91-0.91
c0-0.49,0.4-0.9,0.91-0.9C431.97,39.69,432.37,40.1,432.37,40.59z"/>
<rect x="438" y="78" fill="#E7BCA1" width="60" height="6"/>
<path fill="#E7BCA1" d="M405,83.8h5v1.24h-5V83.8z"/>
<path fill="#E7BCA1" d="M409.7,83.8h5v1.24h-5V83.8z"/>
<path fill="#E7BCA1" d="M414.4,83.8h5v1.24h-5V83.8z"/>
<path fill="#E7BCA1" d="M419.1,83.8h5v1.24h-5V83.8z"/>
<path fill="#E7BCA1" d="M423.8,83.8h5v1.24h-5V83.8z"/>
<path fill="#E7BCA1" d="M432.37,79.15c0,0.49-0.4,0.9-0.9,0.9c-0.51,0-0.91-0.41-0.91-0.9s0.4-0.9,0.91-0.9
C431.97,78.25,432.37,78.66,432.37,79.15z M432.37,82.59c0,0.5-0.4,0.91-0.9,0.91c-0.51,0-0.91-0.41-0.91-0.91
c0-0.49,0.4-0.9,0.91-0.9C431.97,81.69,432.37,82.1,432.37,82.59z"/>
<rect x="438" y="50" fill="#E7BCA1" width="40" height="6"/>
<rect x="485.5" y="50" fill="#E7BCA1" width="12.5" height="6"/>
<path fill="#E7BCA1" d="M400.3,55.8h5v1.24h-5V55.8z"/>
<path fill="#E7BCA1" d="M405,55.8h5v1.24h-5V55.8z"/>
<path fill="#E7BCA1" d="M409.7,55.8h5v1.24h-5V55.8z"/>
<path fill="#E7BCA1" d="M414.4,55.8h5v1.24h-5V55.8z"/>
<path fill="#E7BCA1" d="M419.1,55.8h5v1.24h-5V55.8z"/>
<path fill="#E7BCA1" d="M423.8,55.8h5v1.24h-5V55.8z"/>
<path fill="#E7BCA1" d="M432.37,51.15c0,0.49-0.4,0.9-0.9,0.9c-0.51,0-0.91-0.41-0.91-0.9s0.4-0.9,0.91-0.9
C431.97,50.25,432.37,50.66,432.37,51.15z M432.37,54.59c0,0.5-0.4,0.91-0.9,0.91c-0.51,0-0.91-0.41-0.91-0.91
c0-0.49,0.4-0.9,0.91-0.9C431.97,53.69,432.37,54.1,432.37,54.59z"/>
<path fill="#E7BCA1" d="M414.4,69.8h5v1.24h-5V69.8z"/>
<path fill="#E7BCA1" d="M419.1,69.8h5v1.24h-5V69.8z"/>
<path fill="#E7BCA1" d="M423.8,69.8h5v1.24h-5V69.8z"/>
<path fill="#E7BCA1" d="M432.37,65.15c0,0.49-0.4,0.9-0.9,0.9c-0.51,0-0.91-0.41-0.91-0.9s0.4-0.9,0.91-0.9
C431.97,64.25,432.37,64.66,432.37,65.15z M432.37,68.59c0,0.5-0.4,0.91-0.9,0.91c-0.51,0-0.91-0.41-0.91-0.91
c0-0.49,0.4-0.9,0.91-0.9C431.97,67.69,432.37,68.1,432.37,68.59z"/>
<path fill="#E7BCA1" d="M478.9,69.8h5v1.24h-5V69.8z"/>
<path fill="#E7BCA1" d="M483.6,69.8h5v1.24h-5V69.8z"/>
<path fill="#E7BCA1" d="M488.3,69.8h5v1.24h-5V69.8z"/>
<path fill="#E7BCA1" d="M493,69.8h5v1.24h-5V69.8z"/>
<circle fill="#E7BCA1" cx="474.18" cy="67" r="3"/>
<path fill="#E7BCA1" d="M445.72,69.8h5v1.24h-5V69.8z"/>
<path fill="#E7BCA1" d="M450.42,69.8h5v1.24h-5V69.8z"/>
<path fill="#E7BCA1" d="M455.12,69.8h5v1.24h-5V69.8z"/>
<path fill="#E7BCA1" d="M459.82,69.8h5v1.24h-5V69.8z"/>
<path fill="#E7BCA1" d="M441,64c-1.66,0-3,1.34-3,3s1.34,3,3,3s3-1.34,3-3S442.66,64,441,64z M441,69c-1.1,0-2-0.9-2-2
c0-1.1,0.9-2,2-2s2,0.9,2,2C443,68.1,442.1,69,441,69z"/>
<path fill="#FFFFFF" d="M397.65,10.7v0.74h2.25l-0.31,1.98h-1.94V21h-2.84v-7.58h-1.44v-1.98h1.44v-0.85
c0-1.84,1.21-3.26,3.65-3.26c0.99,0,1.91,0.25,2.61,0.61L400.3,9.8c-0.54-0.27-1.08-0.36-1.49-0.36
C397.98,9.44,397.65,9.8,397.65,10.7z"/>
<path fill="#FFFFFF" d="M409.66,16.23c0,3.06-1.76,5.08-4.68,5.08c-2.9,0-4.68-1.87-4.68-5.09c0-3.06,1.76-5.08,4.68-5.08
S409.66,13.01,409.66,16.23z M403.25,16.21c0,2.12,0.58,3.01,1.73,3.01s1.73-0.92,1.73-2.99c0-2.12-0.58-3.01-1.73-3.01
S403.25,14.14,403.25,16.21z"/>
<path fill="#FFFFFF" d="M417.67,11.29l-0.45,2.75c-0.31-0.07-0.54-0.13-0.86-0.13c-1.17,0-1.67,0.86-1.98,2.3V21h-2.84v-9.56
h2.48l0.23,1.84c0.43-1.31,1.37-2.11,2.47-2.11C417.08,11.17,417.36,11.2,417.67,11.29z"/>
<path fill="#FFFFFF" d="M432,14.01V21h-2.84v-6.5c0-1.01-0.38-1.28-0.81-1.28c-0.61,0-1.04,0.45-1.46,1.24V21h-2.84v-6.5
c0-1.01-0.38-1.28-0.81-1.28c-0.59,0-1.04,0.45-1.46,1.24V21h-2.85v-9.56h2.49l0.2,1.12c0.74-0.94,1.6-1.42,2.77-1.42
c1.06,0,1.87,0.54,2.25,1.51c0.76-0.99,1.64-1.51,2.86-1.51C430.97,11.13,432,12.19,432,14.01z"/>
<path fill="#3A2D72" d="M250,110V80h-30c0,11.05-8.95,20-20,20c-11.05,0-20-8.95-20-20h-30v100h100v-30c11.05,0,20-8.95,20-20
C270,118.95,261.05,110,250,110z"/>
<path fill="#FFFFFF" d="M183.14,129.97l-1.04,1.6c-0.74-0.47-1.53-0.74-2.36-0.74c-0.77,0-1.15,0.29-1.15,0.72
c0,0.5,0.25,0.72,1.96,1.22c1.89,0.54,2.95,1.33,2.95,3.04c0,1.98-1.87,3.15-4.25,3.15c-1.66,0-3.06-0.58-4-1.42l1.39-1.55
c0.72,0.56,1.6,0.94,2.54,0.94c0.86,0,1.39-0.32,1.39-0.9c0-0.65-0.29-0.85-2.02-1.33c-1.89-0.54-2.83-1.51-2.83-2.99
c0-1.64,1.49-2.92,3.91-2.92C181.01,128.8,182.25,129.25,183.14,129.97z"/>
<path fill="#FFFFFF" d="M193.38,131.68v6.99h-2.84v-6.5c0-1.01-0.36-1.28-0.9-1.28c-0.63,0-1.15,0.45-1.66,1.22v6.55h-2.85
v-13.36l2.85-0.29v5.1c0.77-0.86,1.64-1.31,2.75-1.31C192.39,128.8,193.38,129.86,193.38,131.68z"/>
<path fill="#FFFFFF" d="M203.94,137.06l-0.59,1.85c-1.12-0.09-1.85-0.43-2.3-1.37c-0.68,1.04-1.75,1.42-2.88,1.42
c-1.91,0-3.11-1.24-3.11-2.99c0-2.09,1.58-3.22,4.48-3.22h0.97v-0.42c0-1.13-0.45-1.48-1.62-1.48c-0.61,0-1.55,0.18-2.5,0.5
l-0.65-1.87c1.21-0.45,2.52-0.7,3.6-0.7c2.77,0,3.96,1.17,3.96,3.39v3.71C203.3,136.63,203.49,136.9,203.94,137.06z
M200.51,136.04v-1.71h-0.7c-1.3,0-1.93,0.45-1.93,1.4c0,0.76,0.41,1.21,1.12,1.21C199.64,136.94,200.16,136.6,200.51,136.04z"/>
<path fill="#FFFFFF" d="M214.71,133.86c0,2.95-1.44,5.11-3.8,5.11c-0.94,0-1.73-0.32-2.32-1.01v4.39l-2.85,0.31v-13.56h2.5
l0.14,1.06c0.79-0.99,1.82-1.37,2.7-1.37C213.61,128.8,214.71,130.76,214.71,133.86z M211.76,133.89c0-2.38-0.58-3.01-1.57-3.01
c-0.61,0-1.19,0.41-1.6,1.12v4.03c0.4,0.58,0.86,0.85,1.46,0.85C211.11,136.88,211.76,136.04,211.76,133.89z"/>
<path fill="#FFFFFF" d="M224.95,134.72h-5.91c0.18,1.71,0.99,2.18,2.16,2.18c0.77,0,1.46-0.27,2.29-0.85l1.17,1.58
c-0.95,0.76-2.18,1.33-3.73,1.33c-3.19,0-4.81-2.05-4.81-5.04c0-2.86,1.57-5.13,4.47-5.13c2.74,0,4.41,1.8,4.41,4.9
C225,134,224.99,134.43,224.95,134.72z M222.21,132.89c-0.02-1.3-0.41-2.2-1.55-2.2c-0.95,0-1.49,0.59-1.64,2.32h3.19V132.89z"/>
<path fill="#C45814" d="M260.12,33.5l-0.06,0.48h2.12l-0.8,2.58h-1.66l-0.9,6.64c-0.54,3.94-2.82,5.14-5.22,5.98l-0.84-2.72
c1.38-0.54,2.06-1.22,2.32-3.06l0.92-6.84h-1.12l0.34-2.58h1.12l0.1-0.7c0.3-2.2,1.8-3.9,4.46-3.9c1.28,0,2.3,0.44,2.92,0.92
l-1.3,2.18c-0.42-0.26-0.82-0.36-1.22-0.36C260.64,32.12,260.26,32.5,260.12,33.5z"/>
<path fill="#C45814" d="M261.53,40.69c0-3.68,1.74-7.1,5.64-7.1c2.52,0,4.14,1.48,4.14,4.4c-0.02,3.68-1.76,7.08-5.64,7.08
C263.13,45.07,261.53,43.63,261.53,40.69z M267.56,37.48c0-0.86-0.22-1.16-0.68-1.16c-1.22,0-1.58,3.14-1.58,4.84
c0,0.88,0.22,1.18,0.66,1.18C267.18,42.35,267.56,39.19,267.56,37.48z"/>
<path fill="#C45814" d="M280.1,33.82l-1.12,3.64c-0.24-0.06-0.5-0.12-0.78-0.12c-1.02,0-1.54,1.26-1.96,2.74l-0.64,4.58h-3.72
l1.48-10.68h3.2v1.76c0.6-1.22,1.5-2.1,2.64-2.1C279.58,33.64,279.8,33.7,280.1,33.82z"/>
<path fill="#C45814" d="M284.79,33.96h3.32v1.1c0.8-1.02,1.82-1.48,2.76-1.48c1.76,0,2.7,1.32,2.7,3.7c0,4.18-1.5,7.78-5.14,7.78
c-0.58,0-1.06-0.08-1.44-0.2l-0.56,3.96l-3.76,0.38L284.79,33.96z M289.81,37.47c0-0.96-0.28-1.14-0.6-1.14
c-0.34,0-0.74,0.28-1.12,0.86l-0.72,5.04c0.22,0.1,0.44,0.14,0.68,0.14C289.35,42.37,289.81,39.19,289.81,37.47z"/>
<path fill="#C45814" d="M304.06,36.6c-0.08,2.98-3.2,3.94-5.94,4.24v0.14c0,0.92,0.44,1.36,1.24,1.36c0.78,0,1.42-0.34,2.28-0.94
l1.24,2.14c-1.04,0.86-2.42,1.52-4.1,1.52c-2.74,0.02-4.36-1.46-4.32-4.38c0.06-3.78,1.86-7.1,5.88-7.1
C302.72,33.58,304.12,34.86,304.06,36.6z M300.45,36.65c0-0.38-0.16-0.62-0.56-0.62c-0.82,0-1.32,1.28-1.56,2.66
C300.07,38.55,300.45,37.35,300.45,36.65z"/>
<path fill="#C45814" d="M304.67,40.69c0-3.68,1.74-7.1,5.64-7.1c2.52,0,4.14,1.48,4.14,4.4c-0.02,3.68-1.76,7.08-5.64,7.08
C306.27,45.07,304.67,43.63,304.67,40.69z M310.69,37.48c0-0.86-0.22-1.16-0.68-1.16c-1.22,0-1.58,3.14-1.58,4.84
c0,0.88,0.22,1.18,0.66,1.18C310.31,42.35,310.69,39.19,310.69,37.48z"/>
<path fill="#C45814" d="M316.49,33.96h3.32v1.1c0.8-1.02,1.82-1.48,2.76-1.48c1.76,0,2.7,1.32,2.7,3.7c0,4.18-1.5,7.78-5.14,7.78
c-0.58,0-1.06-0.08-1.44-0.2l-0.56,3.96l-3.76,0.38L316.49,33.96z M321.51,37.47c0-0.96-0.28-1.14-0.6-1.14
c-0.34,0-0.74,0.28-1.12,0.86l-0.72,5.04c0.22,0.1,0.44,0.14,0.68,0.14C321.05,42.37,321.51,39.19,321.51,37.47z"/>
<path fill="#C45814" d="M329.85,41.51c-0.06,0.42,0.06,0.56,0.3,0.56c0.12,0,0.2-0.02,0.3-0.04l0.26,2.62
c-0.54,0.22-1.32,0.4-2.08,0.4c-1.94,0-2.84-1.22-2.54-3.22l1.66-12.04l3.76-0.38L329.85,41.51z"/>
<path fill="#C45814" d="M341.28,36.6c-0.08,2.98-3.2,3.94-5.94,4.24v0.14c0,0.92,0.44,1.36,1.24,1.36c0.78,0,1.42-0.34,2.28-0.94
l1.24,2.14c-1.04,0.86-2.42,1.52-4.1,1.52c-2.74,0.02-4.36-1.46-4.32-4.38c0.06-3.78,1.86-7.1,5.88-7.1
C339.93,33.58,341.33,34.86,341.28,36.6z M337.67,36.65c0-0.38-0.16-0.62-0.56-0.62c-0.82,0-1.32,1.28-1.56,2.66
C337.29,38.55,337.67,37.35,337.67,36.65z"/>
<path fill="#3A2D72" d="M220.13,199.6l-0.06,0.48h2.24l-0.84,2.58h-1.75l-0.95,6.64c-0.57,3.94-2.98,5.14-5.51,5.98l-0.89-2.72
c1.46-0.54,2.18-1.22,2.45-3.06l0.97-6.84h-1.18l0.36-2.58h1.18l0.11-0.7c0.32-2.2,1.9-3.9,4.71-3.9c1.35,0,2.43,0.44,3.08,0.92
l-1.37,2.18c-0.44-0.26-0.87-0.36-1.29-0.36C220.68,198.21,220.28,198.59,220.13,199.6z"/>
<path fill="#3A2D72" d="M221.63,206.78c0-3.68,1.84-7.1,5.96-7.1c2.66,0,4.37,1.48,4.37,4.4c-0.02,3.68-1.86,7.08-5.96,7.08
C223.32,211.16,221.63,209.72,221.63,206.78z M227.99,203.58c0-0.86-0.23-1.16-0.72-1.16c-1.29,0-1.67,3.14-1.67,4.84
c0,0.88,0.23,1.18,0.7,1.18C227.59,208.44,227.99,205.28,227.99,203.58z"/>
<path fill="#3A2D72" d="M241.23,199.92l-1.18,3.64c-0.25-0.06-0.53-0.12-0.82-0.12c-1.08,0-1.63,1.26-2.07,2.74l-0.68,4.58h-3.93
l1.56-10.68h3.38v1.76c0.63-1.22,1.58-2.1,2.79-2.1C240.68,199.74,240.91,199.8,241.23,199.92z"/>
<path fill="#3A2D72" d="M259.64,202.88l-1.18,7.88h-3.93l1.03-7.1c0.08-0.56,0-0.7-0.15-0.7c-0.25,0-0.53,0.48-1.01,1.82
l-0.91,5.98h-3.93l1.03-7.1c0.08-0.56,0-0.7-0.15-0.7c-0.23,0-0.55,0.5-1.03,1.92l-0.87,5.88h-3.93l1.56-10.66h3.42v1.48
c0.74-1.1,1.71-1.9,2.94-1.9c1.18,0,1.92,0.66,2.13,1.76c0.7-1.02,1.67-1.76,2.83-1.76C259.11,199.68,259.93,200.9,259.64,202.88z
"/>
<path fill="#3A2D72" d="M271.04,200.82l-0.99,6.58c-0.08,0.7-0.08,1.04,0.38,1.24l-1.18,2.44c-1.2-0.1-2.32-0.56-2.75-1.54
c-0.74,1-1.6,1.62-2.94,1.62c-2.03,0-3.08-1.54-3.08-3.96c0-3.68,1.63-7.52,6.27-7.52C268.25,199.68,269.75,200.1,271.04,200.82z
M264.45,207.28c0,0.94,0.23,1.14,0.57,1.14c0.4,0,0.78-0.42,1.14-1.02l0.76-5.02c-0.17-0.04-0.34-0.08-0.51-0.08
C265.04,202.3,264.45,204.98,264.45,207.28z"/>
<path fill="#3A2D72" d="M281.17,201.12l-1.88,2.02c-0.51-0.42-0.97-0.6-1.48-0.6c-1.56,0-2.03,2.32-2.03,4.16
c0,1.3,0.46,1.54,1.12,1.54c0.49,0,0.95-0.18,1.61-0.58l1.35,2.22c-0.99,0.78-2.18,1.28-3.67,1.28c-2.81,0-4.48-1.7-4.48-4.52
c0-3.76,2.13-6.96,5.98-6.96C279.23,199.68,280.32,200.22,281.17,201.12z"/>
<path fill="#3A2D72" d="M290.9,202.88l-1.18,7.88h-3.93l1.03-7.1c0.06-0.48,0-0.64-0.17-0.64c-0.3,0-0.61,0.58-1.27,1.92
l-0.87,5.82h-3.93l2.2-14.88l3.97-0.38l-0.84,6.04c0.55-0.9,1.54-1.86,2.87-1.86C290.37,199.68,291.2,200.9,290.9,202.88z"/>
<path fill="#3A2D72" d="M295.33,210.76h-3.93l1.56-10.68h3.93L295.33,210.76z M293.35,196.59c0-1.34,1.08-2.32,2.41-2.32
c1.2,0,1.9,0.72,1.9,1.74c0,1.34-1.08,2.32-2.41,2.32C294.04,198.33,293.35,197.62,293.35,196.59z"/>
<path fill="#3A2D72" d="M307.41,202.88l-1.18,7.88h-3.93l1.03-7.1c0.06-0.48,0-0.64-0.17-0.64c-0.3,0-0.61,0.58-1.27,1.92
l-0.87,5.82h-3.93l1.56-10.68h3.42l0.02,1.6c0.76-1.12,1.84-2,3.19-2C306.88,199.68,307.71,200.9,307.41,202.88z"/>
<path fill="#3A2D72" d="M318.43,202.7c-0.08,2.98-3.38,3.94-6.27,4.24v0.14c0,0.92,0.46,1.36,1.31,1.36c0.82,0,1.5-0.34,2.41-0.94
l1.31,2.14c-1.1,0.86-2.56,1.52-4.33,1.52c-2.89,0.02-4.6-1.46-4.56-4.38c0.06-3.78,1.96-7.1,6.21-7.1
C317.02,199.68,318.49,200.96,318.43,202.7z M314.63,202.74c0-0.38-0.17-0.62-0.59-0.62c-0.87,0-1.39,1.28-1.65,2.66
C314.23,204.64,314.63,203.44,314.63,202.74z"/>
<path fill="#3A2D72" d="M327.93,201.06l-1.65,1.98c-0.66-0.44-1.35-0.72-2.03-0.72c-0.61,0-0.95,0.28-0.95,0.66
c0,0.4,0.32,0.64,1.77,1.24c1.44,0.6,2.3,1.42,2.3,2.98c0,2.3-1.99,3.96-4.92,3.96c-1.88,0-3.34-0.68-4.37-1.72l2.01-1.9
c0.63,0.54,1.37,1,2.26,1c0.66,0,1.1-0.28,1.1-0.8c0-0.52-0.38-0.78-1.67-1.32c-1.54-0.62-2.32-1.4-2.32-2.92
c0-2.22,1.88-3.82,4.6-3.82C325.63,199.68,327.02,200.24,327.93,201.06z"/>
<path fill="#3A2D72" d="M546.25,201.66h-2.07l-0.4-10.5l-3.31,10.5h-2.05l-0.34-12.41h1.53l0.09,10.95l3.47-10.95h1.78l0.42,10.95
l3.22-10.95h1.49L546.25,201.66z"/>
<path fill="#3A2D72" d="M556.92,194.83l-0.97,6.82h-1.57l0.95-6.79c0.16-1.17-0.18-1.58-0.77-1.58c-0.95,0-1.85,1.31-2.52,2.56
l-0.79,5.82h-1.57l1.87-13.29l1.58-0.16l-0.79,5.62c0.65-1.06,1.46-1.87,2.61-1.87C556.35,191.95,557.18,193.09,556.92,194.83z"/>
<path fill="#3A2D72" d="M559.87,198.11v0.18c0,1.69,0.65,2.25,1.58,2.25c0.77,0,1.44-0.29,2.18-0.85l0.67,1.04
c-0.92,0.72-1.89,1.13-3.01,1.13c-1.96,0-3.06-1.35-3.06-3.56c0-2.79,1.28-6.34,4.52-6.34c1.75,0,2.63,1.1,2.63,2.36
C565.38,196.98,562.81,197.75,559.87,198.11z M559.96,196.91c2.48-0.31,3.82-0.88,3.82-2.54c0-0.65-0.32-1.13-1.12-1.13
C560.99,193.23,560.22,195.1,559.96,196.91z"/>
<path fill="#3A2D72" d="M571.79,192.1l-0.5,1.51c-0.22-0.05-0.4-0.09-0.65-0.09c-1.06,0-1.8,1.13-2.38,3.06l-0.7,5.08h-1.57
l1.33-9.49h1.35l-0.13,1.78c0.63-1.28,1.35-1.98,2.43-1.98C571.27,191.97,571.54,192.03,571.79,192.1z"/>
<path fill="#3A2D72" d="M573.03,198.11v0.18c0,1.69,0.65,2.25,1.58,2.25c0.77,0,1.44-0.29,2.18-0.85l0.67,1.04
c-0.92,0.72-1.89,1.13-3.01,1.13c-1.96,0-3.06-1.35-3.06-3.56c0-2.79,1.28-6.34,4.52-6.34c1.75,0,2.63,1.1,2.63,2.36
C578.54,196.98,575.97,197.75,573.03,198.11z M573.12,196.91c2.48-0.31,3.82-0.88,3.82-2.54c0-0.65-0.32-1.13-1.12-1.13
C574.15,193.23,573.37,195.1,573.12,196.91z"/>
<path fill="#3A2D72" d="M584.64,199.48c-0.11,0.72,0.13,1.08,0.72,1.08c0.4,0,0.74-0.14,1.15-0.38l0.47,1.06
c-0.59,0.43-1.24,0.63-1.89,0.63c-1.4,0-2.21-0.95-1.98-2.48l0.83-5.98h-1.37l0.18-1.24h1.42l0.54-2.2l1.3-0.14l-0.34,2.34h1.91
l-0.34,1.24h-1.73L584.64,199.48z"/>
<path fill="#3A2D72" d="M587.74,198.26c0-2.59,1.19-6.28,4.5-6.28c1.98,0,3.06,1.39,3.06,3.6c0,2.54-1.13,6.3-4.48,6.3
C588.83,201.87,587.74,200.47,587.74,198.26z M593.68,195.43c0-1.49-0.52-2.18-1.49-2.18c-2.21,0-2.81,3.26-2.81,5.17
c0,1.48,0.52,2.18,1.51,2.18C593.06,200.6,593.68,197.32,593.68,195.43z"/>
<path fill="#3A2D72" d="M606.1,193.12l-0.76,0.92c-0.61-0.52-1.22-0.81-2-0.81c-0.95,0-1.6,0.52-1.6,1.39
c0,0.72,0.5,1.04,1.6,1.48c1.39,0.54,2.12,1.28,2.12,2.67c0,1.94-1.57,3.11-3.53,3.11c-1.46,0-2.45-0.65-3.06-1.35l0.9-0.92
c0.59,0.59,1.28,0.99,2.21,0.99c1.37,0,1.85-0.95,1.85-1.71c0-0.88-0.4-1.22-1.64-1.71c-1.42-0.54-2.05-1.22-2.05-2.47
c0-1.4,1.24-2.74,3.17-2.74C604.51,191.97,605.4,192.4,606.1,193.12z"/>
<path fill="#3A2D72" d="M608.67,199.48c-0.11,0.72,0.13,1.08,0.72,1.08c0.4,0,0.74-0.14,1.15-0.38l0.47,1.06
c-0.59,0.43-1.24,0.63-1.89,0.63c-1.4,0-2.21-0.95-1.98-2.48l0.83-5.98h-1.37l0.18-1.24h1.42l0.54-2.2l1.3-0.14l-0.34,2.34h1.91
l-0.34,1.24h-1.73L608.67,199.48z"/>
<path fill="#3A2D72" d="M611.77,198.26c0-2.59,1.19-6.28,4.5-6.28c1.98,0,3.06,1.39,3.06,3.6c0,2.54-1.13,6.3-4.48,6.3
C612.86,201.87,611.77,200.47,611.77,198.26z M617.71,195.43c0-1.49-0.52-2.18-1.49-2.18c-2.21,0-2.81,3.26-2.81,5.17
c0,1.48,0.52,2.18,1.51,2.18C617.09,200.6,617.71,197.32,617.71,195.43z"/>
<path fill="#3A2D72" d="M626.13,192.1l-0.5,1.51c-0.22-0.05-0.4-0.09-0.65-0.09c-1.06,0-1.8,1.13-2.38,3.06l-0.7,5.08h-1.57
l1.33-9.49h1.35l-0.13,1.78c0.63-1.28,1.35-1.98,2.43-1.98C625.61,191.97,625.88,192.03,626.13,192.1z"/>
<path fill="#3A2D72" d="M627.37,198.11v0.18c0,1.69,0.65,2.25,1.58,2.25c0.77,0,1.44-0.29,2.18-0.85l0.67,1.04
c-0.92,0.72-1.89,1.13-3.01,1.13c-1.96,0-3.06-1.35-3.06-3.56c0-2.79,1.28-6.34,4.52-6.34c1.75,0,2.63,1.1,2.63,2.36
C632.88,196.98,630.31,197.75,627.37,198.11z M627.46,196.91c2.48-0.31,3.82-0.88,3.82-2.54c0-0.65-0.32-1.13-1.12-1.13
C628.49,193.23,627.71,195.1,627.46,196.91z"/>
<path fill="#3A2D72" d="M544.85,214.29l-0.99,6.82c-0.09,0.63-0.13,1.03,0.41,1.26l-0.5,1.1c-0.81-0.13-1.33-0.54-1.42-1.49
c-0.65,0.88-1.39,1.49-2.45,1.49c-1.62,0-2.61-1.31-2.61-3.35c0-2.83,1.33-6.55,4.77-6.55
C543.08,213.57,543.96,213.86,544.85,214.29z M538.9,220.14c0,1.44,0.47,2.07,1.33,2.07s1.51-0.76,2.14-1.67l0.77-5.49
c-0.34-0.14-0.67-0.22-1.12-0.22C539.82,214.83,538.9,217.77,538.9,220.14z"/>
<path fill="#3A2D72" d="M553.11,216.45l-0.97,6.81h-1.57l0.95-6.79c0.14-1.17-0.2-1.58-0.79-1.58c-0.94,0-1.84,1.31-2.5,2.56
l-0.81,5.82h-1.57l1.33-9.49h1.35l-0.14,1.76c0.76-1.17,1.6-1.98,2.77-1.98C552.51,213.55,553.36,214.69,553.11,216.45z"/>
<path fill="#3A2D72" d="M562.67,209.97l-1.87,13.29h-1.39l0.05-1.5c-0.61,1.06-1.42,1.71-2.52,1.71c-1.66,0-2.56-1.35-2.56-3.42
c0-2.68,1.21-6.5,4.11-6.5c0.97,0,1.58,0.49,1.95,1.13l0.68-4.88L562.67,209.97z M556,220.13c0,1.42,0.49,2.09,1.31,2.09
c0.94,0,1.64-0.92,2.38-2.25l0.56-3.96c-0.36-0.76-0.81-1.19-1.58-1.19C556.71,214.81,556,218.07,556,220.13z"/>
<path fill="#3A2D72" d="M573.83,216.43l-0.97,6.82h-1.57l0.95-6.79c0.16-1.17-0.18-1.58-0.77-1.58c-0.95,0-1.85,1.31-2.52,2.56
l-0.79,5.82h-1.57l1.87-13.29l1.58-0.16l-0.79,5.62c0.65-1.06,1.46-1.87,2.61-1.87C573.25,213.55,574.08,214.69,573.83,216.43z"/>
<path fill="#3A2D72" d="M575.14,219.86c0-2.59,1.19-6.28,4.5-6.28c1.98,0,3.06,1.39,3.06,3.6c0,2.54-1.13,6.3-4.48,6.3
C576.24,223.47,575.14,222.07,575.14,219.86z M581.08,217.03c0-1.49-0.52-2.18-1.49-2.18c-2.21,0-2.81,3.26-2.81,5.17
c0,1.48,0.52,2.18,1.51,2.18C580.47,222.2,581.08,218.92,581.08,217.03z"/>
<path fill="#3A2D72" d="M591.27,223.26h-2.02l-0.29-8.07l-2.56,8.07h-2l-0.54-9.49h1.53l0.2,8.37l2.72-8.37h1.75l0.31,8.37
l2.54-8.37h1.49L591.27,223.26z"/>
<path fill="#3A2D72" d="M599.85,221.08c-0.11,0.72,0.13,1.08,0.72,1.08c0.4,0,0.74-0.14,1.15-0.38l0.47,1.06
c-0.59,0.43-1.24,0.63-1.89,0.63c-1.4,0-2.21-0.95-1.98-2.48l0.83-5.98h-1.37l0.18-1.24h1.42l0.54-2.2l1.3-0.14l-0.34,2.34h1.91
l-0.34,1.24h-1.73L599.85,221.08z"/>
<path fill="#3A2D72" d="M602.95,219.86c0-2.59,1.19-6.28,4.5-6.28c1.98,0,3.06,1.39,3.06,3.6c0,2.54-1.13,6.3-4.48,6.3
C604.04,223.47,602.95,222.07,602.95,219.86z M608.89,217.03c0-1.49-0.52-2.18-1.49-2.18c-2.21,0-2.81,3.26-2.81,5.17
c0,1.48,0.52,2.18,1.51,2.18C608.28,222.2,608.89,218.92,608.89,217.03z"/>
<path fill="#3A2D72" d="M616.72,221.49c-0.05,0.47,0.04,0.67,0.38,0.67c0.16,0,0.32-0.04,0.52-0.11l0.27,1.12
c-0.41,0.22-0.83,0.31-1.21,0.31c-1.08,0-1.69-0.77-1.5-2.09l1.58-11.43l1.58-0.18L616.72,221.49z"/>
<path fill="#3A2D72" d="M620.64,223.26h-1.57l1.33-9.49h1.57L620.64,223.26z M620.62,210.47c0-0.72,0.52-1.19,1.13-1.19
c0.58,0,0.94,0.4,0.94,0.94c0,0.72-0.52,1.19-1.13,1.19C620.98,211.41,620.62,211.03,620.62,210.47z"/>
<path fill="#3A2D72" d="M630.22,216.45l-0.97,6.81h-1.57l0.95-6.79c0.14-1.17-0.2-1.58-0.79-1.58c-0.94,0-1.84,1.31-2.5,2.56
l-0.81,5.82h-1.57l1.33-9.49h1.35l-0.14,1.76c0.76-1.17,1.6-1.98,2.77-1.98C629.62,213.55,630.47,214.69,630.22,216.45z"/>
<path fill="#3A2D72" d="M634.16,215.44c0.77-1.26,1.69-1.87,2.75-1.87c1.24,0,2.09,0.83,2.09,2.07c0,1.48-0.88,2.59-2.65,3.37
l1.76,4.25h-1.69l-1.82-4.63c2-0.59,2.77-1.46,2.77-2.84c0-0.65-0.32-0.97-0.86-0.97c-0.85,0-1.86,0.9-2.68,2.77l-0.77,5.67h-1.57
l1.87-13.31l1.58-0.18L634.16,215.44z"/>
<path fill="#3A2D72" d="M544.56,238.05l-0.97,6.81h-1.57l0.95-6.79c0.14-1.17-0.2-1.58-0.79-1.58c-0.94,0-1.84,1.31-2.5,2.56
l-0.81,5.82h-1.57l1.33-9.49h1.35l-0.14,1.76c0.76-1.17,1.6-1.98,2.77-1.98C543.96,235.15,544.81,236.29,544.56,238.05z"/>
<path fill="#3A2D72" d="M547.49,241.31v0.18c0,1.69,0.65,2.25,1.58,2.25c0.77,0,1.44-0.29,2.18-0.85l0.67,1.04
c-0.92,0.72-1.89,1.13-3.01,1.13c-1.96,0-3.06-1.35-3.06-3.56c0-2.79,1.28-6.34,4.52-6.34c1.75,0,2.63,1.1,2.63,2.36
C553,240.18,550.42,240.95,547.49,241.31z M547.58,240.11c2.48-0.31,3.82-0.88,3.82-2.54c0-0.65-0.32-1.13-1.12-1.13
C548.61,236.43,547.83,238.3,547.58,240.11z"/>
<path fill="#3A2D72" d="M561.32,244.86h-2.02l-0.29-8.07l-2.56,8.07h-2l-0.54-9.49h1.53l0.2,8.37l2.72-8.37h1.75l0.31,8.37
l2.54-8.37h1.49L561.32,244.86z"/>
<path fill="#3A2D72" d="M576.17,231.57l-1.87,13.29h-1.39l0.05-1.49c-0.61,1.06-1.42,1.71-2.52,1.71c-1.66,0-2.56-1.35-2.56-3.42
c0-2.68,1.21-6.5,4.11-6.5c0.97,0,1.58,0.49,1.95,1.13l0.68-4.88L576.17,231.57z M569.5,241.73c0,1.42,0.49,2.09,1.31,2.09
c0.94,0,1.64-0.92,2.38-2.25l0.56-3.96c-0.36-0.76-0.81-1.19-1.58-1.19C570.21,236.41,569.5,239.67,569.5,241.73z"/>
<path fill="#3A2D72" d="M584.16,235.89l-0.99,6.82c-0.09,0.63-0.13,1.03,0.41,1.26l-0.5,1.1c-0.81-0.13-1.33-0.54-1.42-1.49
c-0.65,0.88-1.39,1.49-2.45,1.49c-1.62,0-2.61-1.31-2.61-3.35c0-2.83,1.33-6.55,4.77-6.55
C582.39,235.17,583.27,235.46,584.16,235.89z M578.21,241.74c0,1.44,0.47,2.07,1.33,2.07s1.51-0.76,2.14-1.67l0.77-5.49
c-0.34-0.14-0.67-0.22-1.12-0.22C579.13,236.43,578.21,239.37,578.21,241.74z"/>
<path fill="#3A2D72" d="M587.18,242.68c-0.11,0.72,0.13,1.08,0.72,1.08c0.4,0,0.74-0.14,1.15-0.38l0.47,1.06
c-0.59,0.43-1.24,0.63-1.89,0.63c-1.4,0-2.21-0.95-1.98-2.48l0.83-5.98h-1.37l0.18-1.24h1.42l0.54-2.2l1.3-0.14l-0.34,2.34h1.91
l-0.34,1.24h-1.73L587.18,242.68z"/>
<path fill="#3A2D72" d="M597.8,235.89l-0.99,6.82c-0.09,0.63-0.13,1.03,0.41,1.26l-0.5,1.1c-0.81-0.13-1.33-0.54-1.42-1.49
c-0.65,0.88-1.39,1.49-2.45,1.49c-1.62,0-2.61-1.31-2.61-3.35c0-2.83,1.33-6.55,4.77-6.55
C596.04,235.17,596.92,235.46,597.8,235.89z M591.86,241.74c0,1.44,0.47,2.07,1.33,2.07s1.51-0.76,2.14-1.67l0.77-5.49
c-0.34-0.14-0.67-0.22-1.12-0.22C592.78,236.43,591.86,239.37,591.86,241.74z"/>
<path fill="#3A2D72" d="M605.56,234.76c0,3.29-3.82,2.83-3.82,5.4c0,0.13,0.02,0.32,0.04,0.52l-1.39,0.23
c-0.09-0.25-0.14-0.59-0.14-0.9c0-3.06,3.69-2.63,3.69-5.24c0-0.86-0.49-1.22-1.26-1.22c-0.76,0-1.51,0.45-2.3,1.28l-0.92-0.85
c1.03-1.21,2.14-1.73,3.35-1.73C604.68,232.25,605.56,233.41,605.56,234.76z M599.82,244.01c0-0.7,0.52-1.31,1.26-1.31
c0.68,0,1.06,0.47,1.06,1.06c0,0.7-0.52,1.31-1.26,1.31C600.21,245.07,599.82,244.61,599.82,244.01z"/>
<path fill="#C45814" d="M536.13,29.59h1.62l-0.74,5.22h4.27l0.74-5.22h1.62L541.89,42h-1.62l0.81-5.83h-4.25L536.01,42h-1.62
L536.13,29.59z"/>
<path fill="#C45814" d="M544.3,38.6c0-2.59,1.19-6.28,4.5-6.28c1.98,0,3.06,1.39,3.06,3.6c0,2.54-1.13,6.3-4.48,6.3
C545.4,42.22,544.3,40.81,544.3,38.6z M550.25,35.77c0-1.49-0.52-2.18-1.49-2.18c-2.21,0-2.81,3.26-2.81,5.17
c0,1.48,0.52,2.18,1.51,2.18C549.63,40.94,550.25,37.66,550.25,35.77z"/>
<path fill="#C45814" d="M560.43,42h-2.02l-0.29-8.07L555.57,42h-2l-0.54-9.49h1.53l0.2,8.37l2.72-8.37h1.75l0.31,8.37l2.54-8.37
h1.49L560.43,42z"/>
<path fill="#C45814" d="M573.9,33.34l-0.85,0.95c-0.5-0.45-0.94-0.68-1.55-0.68c-2.18,0-2.84,3.02-2.84,5.11
c0,1.51,0.58,2.14,1.53,2.14c0.7,0,1.21-0.31,1.85-0.72l0.59,1.08c-0.83,0.67-1.71,0.99-2.61,0.99c-1.87,0-3.01-1.33-3.01-3.58
c0-2.77,1.28-6.32,4.46-6.32C572.46,32.31,573.2,32.62,573.9,33.34z"/>
<path fill="#C45814" d="M581.17,33.03l-0.99,6.82c-0.09,0.63-0.13,1.03,0.41,1.26l-0.5,1.1c-0.81-0.13-1.33-0.54-1.42-1.49
c-0.65,0.88-1.39,1.49-2.45,1.49c-1.62,0-2.61-1.31-2.61-3.35c0-2.83,1.33-6.55,4.77-6.55C579.41,32.31,580.29,32.6,581.17,33.03z
M575.23,38.89c0,1.44,0.47,2.07,1.33,2.07s1.51-0.76,2.14-1.67l0.77-5.49c-0.34-0.14-0.67-0.22-1.12-0.22
C576.15,33.57,575.23,36.51,575.23,38.89z"/>
<path fill="#C45814" d="M589.43,35.19L588.46,42h-1.57l0.95-6.79c0.14-1.17-0.2-1.58-0.79-1.58c-0.94,0-1.84,1.31-2.5,2.56
L583.74,42h-1.57l1.33-9.49h1.35l-0.14,1.76c0.76-1.17,1.6-1.98,2.77-1.98C588.84,32.3,589.68,33.43,589.43,35.19z"/>
<path fill="#C45814" d="M595.51,32.51h1.37l-0.07,1.19c0.85-0.99,1.69-1.39,2.54-1.39c1.53,0,2.52,1.19,2.52,3.35
c0,2.9-1.21,6.55-4.59,6.55c-0.59,0-1.04-0.11-1.53-0.32l-0.54,3.76l-1.57,0.22L595.51,32.51z M600.25,35.61
c0-1.48-0.49-2.03-1.31-2.03c-0.79,0-1.6,0.65-2.21,1.39l-0.77,5.73c0.47,0.2,0.85,0.27,1.35,0.27
C599.44,40.96,600.25,37.91,600.25,35.61z"/>
<path fill="#C45814" d="M604.51,38.45v0.18c0,1.69,0.65,2.25,1.58,2.25c0.77,0,1.44-0.29,2.18-0.85l0.67,1.04
c-0.92,0.72-1.89,1.13-3.01,1.13c-1.96,0-3.06-1.35-3.06-3.56c0-2.79,1.28-6.34,4.52-6.34c1.75,0,2.63,1.1,2.63,2.36
C610.02,37.32,607.45,38.09,604.51,38.45z M604.6,37.25c2.48-0.31,3.82-0.88,3.82-2.54c0-0.65-0.32-1.13-1.12-1.13
C605.63,33.57,604.86,35.45,604.6,37.25z"/>
<path fill="#C45814" d="M610.65,38.6c0-2.59,1.19-6.28,4.5-6.28c1.98,0,3.06,1.39,3.06,3.6c0,2.54-1.13,6.3-4.48,6.3
C611.75,42.22,610.65,40.81,610.65,38.6z M616.59,35.77c0-1.49-0.52-2.18-1.49-2.18c-2.21,0-2.81,3.26-2.81,5.17
c0,1.48,0.52,2.18,1.51,2.18C615.98,40.94,616.59,37.66,616.59,35.77z"/>
<path fill="#C45814" d="M620.55,32.51h1.37l-0.07,1.19c0.85-0.99,1.69-1.39,2.54-1.39c1.53,0,2.52,1.19,2.52,3.35
c0,2.9-1.21,6.55-4.59,6.55c-0.59,0-1.04-0.11-1.53-0.32l-0.54,3.76l-1.57,0.22L620.55,32.51z M625.29,35.61
c0-1.48-0.49-2.03-1.31-2.03c-0.79,0-1.6,0.65-2.21,1.39l-0.77,5.73c0.47,0.2,0.85,0.27,1.35,0.27
C624.48,40.96,625.29,37.91,625.29,35.61z"/>
<path fill="#C45814" d="M629.62,40.24c-0.05,0.47,0.04,0.67,0.38,0.67c0.16,0,0.32-0.04,0.52-0.11l0.27,1.12
c-0.41,0.22-0.83,0.31-1.21,0.31c-1.08,0-1.69-0.77-1.5-2.09l1.58-11.43l1.58-0.18L629.62,40.24z"/>
<path fill="#C45814" d="M633.49,38.45v0.18c0,1.69,0.65,2.25,1.58,2.25c0.77,0,1.44-0.29,2.18-0.85l0.67,1.04
c-0.92,0.72-1.89,1.13-3.01,1.13c-1.96,0-3.06-1.35-3.06-3.56c0-2.79,1.28-6.34,4.52-6.34c1.75,0,2.63,1.1,2.63,2.36
C639,37.32,636.43,38.09,633.49,38.45z M633.58,37.25c2.48-0.31,3.82-0.88,3.82-2.54c0-0.65-0.32-1.13-1.12-1.13
C634.61,33.57,633.84,35.45,633.58,37.25z"/>
<path fill="#C45814" d="M540.11,54.04l-0.5,1.51c-0.22-0.05-0.4-0.09-0.65-0.09c-1.06,0-1.8,1.13-2.38,3.06l-0.7,5.08h-1.57
l1.33-9.49H537l-0.13,1.78c0.63-1.28,1.35-1.98,2.43-1.98C539.59,53.91,539.86,53.97,540.11,54.04z"/>
<path fill="#C45814" d="M541.35,60.05v0.18c0,1.69,0.65,2.25,1.58,2.25c0.77,0,1.44-0.29,2.18-0.85l0.67,1.04
c-0.92,0.72-1.89,1.13-3.01,1.13c-1.96,0-3.06-1.35-3.06-3.57c0-2.79,1.28-6.34,4.52-6.34c1.75,0,2.63,1.1,2.63,2.36
C546.86,58.92,544.29,59.69,541.35,60.05z M541.44,58.85c2.48-0.31,3.82-0.88,3.82-2.54c0-0.65-0.32-1.13-1.12-1.13
C542.47,55.17,541.69,57.05,541.44,58.85z"/>
<path fill="#C45814" d="M555.02,54.63l-0.99,6.82c-0.09,0.63-0.13,1.03,0.41,1.26l-0.5,1.1c-0.81-0.13-1.33-0.54-1.42-1.49
c-0.65,0.88-1.39,1.49-2.45,1.49c-1.62,0-2.61-1.31-2.61-3.35c0-2.83,1.33-6.55,4.77-6.55C553.25,53.91,554.13,54.2,555.02,54.63z
M549.07,60.49c0,1.44,0.47,2.07,1.33,2.07s1.51-0.76,2.14-1.67l0.77-5.49c-0.34-0.14-0.67-0.22-1.12-0.22
C549.99,55.17,549.07,58.11,549.07,60.49z"/>
<path fill="#C45814" d="M564.3,50.31l-1.87,13.29h-1.39l0.05-1.49c-0.61,1.06-1.42,1.71-2.52,1.71c-1.66,0-2.56-1.35-2.56-3.42
c0-2.68,1.21-6.5,4.11-6.5c0.97,0,1.58,0.49,1.95,1.13l0.68-4.88L564.3,50.31z M557.64,60.47c0,1.42,0.49,2.09,1.31,2.09
c0.94,0,1.64-0.92,2.38-2.25l0.56-3.96c-0.36-0.76-0.81-1.19-1.58-1.19C558.34,55.16,557.64,58.42,557.64,60.47z"/>
<path fill="#C45814" d="M575.77,54.63l-0.99,6.82c-0.09,0.63-0.13,1.03,0.41,1.26l-0.5,1.1c-0.81-0.13-1.33-0.54-1.42-1.49
c-0.65,0.88-1.39,1.49-2.45,1.49c-1.62,0-2.61-1.31-2.61-3.35c0-2.83,1.33-6.55,4.77-6.55C574,53.91,574.89,54.2,575.77,54.63z
M569.83,60.49c0,1.44,0.47,2.07,1.33,2.07s1.51-0.76,2.14-1.67l0.77-5.49c-0.34-0.14-0.67-0.22-1.12-0.22
C570.75,55.17,569.83,58.11,569.83,60.49z"/>
<path fill="#C45814" d="M584.03,56.79l-0.97,6.81h-1.57l0.95-6.79c0.14-1.17-0.2-1.58-0.79-1.58c-0.94,0-1.84,1.31-2.5,2.56
l-0.81,5.82h-1.57l1.33-9.49h1.35l-0.14,1.76c0.76-1.17,1.6-1.98,2.77-1.98C583.44,53.9,584.28,55.03,584.03,56.79z"/>
<path fill="#C45814" d="M593.59,50.31l-1.87,13.29h-1.39l0.05-1.49c-0.61,1.06-1.42,1.71-2.52,1.71c-1.66,0-2.56-1.35-2.56-3.42
c0-2.68,1.21-6.5,4.1-6.5c0.97,0,1.58,0.49,1.94,1.13l0.68-4.88L593.59,50.31z M586.93,60.47c0,1.42,0.49,2.09,1.31,2.09
c0.94,0,1.64-0.92,2.38-2.25l0.56-3.96c-0.36-0.76-0.81-1.19-1.58-1.19C587.63,55.16,586.93,58.42,586.93,60.47z"/>
<path fill="#C45814" d="M605.22,63.6h-2.02l-0.29-8.07l-2.56,8.07h-2l-0.54-9.49h1.53l0.2,8.37l2.72-8.37h1.75l0.31,8.37
l2.54-8.37h1.49L605.22,63.6z"/>
<path fill="#C45814" d="M614.11,54.04l-0.5,1.51c-0.22-0.05-0.4-0.09-0.65-0.09c-1.06,0-1.8,1.13-2.38,3.06l-0.7,5.08h-1.57
l1.33-9.49h1.35l-0.13,1.78c0.63-1.28,1.35-1.98,2.43-1.98C613.59,53.91,613.86,53.97,614.11,54.04z"/>
<path fill="#C45814" d="M615.4,63.6h-1.57l1.33-9.49h1.57L615.4,63.6z M615.38,50.82c0-0.72,0.52-1.19,1.13-1.19
c0.58,0,0.94,0.4,0.94,0.94c0,0.72-0.52,1.19-1.13,1.19C615.74,51.75,615.38,51.38,615.38,50.82z"/>
<path fill="#C45814" d="M619.74,61.42c-0.11,0.72,0.13,1.08,0.72,1.08c0.4,0,0.74-0.14,1.15-0.38l0.47,1.06
c-0.59,0.43-1.24,0.63-1.89,0.63c-1.4,0-2.21-0.95-1.98-2.48l0.83-5.98h-1.37l0.18-1.24h1.42l0.54-2.2l1.3-0.14l-0.34,2.34h1.91
l-0.34,1.24h-1.73L619.74,61.42z"/>
<path fill="#C45814" d="M624.47,60.05v0.18c0,1.69,0.65,2.25,1.58,2.25c0.77,0,1.44-0.29,2.18-0.85l0.67,1.04
c-0.92,0.72-1.89,1.13-3.01,1.13c-1.96,0-3.06-1.35-3.06-3.57c0-2.79,1.28-6.34,4.52-6.34c1.75,0,2.63,1.1,2.63,2.36
C629.98,58.92,627.41,59.69,624.47,60.05z M624.56,58.85c2.48-0.31,3.82-0.88,3.82-2.54c0-0.65-0.32-1.13-1.12-1.13
C625.59,55.17,624.82,57.05,624.56,58.85z"/>
<path fill="#C45814" d="M542.6,71.91l-1.87,13.29h-1.39l0.05-1.49c-0.61,1.06-1.42,1.71-2.52,1.71c-1.66,0-2.56-1.35-2.56-3.42
c0-2.68,1.21-6.5,4.1-6.5c0.97,0,1.58,0.49,1.94,1.13l0.68-4.88L542.6,71.91z M535.93,82.07c0,1.42,0.49,2.09,1.31,2.09
c0.94,0,1.64-0.92,2.38-2.25l0.56-3.96c-0.36-0.76-0.81-1.19-1.58-1.19C536.64,76.76,535.93,80.02,535.93,82.07z"/>
<path fill="#C45814" d="M550.59,76.23l-0.99,6.82c-0.09,0.63-0.13,1.03,0.41,1.26l-0.5,1.1c-0.81-0.13-1.33-0.54-1.42-1.49
c-0.65,0.88-1.39,1.49-2.45,1.49c-1.62,0-2.61-1.31-2.61-3.35c0-2.83,1.33-6.55,4.77-6.55C548.82,75.51,549.71,75.8,550.59,76.23z
M544.65,82.09c0,1.44,0.47,2.07,1.33,2.07s1.51-0.76,2.14-1.67l0.77-5.49c-0.34-0.14-0.67-0.22-1.12-0.22
C545.56,76.77,544.65,79.71,544.65,82.09z"/>
<path fill="#C45814" d="M553.61,83.02c-0.11,0.72,0.13,1.08,0.72,1.08c0.4,0,0.74-0.14,1.15-0.38l0.47,1.06
c-0.59,0.43-1.24,0.63-1.89,0.63c-1.4,0-2.21-0.95-1.98-2.48l0.83-5.98h-1.37l0.18-1.24h1.42l0.54-2.2l1.3-0.14l-0.34,2.34h1.91
l-0.34,1.24h-1.73L553.61,83.02z"/>
<path fill="#C45814" d="M564.23,76.23l-0.99,6.82c-0.09,0.63-0.13,1.03,0.41,1.26l-0.5,1.1c-0.81-0.13-1.33-0.54-1.42-1.49
c-0.65,0.88-1.39,1.49-2.45,1.49c-1.62,0-2.61-1.31-2.61-3.35c0-2.83,1.33-6.55,4.77-6.55C562.47,75.51,563.35,75.8,564.23,76.23z
M558.29,82.09c0,1.44,0.47,2.07,1.33,2.07s1.51-0.76,2.14-1.67l0.77-5.49c-0.34-0.14-0.67-0.22-1.12-0.22
C559.21,76.77,558.29,79.71,558.29,82.09z"/>
<path fill="#C45814" d="M571.99,75.1c0,3.29-3.82,2.83-3.82,5.4c0,0.13,0.02,0.32,0.04,0.52l-1.39,0.23
c-0.09-0.25-0.14-0.59-0.14-0.9c0-3.06,3.69-2.63,3.69-5.24c0-0.86-0.49-1.22-1.26-1.22c-0.76,0-1.51,0.45-2.3,1.28l-0.92-0.85
c1.03-1.21,2.14-1.73,3.35-1.73C571.11,72.6,571.99,73.75,571.99,75.1z M566.25,84.35c0-0.7,0.52-1.31,1.26-1.31
c0.68,0,1.06,0.47,1.06,1.06c0,0.7-0.52,1.31-1.26,1.31C566.64,85.42,566.25,84.95,566.25,84.35z"/>
<path fill="#3A2D72" d="M62.96,116.75h-2.07l-0.4-10.5l-3.31,10.5h-2.05l-0.34-12.41h1.53l0.09,10.95l3.47-10.95h1.78l0.42,10.95
l3.22-10.95h1.49L62.96,116.75z"/>
<path fill="#3A2D72" d="M74.08,109.93l-0.97,6.82h-1.57l0.95-6.79c0.16-1.17-0.18-1.58-0.77-1.58c-0.95,0-1.85,1.31-2.52,2.56
l-0.79,5.82h-1.57l1.87-13.29l1.58-0.16l-0.79,5.62c0.65-1.06,1.46-1.87,2.61-1.87C73.5,107.04,74.33,108.18,74.08,109.93z"/>
<path fill="#3A2D72" d="M83.37,107.78l-0.99,6.82c-0.09,0.63-0.13,1.03,0.41,1.26l-0.5,1.1c-0.81-0.13-1.33-0.54-1.42-1.49
c-0.65,0.88-1.39,1.49-2.45,1.49c-1.62,0-2.61-1.31-2.61-3.35c0-2.83,1.33-6.55,4.77-6.55C81.6,107.06,82.49,107.35,83.37,107.78z
M77.43,113.64c0,1.44,0.47,2.07,1.33,2.07s1.51-0.76,2.14-1.67l0.77-5.49c-0.34-0.14-0.67-0.22-1.12-0.22
C78.35,108.32,77.43,111.26,77.43,113.64z"/>
<path fill="#3A2D72" d="M86.84,114.57c-0.11,0.72,0.13,1.08,0.72,1.08c0.4,0,0.74-0.14,1.15-0.38l0.47,1.06
c-0.59,0.43-1.24,0.63-1.89,0.63c-1.4,0-2.21-0.95-1.98-2.48l0.83-5.98h-1.37l0.18-1.24h1.42l0.54-2.2l1.3-0.14l-0.34,2.34h1.91
l-0.34,1.24h-1.73L86.84,114.57z"/>
<path fill="#3A2D72" d="M96,116.75h-1.57l1.33-9.49h1.57L96,116.75z M95.98,103.97c0-0.72,0.52-1.19,1.13-1.19
c0.58,0,0.94,0.4,0.94,0.94c0,0.72-0.52,1.19-1.13,1.19C96.34,104.9,95.98,104.52,95.98,103.97z"/>
<path fill="#3A2D72" d="M105.09,108.22l-0.76,0.92c-0.61-0.52-1.22-0.81-2-0.81c-0.95,0-1.6,0.52-1.6,1.39
c0,0.72,0.5,1.04,1.6,1.48c1.39,0.54,2.12,1.28,2.12,2.67c0,1.94-1.57,3.11-3.53,3.11c-1.46,0-2.45-0.65-3.06-1.35l0.9-0.92
c0.59,0.59,1.28,0.99,2.21,0.99c1.37,0,1.85-0.95,1.85-1.71c0-0.88-0.4-1.22-1.64-1.71c-1.42-0.54-2.05-1.22-2.05-2.47
c0-1.4,1.24-2.74,3.17-2.74C103.51,107.06,104.39,107.5,105.09,108.22z"/>
<path fill="#3A2D72" d="M112.04,114.57c-0.11,0.72,0.13,1.08,0.72,1.08c0.4,0,0.74-0.14,1.15-0.38l0.47,1.06
c-0.59,0.43-1.24,0.63-1.89,0.63c-1.4,0-2.21-0.95-1.98-2.48l0.83-5.98h-1.37l0.18-1.24h1.42l0.54-2.2l1.3-0.14l-0.34,2.34h1.91
l-0.34,1.24h-1.73L112.04,114.57z"/>
<path fill="#3A2D72" d="M122.95,109.93l-0.97,6.82h-1.57l0.95-6.79c0.16-1.17-0.18-1.58-0.77-1.58c-0.95,0-1.85,1.31-2.52,2.56
l-0.79,5.82h-1.57l1.87-13.29l1.58-0.16l-0.79,5.62c0.65-1.06,1.46-1.87,2.61-1.87C122.37,107.04,123.2,108.18,122.95,109.93z"/>
<path fill="#3A2D72" d="M126.35,113.2v0.18c0,1.69,0.65,2.25,1.58,2.25c0.77,0,1.44-0.29,2.18-0.85l0.67,1.04
c-0.92,0.72-1.89,1.13-3.01,1.13c-1.96,0-3.06-1.35-3.06-3.56c0-2.79,1.28-6.34,4.52-6.34c1.75,0,2.63,1.1,2.63,2.36
C131.86,112.07,129.28,112.84,126.35,113.2z M126.44,112c2.48-0.31,3.82-0.88,3.82-2.54c0-0.65-0.32-1.13-1.12-1.13
C127.47,108.32,126.69,110.2,126.44,112z"/>
<path fill="#3A2D72" d="M3.38,134.8v0.18c0,1.69,0.65,2.25,1.58,2.25c0.77,0,1.44-0.29,2.18-0.85l0.67,1.04
c-0.92,0.72-1.89,1.13-3.01,1.13c-1.96,0-3.06-1.35-3.06-3.57c0-2.79,1.28-6.34,4.52-6.34c1.75,0,2.63,1.1,2.63,2.36
C8.89,133.67,6.31,134.44,3.38,134.8z M3.47,133.6c2.48-0.31,3.82-0.88,3.82-2.54c0-0.65-0.32-1.13-1.12-1.13
C4.49,129.92,3.72,131.8,3.47,133.6z"/>
<path fill="#3A2D72" d="M13.85,133.4l2.05,4.95h-1.67l-1.46-4.07l-2.58,4.07H8.51l3.47-5.1l-1.82-4.39h1.67l1.22,3.55l2.16-3.55
h1.69L13.85,133.4z"/>
<path fill="#3A2D72" d="M18.71,128.86h1.37l-0.07,1.19c0.85-0.99,1.69-1.39,2.54-1.39c1.53,0,2.52,1.19,2.52,3.35
c0,2.9-1.21,6.55-4.59,6.55c-0.59,0-1.04-0.11-1.53-0.32L18.41,142l-1.57,0.22L18.71,128.86z M23.45,131.96
c0-1.48-0.49-2.03-1.31-2.03c-0.79,0-1.6,0.65-2.21,1.39l-0.77,5.73c0.47,0.2,0.85,0.27,1.35,0.27
C22.64,137.31,23.45,134.26,23.45,131.96z"/>
<path fill="#3A2D72" d="M28.16,134.8v0.18c0,1.69,0.65,2.25,1.58,2.25c0.77,0,1.44-0.29,2.18-0.85l0.67,1.04
c-0.92,0.72-1.89,1.13-3.01,1.13c-1.96,0-3.06-1.35-3.06-3.57c0-2.79,1.28-6.34,4.52-6.34c1.75,0,2.63,1.1,2.63,2.36
C33.67,133.67,31.1,134.44,28.16,134.8z M28.25,133.6c2.48-0.31,3.82-0.88,3.82-2.54c0-0.65-0.32-1.13-1.12-1.13
C29.28,129.92,28.5,131.8,28.25,133.6z"/>
<path fill="#3A2D72" d="M41.63,129.69l-0.85,0.95c-0.5-0.45-0.94-0.68-1.55-0.68c-2.18,0-2.84,3.02-2.84,5.11
c0,1.51,0.58,2.14,1.53,2.14c0.7,0,1.21-0.31,1.85-0.72l0.59,1.08c-0.83,0.67-1.71,0.99-2.61,0.99c-1.87,0-3.01-1.33-3.01-3.58
c0-2.77,1.28-6.32,4.46-6.32C40.19,128.66,40.93,128.97,41.63,129.69z"/>
<path fill="#3A2D72" d="M44.13,136.17c-0.11,0.72,0.13,1.08,0.72,1.08c0.4,0,0.74-0.14,1.15-0.38l0.47,1.06
c-0.59,0.43-1.24,0.63-1.89,0.63c-1.4,0-2.21-0.95-1.98-2.48l0.83-5.98h-1.37l0.18-1.24h1.42l0.54-2.2l1.3-0.14l-0.34,2.34h1.91
l-0.34,1.24h-1.73L44.13,136.17z"/>
<path fill="#3A2D72" d="M49.31,134.8v0.18c0,1.69,0.65,2.25,1.58,2.25c0.77,0,1.44-0.29,2.18-0.85l0.67,1.04
c-0.92,0.72-1.89,1.13-3.01,1.13c-1.96,0-3.06-1.35-3.06-3.57c0-2.79,1.28-6.34,4.52-6.34c1.75,0,2.63,1.1,2.63,2.36
C54.82,133.67,52.25,134.44,49.31,134.8z M49.4,133.6c2.48-0.31,3.82-0.88,3.82-2.54c0-0.65-0.32-1.13-1.12-1.13
C50.43,129.92,49.65,131.8,49.4,133.6z"/>
<path fill="#3A2D72" d="M64.16,125.06l-1.87,13.29H60.9l0.05-1.5c-0.61,1.06-1.42,1.71-2.52,1.71c-1.66,0-2.56-1.35-2.56-3.42
c0-2.68,1.21-6.5,4.1-6.5c0.97,0,1.58,0.49,1.94,1.13l0.68-4.88L64.16,125.06z M57.5,135.22c0,1.42,0.49,2.09,1.31,2.09
c0.94,0,1.64-0.92,2.38-2.25l0.56-3.96c-0.36-0.76-0.81-1.19-1.58-1.19C58.2,129.91,57.5,133.17,57.5,135.22z"/>
<path fill="#3A2D72" d="M75.3,129.82l-0.76,0.92c-0.61-0.52-1.22-0.81-2-0.81c-0.95,0-1.6,0.52-1.6,1.39c0,0.72,0.5,1.04,1.6,1.48
c1.39,0.54,2.12,1.28,2.12,2.66c0,1.95-1.57,3.12-3.53,3.12c-1.46,0-2.45-0.65-3.06-1.35l0.9-0.92c0.59,0.59,1.28,0.99,2.21,0.99
c1.37,0,1.85-0.95,1.85-1.71c0-0.88-0.4-1.22-1.64-1.71c-1.42-0.54-2.05-1.22-2.05-2.47c0-1.4,1.24-2.74,3.17-2.74
C73.72,128.66,74.6,129.1,75.3,129.82z"/>
<path fill="#3A2D72" d="M78.33,136.17c-0.11,0.72,0.13,1.08,0.72,1.08c0.4,0,0.74-0.14,1.15-0.38l0.47,1.06
c-0.59,0.43-1.24,0.63-1.89,0.63c-1.4,0-2.21-0.95-1.98-2.48l0.83-5.98h-1.37l0.18-1.24h1.42l0.54-2.2l1.3-0.14l-0.34,2.34h1.91
l-0.34,1.24h-1.73L78.33,136.17z"/>
<path fill="#3A2D72" d="M87.79,128.79l-0.5,1.51c-0.22-0.05-0.4-0.09-0.65-0.09c-1.06,0-1.8,1.13-2.38,3.06l-0.7,5.08H82
l1.33-9.49h1.35l-0.13,1.78c0.63-1.28,1.35-1.98,2.43-1.98C87.27,128.66,87.54,128.72,87.79,128.79z"/>
<path fill="#3A2D72" d="M88.26,135.85l0.97-6.99h1.57l-0.99,7.08c-0.16,1.01,0.16,1.39,0.74,1.39c1.03,0,1.87-1.28,2.43-2.18
l0.92-6.28h1.55l-1.33,9.49h-1.33l0.13-1.71c-0.72,1.13-1.46,1.93-2.66,1.93C88.86,138.57,88.03,137.52,88.26,135.85z"/>
<path fill="#3A2D72" d="M103.78,129.69l-0.85,0.95c-0.5-0.45-0.94-0.68-1.55-0.68c-2.18,0-2.84,3.02-2.84,5.11
c0,1.51,0.58,2.14,1.53,2.14c0.7,0,1.21-0.31,1.85-0.72l0.59,1.08c-0.83,0.67-1.71,0.99-2.61,0.99c-1.87,0-3.01-1.33-3.01-3.58
c0-2.77,1.28-6.32,4.46-6.32C102.34,128.66,103.08,128.97,103.78,129.69z"/>
<path fill="#3A2D72" d="M106.28,136.17c-0.11,0.72,0.13,1.08,0.72,1.08c0.4,0,0.74-0.14,1.15-0.38l0.47,1.06
c-0.59,0.43-1.24,0.63-1.89,0.63c-1.4,0-2.21-0.95-1.98-2.48l0.83-5.98h-1.37l0.18-1.24h1.42l0.54-2.2l1.3-0.14l-0.34,2.34h1.91
l-0.34,1.24h-1.73L106.28,136.17z"/>
<path fill="#3A2D72" d="M110.24,135.85l0.97-6.99h1.57l-0.99,7.08c-0.16,1.01,0.16,1.39,0.74,1.39c1.03,0,1.87-1.28,2.43-2.18
l0.92-6.28h1.55l-1.33,9.49h-1.33l0.13-1.71c-0.72,1.13-1.46,1.93-2.66,1.93C110.83,138.57,110,137.52,110.24,135.85z"/>
<path fill="#3A2D72" d="M124.66,128.79l-0.5,1.51c-0.22-0.05-0.4-0.09-0.65-0.09c-1.06,0-1.8,1.13-2.38,3.06l-0.7,5.08h-1.57
l1.33-9.49h1.35l-0.13,1.78c0.63-1.28,1.35-1.98,2.43-1.98C124.14,128.66,124.41,128.72,124.66,128.79z"/>
<path fill="#3A2D72" d="M126.35,134.8v0.18c0,1.69,0.65,2.25,1.58,2.25c0.77,0,1.44-0.29,2.18-0.85l0.67,1.04
c-0.92,0.72-1.89,1.13-3.01,1.13c-1.96,0-3.06-1.35-3.06-3.57c0-2.79,1.28-6.34,4.52-6.34c1.75,0,2.63,1.1,2.63,2.36
C131.86,133.67,129.28,134.44,126.35,134.8z M126.44,133.6c2.48-0.31,3.82-0.88,3.82-2.54c0-0.65-0.32-1.13-1.12-1.13
C127.47,129.92,126.69,131.8,126.44,133.6z"/>
<path fill="#3A2D72" d="M52.01,156.55c0-2.59,1.19-6.28,4.5-6.28c1.98,0,3.06,1.39,3.06,3.6c0,2.54-1.13,6.3-4.48,6.3
C53.11,160.17,52.01,158.76,52.01,156.55z M57.95,153.72c0-1.5-0.52-2.18-1.49-2.18c-2.21,0-2.81,3.26-2.81,5.17
c0,1.48,0.52,2.18,1.51,2.18C57.34,158.89,57.95,155.61,57.95,153.72z"/>
<path fill="#3A2D72" d="M64.34,149.18l-0.18,1.28h1.98l-0.36,1.24h-1.8l-1.1,7.89c-0.38,2.67-1.39,3.33-3.22,4.18l-0.41-1.19
c1.15-0.56,1.82-1.03,2.11-3.13l1.08-7.74h-1.4l0.18-1.24h1.39l0.2-1.37c0.22-1.58,1.22-2.65,2.88-2.65c0.83,0,1.42,0.27,2,0.68
l-0.59,1.01c-0.45-0.29-0.9-0.41-1.35-0.41C64.88,147.72,64.49,148.21,64.34,149.18z"/>
<path fill="#3A2D72" d="M72.04,157.77c-0.11,0.72,0.13,1.08,0.72,1.08c0.4,0,0.74-0.14,1.15-0.38l0.47,1.06
c-0.59,0.43-1.24,0.63-1.89,0.63c-1.4,0-2.21-0.95-1.98-2.48l0.83-5.98h-1.37l0.18-1.24h1.42l0.54-2.2l1.3-0.14l-0.34,2.34h1.91
l-0.34,1.24h-1.73L72.04,157.77z"/>
<path fill="#3A2D72" d="M82.95,153.13l-0.97,6.82h-1.57l0.95-6.79c0.16-1.17-0.18-1.58-0.77-1.58c-0.95,0-1.85,1.31-2.52,2.56
l-0.79,5.82h-1.57l1.87-13.29l1.58-0.16l-0.79,5.62c0.65-1.06,1.46-1.87,2.61-1.87C82.38,150.25,83.21,151.38,82.95,153.13z"/>
<path fill="#3A2D72" d="M86.35,156.4v0.18c0,1.69,0.65,2.25,1.58,2.25c0.77,0,1.44-0.29,2.18-0.85l0.67,1.04
c-0.92,0.72-1.89,1.13-3.01,1.13c-1.96,0-3.06-1.35-3.06-3.56c0-2.79,1.28-6.34,4.52-6.34c1.75,0,2.63,1.1,2.63,2.36
C91.86,155.27,89.29,156.04,86.35,156.4z M86.44,155.2c2.48-0.31,3.82-0.88,3.82-2.54c0-0.65-0.32-1.13-1.12-1.13
C87.47,151.52,86.7,153.4,86.44,155.2z"/>
<path fill="#3A2D72" d="M105.13,146.66l-1.87,13.29h-1.39l0.05-1.49c-0.61,1.06-1.42,1.71-2.52,1.71c-1.66,0-2.56-1.35-2.56-3.42
c0-2.68,1.21-6.5,4.1-6.5c0.97,0,1.58,0.49,1.94,1.13l0.68-4.88L105.13,146.66z M98.47,156.82c0,1.42,0.49,2.09,1.31,2.09
c0.94,0,1.64-0.92,2.38-2.25l0.56-3.96c-0.36-0.76-0.81-1.19-1.58-1.19C99.17,151.51,98.47,154.76,98.47,156.82z"/>
<path fill="#3A2D72" d="M113.57,150.98l-0.99,6.82c-0.09,0.63-0.13,1.03,0.41,1.26l-0.5,1.1c-0.81-0.13-1.33-0.54-1.42-1.49
c-0.65,0.88-1.39,1.49-2.45,1.49c-1.62,0-2.61-1.31-2.61-3.35c0-2.83,1.33-6.55,4.77-6.55
C111.81,150.26,112.69,150.55,113.57,150.98z M107.63,156.83c0,1.44,0.47,2.07,1.33,2.07s1.51-0.76,2.14-1.67l0.77-5.49
c-0.34-0.14-0.67-0.22-1.12-0.22C108.55,151.52,107.63,154.46,107.63,156.83z"/>
<path fill="#3A2D72" d="M117.04,157.77c-0.11,0.72,0.13,1.08,0.72,1.08c0.4,0,0.74-0.14,1.15-0.38l0.47,1.06
c-0.59,0.43-1.24,0.63-1.89,0.63c-1.4,0-2.21-0.95-1.98-2.48l0.83-5.98h-1.37l0.18-1.24h1.42l0.54-2.2l1.3-0.14l-0.34,2.34h1.91
l-0.34,1.24h-1.73L117.04,157.77z"/>
<path fill="#3A2D72" d="M128.12,150.98l-0.99,6.82c-0.09,0.63-0.13,1.03,0.41,1.26l-0.5,1.1c-0.81-0.13-1.33-0.54-1.42-1.49
c-0.65,0.88-1.39,1.49-2.45,1.49c-1.62,0-2.61-1.31-2.61-3.35c0-2.83,1.33-6.55,4.77-6.55
C126.35,150.26,127.23,150.55,128.12,150.98z M122.17,156.83c0,1.44,0.47,2.07,1.33,2.07s1.51-0.76,2.14-1.67l0.77-5.49
c-0.34-0.14-0.67-0.22-1.12-0.22C123.09,151.52,122.17,154.46,122.17,156.83z"/>
<path fill="#3A2D72" d="M136.32,149.85c0,3.29-3.82,2.83-3.82,5.4c0,0.13,0.02,0.32,0.04,0.52l-1.39,0.23
c-0.09-0.25-0.14-0.59-0.14-0.9c0-3.06,3.69-2.63,3.69-5.24c0-0.86-0.49-1.22-1.26-1.22c-0.76,0-1.51,0.45-2.3,1.28l-0.92-0.85
c1.03-1.21,2.14-1.73,3.35-1.73C135.44,147.35,136.32,148.5,136.32,149.85z M130.58,159.1c0-0.7,0.52-1.31,1.26-1.31
c0.68,0,1.06,0.47,1.06,1.06c0,0.7-0.52,1.31-1.26,1.31C130.98,160.17,130.58,159.7,130.58,159.1z"/>
<line fill="none" stroke="#C45814" stroke-width="1.25" stroke-linecap="round" x1="285.66" y1="120.33" x2="373" y2="67"/>
<polygon fill="#C45814" points="290.46,124.69 278,125 283.96,114.06"/>
<line fill="none" stroke="#3A2D72" stroke-width="1.25" stroke-linecap="round" x1="285.67" y1="139.65" x2="373" y2="192.6"/>
<polygon fill="#3A2D72" points="284,145.93 278,135 290.46,135.27"/>
<path fill="none" stroke="#1D1D1B" d="M373,192.6"/>
<path fill="none" stroke="#1D1D1B" d="M373,67"/>
</svg>
