<?xml version="1.0" encoding="utf-8"?>
<svg version="1.1" xmlns="http://www.w3.org/2000/svg" width="640" height="200">
<path fill="none" stroke="#808080" stroke-width="1.25" d="M419.67,75.75
c-55-47.33-156.1-51.42-156.1-51.42S183.23,3.91,105.18,63.54"/>
<polygon fill="#808080" points="102.77,57.55 98.16,69.13 110.49,67.34"/>
<path fill="none" stroke="#808080" stroke-width="1.25" d="M419.67,124.75
c-58.67,42.13-152.33,44.64-152.33,44.64S161.96,184.48,104.8,136.9"/>
<polygon fill="#808080" points="110.37,133.37 98.16,130.87 102.1,142.69"/>
<line fill="none" stroke="#808080" stroke-width="1.25" x1="128.97" y1="100" x2="568" y2="100"/>
<polygon fill="#808080" points="130.79,106.23 120,100 130.79,93.77"/>
<path fill="#3A2D72" d="M628,88V70h-18c0,6.63-5.37,12-12,12c-6.63,0-12-5.37-12-12h-18v60h60v-18c6.63,0,12-5.37,12-12
C640,93.37,634.63,88,628,88z"/>
<path fill="#FFFFFF" d="M584.97,96.2l-0.87,1.33c-0.62-0.39-1.28-0.61-1.96-0.61c-0.65,0-0.96,0.24-0.96,0.6
c0,0.42,0.21,0.6,1.63,1.02c1.58,0.45,2.46,1.11,2.46,2.54c0,1.65-1.56,2.62-3.54,2.62c-1.38,0-2.55-0.48-3.33-1.18l1.16-1.29
c0.6,0.46,1.33,0.78,2.12,0.78c0.72,0,1.15-0.27,1.15-0.75c0-0.54-0.24-0.71-1.68-1.11c-1.58-0.45-2.35-1.26-2.35-2.49
c0-1.36,1.25-2.43,3.25-2.43C583.2,95.22,584.24,95.6,584.97,96.2z"/>
<path fill="#FFFFFF" d="M593.51,97.62v5.82h-2.37v-5.42c0-0.84-0.3-1.06-0.75-1.06c-0.53,0-0.96,0.38-1.38,1.02v5.46h-2.37V92.31
l2.37-0.24v4.24c0.64-0.72,1.37-1.09,2.29-1.09C592.68,95.22,593.51,96.11,593.51,97.62z"/>
<path fill="#FFFFFF" d="M602.31,102.11l-0.5,1.54c-0.93-0.08-1.54-0.36-1.92-1.14c-0.57,0.87-1.46,1.18-2.4,1.18
c-1.59,0-2.59-1.04-2.59-2.49c0-1.74,1.32-2.68,3.74-2.68h0.81v-0.34c0-0.95-0.38-1.23-1.35-1.23c-0.51,0-1.29,0.15-2.08,0.42
l-0.54-1.56c1-0.38,2.1-0.58,3-0.58c2.31,0,3.3,0.97,3.3,2.82v3.09C601.77,101.75,601.94,101.97,602.31,102.11z M599.45,101.25
v-1.43h-0.58c-1.08,0-1.6,0.38-1.6,1.17c0,0.63,0.34,1,0.93,1C598.73,102,599.16,101.72,599.45,101.25z"/>
<path fill="#FFFFFF" d="M611.28,99.44c0,2.46-1.2,4.26-3.16,4.26c-0.78,0-1.44-0.27-1.94-0.84v3.66l-2.37,0.25V95.48h2.08
l0.12,0.88c0.66-0.82,1.52-1.14,2.25-1.14C610.37,95.22,611.28,96.86,611.28,99.44z M608.82,99.47c0-1.98-0.48-2.5-1.31-2.5
c-0.51,0-0.99,0.34-1.33,0.93v3.36c0.33,0.48,0.72,0.7,1.21,0.7C608.28,101.96,608.82,101.25,608.82,99.47z"/>
<path fill="#FFFFFF" d="M619.82,100.16h-4.92c0.15,1.42,0.83,1.82,1.8,1.82c0.65,0,1.21-0.23,1.91-0.71l0.97,1.32
c-0.79,0.63-1.81,1.11-3.1,1.11c-2.65,0-4-1.71-4-4.2c0-2.38,1.31-4.27,3.72-4.27c2.28,0,3.67,1.5,3.67,4.08
C619.86,99.56,619.85,99.92,619.82,100.16z M617.54,98.63c-0.01-1.08-0.34-1.83-1.29-1.83c-0.79,0-1.25,0.5-1.37,1.93h2.65V98.63z"/>
<path fill="#3D2C70" d="M413,110c0,11.05,8.95,20,20,20h60c11.05,0,20-8.95,20-20V90c0-11.05-8.95-20-20-20h-60
c-11.05,0-20,8.95-20,20V110z"/>
<path fill="#FFFFFF" d="M456.68,102.11l-0.5,1.54c-0.93-0.08-1.54-0.36-1.92-1.14c-0.57,0.87-1.46,1.18-2.4,1.18
c-1.59,0-2.6-1.03-2.6-2.49c0-1.74,1.32-2.69,3.74-2.69h0.81v-0.34c0-0.95-0.38-1.23-1.35-1.23c-0.51,0-1.29,0.15-2.08,0.42
l-0.54-1.56c1-0.38,2.1-0.58,3-0.58c2.31,0,3.3,0.98,3.3,2.82v3.09C456.14,101.75,456.31,101.97,456.68,102.11z M453.82,101.25
v-1.43h-0.58c-1.08,0-1.6,0.38-1.6,1.17c0,0.63,0.34,1.01,0.93,1.01C453.1,102,453.53,101.72,453.82,101.25z"/>
<path fill="#FFFFFF" d="M465.65,99.44c0,2.46-1.2,4.26-3.17,4.26c-0.78,0-1.44-0.27-1.93-0.84v3.66l-2.37,0.25V95.48h2.08
l0.12,0.89c0.66-0.83,1.51-1.14,2.25-1.14C464.74,95.22,465.65,96.86,465.65,99.44z M463.19,99.47c0-1.98-0.48-2.5-1.3-2.5
c-0.51,0-0.99,0.34-1.33,0.93v3.36c0.33,0.48,0.72,0.71,1.21,0.71C462.65,101.96,463.19,101.25,463.19,99.47z"/>
<path fill="#FFFFFF" d="M474.76,99.44c0,2.46-1.2,4.26-3.17,4.26c-0.78,0-1.44-0.27-1.93-0.84v3.66l-2.37,0.25V95.48h2.08
l0.12,0.89c0.66-0.83,1.51-1.14,2.25-1.14C473.84,95.22,474.76,96.86,474.76,99.44z M472.3,99.47c0-1.98-0.48-2.5-1.3-2.5
c-0.51,0-0.99,0.34-1.33,0.93v3.36c0.33,0.48,0.72,0.71,1.21,0.71C471.76,101.96,472.3,101.25,472.3,99.47z"/>
<ellipse fill="#D8D5E3" cx="60" cy="100" rx="58.5" ry="38.5"/>
<path fill="#3A2D72" d="M60,63c31.43,0,57,16.6,57,37s-25.57,37-57,37c-31.43,0-57-16.6-57-37S28.57,63,60,63 M60,60
C26.86,60,0,77.91,0,100s26.86,40,60,40c33.14,0,60-17.91,60-40S93.14,60,60,60L60,60z"/>
<path fill="#3D2C70" d="M38.51,92.96l-1.56,11.14h-2.32l0.01-1.08c-0.5,0.71-1.26,1.35-2.35,1.35c-1.71,0-2.5-1.21-2.5-3.22
c0-2.2,1.02-5.31,3.94-5.31c0.66,0,1.26,0.27,1.67,0.71l0.54-3.85L38.51,92.96z M32.48,101.15c0,1.05,0.33,1.3,0.75,1.3
c0.57,0,1.1-0.67,1.52-1.36l0.4-2.85c-0.25-0.33-0.51-0.48-0.93-0.48C32.86,97.76,32.48,99.89,32.48,101.15z"/>
<path fill="#3D2C70" d="M46.63,96.72l-0.72,4.95c-0.01,0.13-0.03,0.24-0.03,0.34c0,0.34,0.12,0.5,0.39,0.6l-0.75,1.71
c-0.92-0.06-1.71-0.46-1.98-1.32c-0.54,0.79-1.29,1.36-2.35,1.36c-1.75,0-2.64-1.24-2.64-3.21c0-2.31,1.23-5.32,4.68-5.32
C44.32,95.84,45.53,96.09,46.63,96.72z M41.24,101.16c0,1.05,0.36,1.29,0.79,1.29c0.46,0,0.92-0.36,1.32-1l0.54-3.63
c-0.27-0.09-0.46-0.12-0.77-0.12C41.72,97.7,41.24,99.68,41.24,101.16z"/>
<path fill="#3D2C70" d="M51.65,102.03l0.67,1.74c-0.69,0.41-1.61,0.6-2.31,0.6c-1.86,0-2.59-1.08-2.32-3.07l0.48-3.36h-1.02
l0.24-1.83h1.14l0.5-1.74l2.29-0.27l-0.29,2.01h1.79l-0.51,1.83H50.8l-0.46,3.36c-0.12,0.76,0.08,0.97,0.48,0.97
C51.08,102.27,51.35,102.2,51.65,102.03z"/>
<path fill="#3D2C70" d="M60.82,96.72l-0.72,4.95c-0.01,0.13-0.03,0.24-0.03,0.34c0,0.34,0.12,0.5,0.39,0.6l-0.75,1.71
c-0.92-0.06-1.71-0.46-1.98-1.32c-0.54,0.79-1.29,1.36-2.35,1.36c-1.75,0-2.64-1.24-2.64-3.21c0-2.31,1.23-5.32,4.68-5.32
C58.51,95.84,59.72,96.09,60.82,96.72z M55.43,101.16c0,1.05,0.36,1.29,0.79,1.29c0.46,0,0.92-0.36,1.32-1l0.54-3.63
c-0.27-0.09-0.46-0.12-0.77-0.12C55.91,97.7,55.43,99.68,55.43,101.16z"/>
<path fill="#3D2C70" d="M72.79,98.94c0,2.31-1.05,5.43-4.25,5.43c-0.71,0-1.14-0.1-1.41-0.21l-0.45,3.03l-2.62,0.29l1.59-11.37
h2.32v0.86c0.81-0.84,1.63-1.12,2.34-1.12C71.96,95.84,72.79,96.96,72.79,98.94z M67.93,98.63l-0.52,3.66
c0.25,0.1,0.52,0.16,0.88,0.16c1.33,0,1.8-2.01,1.8-3.42c0-1.02-0.36-1.26-0.83-1.26C68.78,97.77,68.33,98.06,67.93,98.63z"/>
<path fill="#3D2C70" d="M81.41,99.26c-0.01,2.29-1.12,5.11-4.56,5.11c-2.16,0-3.42-1.27-3.42-3.42c0-2.31,1.12-5.12,4.54-5.12
C80.15,95.84,81.43,97.16,81.41,99.26z M76.12,101.1c0,0.96,0.3,1.33,0.94,1.33c1.42,0,1.65-2.2,1.67-3.33
c0.01-0.94-0.3-1.33-0.95-1.33C76.36,97.77,76.12,99.98,76.12,101.1z"/>
<path fill="#3D2C70" d="M90.82,92.96l-1.56,11.14h-2.32l0.01-1.08c-0.5,0.71-1.26,1.35-2.35,1.35c-1.71,0-2.5-1.21-2.5-3.22
c0-2.2,1.02-5.31,3.94-5.31c0.66,0,1.26,0.27,1.67,0.71l0.54-3.85L90.82,92.96z M84.79,101.15c0,1.05,0.33,1.3,0.75,1.3
c0.57,0,1.1-0.67,1.52-1.36l0.4-2.85c-0.25-0.33-0.51-0.48-0.93-0.48C85.16,97.76,84.79,99.89,84.79,101.15z"/>
<path fill="#3A2D72" d="M289.17,3.29c-7.97-2.38-18.01-3.61-28.88-3.21c-25.4,0.93-45.68,10.4-45.28,21.16
c0.39,10.75,21.31,18.72,46.71,17.78c4.4-0.16,8.63-0.58,12.64-1.22"/>
<circle fill="#3A2D72" cx="285.57" cy="25.67" r="22.64"/>
<ellipse fill="#3A2D72" cx="314.98" cy="44.04" rx="10.94" ry="6.11"/>
<ellipse fill="#3A2D72" cx="307.56" cy="5.08" rx="6.77" ry="3.78"/>
<ellipse fill="#3A2D72" cx="315.02" cy="13.26" rx="6.77" ry="3.78"/>
<ellipse fill="#3A2D72" cx="317.82" cy="22.67" rx="6.77" ry="3.78"/>
<ellipse fill="#3A2D72" cx="316.89" cy="32.09" rx="6.77" ry="3.78"/>
<path fill="#3A2D72" d="M289.17,80.79c-7.97-2.38-18.01-3.61-28.88-3.21c-25.4,0.93-45.68,10.4-45.28,21.16
c0.39,10.75,21.31,18.72,46.71,17.78c4.4-0.16,8.63-0.58,12.64-1.22"/>
<circle fill="#3A2D72" cx="285.57" cy="103.18" r="22.64"/>
<ellipse fill="#3A2D72" cx="314.98" cy="121.55" rx="10.94" ry="6.11"/>
<ellipse fill="#3A2D72" cx="307.56" cy="82.59" rx="6.77" ry="3.78"/>
<ellipse fill="#3A2D72" cx="315.02" cy="90.76" rx="6.77" ry="3.78"/>
<ellipse fill="#3A2D72" cx="317.82" cy="100.18" rx="6.77" ry="3.78"/>
<ellipse fill="#3A2D72" cx="316.89" cy="109.59" rx="6.77" ry="3.78"/>
<path fill="#3A2D72" d="M289.17,153.14c-7.97-2.38-18.01-3.61-28.88-3.21c-25.4,0.93-45.68,10.4-45.28,21.16
c0.39,10.75,21.31,18.72,46.71,17.78c4.4-0.16,8.63-0.58,12.64-1.22"/>
<circle fill="#3A2D72" cx="285.57" cy="175.52" r="22.64"/>
<ellipse fill="#3A2D72" cx="314.98" cy="193.89" rx="10.94" ry="6.11"/>
<ellipse fill="#3A2D72" cx="307.56" cy="154.93" rx="6.77" ry="3.78"/>
<ellipse fill="#3A2D72" cx="315.02" cy="163.11" rx="6.77" ry="3.78"/>
<ellipse fill="#3A2D72" cx="317.82" cy="172.52" rx="6.77" ry="3.78"/>
<ellipse fill="#3A2D72" cx="316.89" cy="181.94" rx="6.77" ry="3.78"/>
<path fill="#FFFFFF" d="M235.51,17.04v0.61h1.88l-0.25,1.65h-1.62v6.31h-2.37v-6.31h-1.2v-1.65h1.2v-0.7c0-1.53,1-2.72,3.04-2.72
c0.82,0,1.59,0.21,2.17,0.51l-0.65,1.54c-0.45-0.23-0.9-0.3-1.25-0.3C235.78,15.99,235.51,16.29,235.51,17.04z"/>
<path fill="#FFFFFF" d="M245.51,21.65c0,2.55-1.47,4.23-3.9,4.23c-2.42,0-3.9-1.56-3.9-4.24c0-2.55,1.47-4.23,3.9-4.23
C244.04,17.4,245.51,18.96,245.51,21.65z M240.17,21.63c0,1.77,0.48,2.5,1.44,2.5s1.44-0.77,1.44-2.49c0-1.77-0.48-2.51-1.44-2.51
S240.17,19.91,240.17,21.63z"/>
<path fill="#FFFFFF" d="M254.42,21.65c0,2.55-1.47,4.23-3.9,4.23c-2.42,0-3.9-1.56-3.9-4.24c0-2.55,1.47-4.23,3.9-4.23
S254.42,18.96,254.42,21.65z M249.08,21.63c0,1.77,0.48,2.5,1.44,2.5s1.44-0.77,1.44-2.49c0-1.77-0.48-2.51-1.44-2.51
S249.08,19.91,249.08,21.63z"/>
<path fill="#FFFFFF" d="M260.98,25.25c-0.6,0.42-1.44,0.63-2.16,0.63c-1.75-0.02-2.61-1-2.61-2.88v-3.69h-1.12v-1.65h1.12v-1.72
l2.37-0.27v1.99h1.83l-0.25,1.65h-1.58v3.66c0,0.76,0.26,1.03,0.75,1.03c0.27,0,0.54-0.07,0.86-0.27L260.98,25.25z"/>
<path fill="#FFFFFF" d="M269.39,21.62c0,2.46-1.2,4.26-3.17,4.26c-0.78,0-1.44-0.27-1.93-0.84v3.66l-2.37,0.26V17.66h2.08
l0.12,0.89c0.66-0.83,1.51-1.14,2.25-1.14C268.48,17.4,269.39,19.04,269.39,21.62z M266.93,21.65c0-1.98-0.48-2.51-1.3-2.51
c-0.51,0-0.99,0.35-1.33,0.93v3.36c0.33,0.48,0.72,0.71,1.21,0.71C266.39,24.14,266.93,23.43,266.93,21.65z"/>
<path fill="#FFFFFF" d="M276.14,17.54l-0.38,2.29c-0.25-0.06-0.45-0.1-0.72-0.1c-0.98,0-1.4,0.72-1.65,1.92v3.97h-2.37v-7.96h2.07
l0.2,1.53c0.36-1.1,1.14-1.75,2.05-1.75C275.65,17.43,275.89,17.46,276.14,17.54z"/>
<path fill="#FFFFFF" d="M279.77,14.81c0,0.76-0.58,1.35-1.41,1.35c-0.82,0-1.39-0.58-1.39-1.35c0-0.77,0.57-1.35,1.39-1.35
C279.19,13.46,279.77,14.04,279.77,14.81z M279.56,25.62h-2.37v-7.96h2.37V25.62z"/>
<path fill="#FFFFFF" d="M288.44,19.8v5.82h-2.37v-5.41c0-0.84-0.29-1.07-0.75-1.07c-0.52,0-0.96,0.38-1.38,1.04v5.44h-2.37v-7.96
h2.07l0.17,0.95c0.67-0.78,1.44-1.2,2.43-1.2C287.61,17.4,288.44,18.29,288.44,19.8z"/>
<path fill="#FFFFFF" d="M295.37,25.25c-0.6,0.42-1.44,0.63-2.16,0.63c-1.75-0.02-2.61-1-2.61-2.88v-3.69h-1.12v-1.65h1.12v-1.72
l2.37-0.27v1.99h1.83l-0.25,1.65h-1.58v3.66c0,0.76,0.26,1.03,0.75,1.03c0.27,0,0.54-0.07,0.86-0.27L295.37,25.25z"/>
<path fill="#FFFFFF" d="M286.52,39.22h-2.4l-0.74,2.28H281l4.07-10.39h2.79l1.16,10.39h-2.37L286.52,39.22z M286.43,37.53
l-0.24-4.83l-1.53,4.83H286.43z"/>
<path fill="#FFFFFF" d="M289.16,115.22c0,2.11-1.54,3.42-4.39,3.42h-2.97l1.46-10.39h2.76c2.12,0,3.46,0.73,3.46,2.34
c0,1.46-1,2.26-2.19,2.56C288.32,113.36,289.16,113.91,289.16,115.22z M286.8,115.1c0-0.76-0.42-1.09-1.25-1.09h-0.81l-0.41,2.92
H285C286.38,116.93,286.8,116.06,286.8,115.1z M287.12,110.81c0-0.63-0.39-0.9-1.1-0.9h-0.71l-0.34,2.52h0.65
C286.62,112.43,287.12,111.78,287.12,110.81z"/>
<path fill="#FFFFFF" d="M289.94,182.52l-1.24,1.24c-0.42-0.42-0.86-0.67-1.41-0.67c-1.91,0-2.54,3.08-2.54,5.25
c0,1.5,0.53,2.1,1.4,2.1c0.67,0,1.21-0.38,1.8-0.81l0.87,1.33c-0.73,0.67-1.78,1.29-3.1,1.29c-2,0-3.36-1.33-3.36-4.04
c0-3.42,1.53-6.87,4.93-6.87C288.45,181.35,289.29,181.8,289.94,182.52z"/>
<path fill="#FFFFFF" d="M235.51,94.55v0.61h1.88l-0.25,1.65h-1.62v6.31h-2.37v-6.31h-1.2v-1.65h1.2v-0.7c0-1.53,1-2.72,3.04-2.72
c0.82,0,1.59,0.21,2.17,0.51l-0.65,1.54c-0.45-0.23-0.9-0.3-1.25-0.3C235.78,93.5,235.51,93.8,235.51,94.55z"/>
<path fill="#FFFFFF" d="M245.51,99.15c0,2.55-1.47,4.23-3.9,4.23c-2.42,0-3.9-1.56-3.9-4.24c0-2.55,1.47-4.23,3.9-4.23
C244.04,94.91,245.51,96.47,245.51,99.15z M240.17,99.14c0,1.77,0.48,2.5,1.44,2.5s1.44-0.76,1.44-2.49
c0-1.77-0.48-2.51-1.44-2.51S240.17,97.41,240.17,99.14z"/>
<path fill="#FFFFFF" d="M254.42,99.15c0,2.55-1.47,4.23-3.9,4.23c-2.42,0-3.9-1.56-3.9-4.24c0-2.55,1.47-4.23,3.9-4.23
S254.42,96.47,254.42,99.15z M249.08,99.14c0,1.77,0.48,2.5,1.44,2.5s1.44-0.76,1.44-2.49c0-1.77-0.48-2.51-1.44-2.51
S249.08,97.41,249.08,99.14z"/>
<path fill="#FFFFFF" d="M260.98,102.75c-0.6,0.42-1.44,0.63-2.16,0.63c-1.75-0.02-2.61-1-2.61-2.88v-3.69h-1.12v-1.65h1.12v-1.72
l2.37-0.27v1.99h1.83l-0.25,1.65h-1.58v3.66c0,0.76,0.26,1.03,0.75,1.03c0.27,0,0.54-0.08,0.86-0.27L260.98,102.75z"/>
<path fill="#FFFFFF" d="M269.39,99.12c0,2.46-1.2,4.26-3.17,4.26c-0.78,0-1.44-0.27-1.93-0.84v3.66l-2.37,0.26V95.16h2.08
l0.12,0.89c0.66-0.83,1.51-1.14,2.25-1.14C268.48,94.91,269.39,96.54,269.39,99.12z M266.93,99.15c0-1.98-0.48-2.51-1.3-2.51
c-0.51,0-0.99,0.35-1.33,0.93v3.36c0.33,0.48,0.72,0.7,1.21,0.7C266.39,101.64,266.93,100.94,266.93,99.15z"/>
<path fill="#FFFFFF" d="M276.14,95.04l-0.38,2.29c-0.25-0.06-0.45-0.1-0.72-0.1c-0.98,0-1.4,0.72-1.65,1.92v3.97h-2.37v-7.96h2.07
l0.2,1.53c0.36-1.1,1.14-1.75,2.05-1.75C275.65,94.94,275.89,94.97,276.14,95.04z"/>
<path fill="#FFFFFF" d="M279.77,92.31c0,0.76-0.58,1.35-1.41,1.35c-0.82,0-1.39-0.58-1.39-1.35c0-0.77,0.57-1.35,1.39-1.35
C279.19,90.96,279.77,91.55,279.77,92.31z M279.56,103.13h-2.37v-7.96h2.37V103.13z"/>
<path fill="#FFFFFF" d="M288.44,97.31v5.82h-2.37v-5.41c0-0.84-0.29-1.07-0.75-1.07c-0.52,0-0.96,0.38-1.38,1.04v5.44h-2.37v-7.96
h2.07l0.17,0.95c0.67-0.78,1.44-1.2,2.43-1.2C287.61,94.91,288.44,95.79,288.44,97.31z"/>
<path fill="#FFFFFF" d="M295.37,102.75c-0.6,0.42-1.44,0.63-2.16,0.63c-1.75-0.02-2.61-1-2.61-2.88v-3.69h-1.12v-1.65h1.12v-1.72
l2.37-0.27v1.99h1.83l-0.25,1.65h-1.58v3.66c0,0.76,0.26,1.03,0.75,1.03c0.27,0,0.54-0.08,0.86-0.27L295.37,102.75z"/>
<path fill="#FFFFFF" d="M235.51,166.89v0.62h1.88l-0.25,1.65h-1.62v6.32h-2.37v-6.32h-1.2v-1.65h1.2v-0.71
c0-1.53,1-2.71,3.04-2.71c0.82,0,1.59,0.21,2.17,0.51l-0.65,1.54c-0.45-0.22-0.9-0.3-1.25-0.3
C235.78,165.84,235.51,166.14,235.51,166.89z"/>
<path fill="#FFFFFF" d="M245.51,171.5c0,2.55-1.47,4.23-3.9,4.23c-2.42,0-3.9-1.56-3.9-4.25c0-2.55,1.47-4.23,3.9-4.23
C244.04,167.25,245.51,168.81,245.51,171.5z M240.17,171.48c0,1.77,0.48,2.5,1.44,2.5s1.44-0.76,1.44-2.49
c0-1.77-0.48-2.51-1.44-2.51S240.17,169.76,240.17,171.48z"/>
<path fill="#FFFFFF" d="M254.42,171.5c0,2.55-1.47,4.23-3.9,4.23c-2.42,0-3.9-1.56-3.9-4.25c0-2.55,1.47-4.23,3.9-4.23
S254.42,168.81,254.42,171.5z M249.08,171.48c0,1.77,0.48,2.5,1.44,2.5s1.44-0.76,1.44-2.49c0-1.77-0.48-2.51-1.44-2.51
S249.08,169.76,249.08,171.48z"/>
<path fill="#FFFFFF" d="M260.98,175.1c-0.6,0.42-1.44,0.63-2.16,0.63c-1.75-0.02-2.61-1-2.61-2.88v-3.69h-1.12v-1.65h1.12v-1.72
l2.37-0.27v2h1.83l-0.25,1.65h-1.58v3.66c0,0.76,0.26,1.04,0.75,1.04c0.27,0,0.54-0.08,0.86-0.27L260.98,175.1z"/>
<path fill="#FFFFFF" d="M269.39,171.47c0,2.46-1.2,4.26-3.17,4.26c-0.78,0-1.44-0.27-1.93-0.84v3.66l-2.37,0.26v-11.29h2.08
l0.12,0.88c0.66-0.83,1.51-1.14,2.25-1.14C268.48,167.25,269.39,168.89,269.39,171.47z M266.93,171.5c0-1.98-0.48-2.51-1.3-2.51
c-0.51,0-0.99,0.35-1.33,0.93v3.36c0.33,0.48,0.72,0.71,1.21,0.71C266.39,173.99,266.93,173.28,266.93,171.5z"/>
<path fill="#FFFFFF" d="M276.14,167.39l-0.38,2.29c-0.25-0.06-0.45-0.1-0.72-0.1c-0.98,0-1.4,0.72-1.65,1.92v3.97h-2.37v-7.96
h2.07l0.2,1.53c0.36-1.1,1.14-1.75,2.05-1.75C275.65,167.28,275.89,167.31,276.14,167.39z"/>
<path fill="#FFFFFF" d="M279.77,164.66c0,0.76-0.58,1.35-1.41,1.35c-0.82,0-1.39-0.58-1.39-1.35c0-0.77,0.57-1.35,1.39-1.35
C279.19,163.31,279.77,163.89,279.77,164.66z M279.56,175.47h-2.37v-7.96h2.37V175.47z"/>
<path fill="#FFFFFF" d="M288.44,169.65v5.82h-2.37v-5.42c0-0.84-0.29-1.07-0.75-1.07c-0.52,0-0.96,0.38-1.38,1.04v5.45h-2.37
v-7.96h2.07l0.17,0.95c0.67-0.78,1.44-1.2,2.43-1.2C287.61,167.25,288.44,168.14,288.44,169.65z"/>
<path fill="#FFFFFF" d="M295.37,175.1c-0.6,0.42-1.44,0.63-2.16,0.63c-1.75-0.02-2.61-1-2.61-2.88v-3.69h-1.12v-1.65h1.12v-1.72
l2.37-0.27v2h1.83l-0.25,1.65h-1.58v3.66c0,0.76,0.26,1.04,0.75,1.04c0.27,0,0.54-0.08,0.86-0.27L295.37,175.1z"/>
</svg>
