<?xml version="1.0" encoding="utf-8"?>
<svg version="1.1" xmlns="http://www.w3.org/2000/svg" width="640" height="200">
<line fill="none" stroke="#808080" stroke-width="1.25" x1="128.97" y1="100" x2="381.03" y2="100"/>
<polygon fill="#808080" points="130.79,106.23 120,100 130.79,93.77"/>
<polygon fill="#808080" points="379.21,106.23 390,100 379.21,93.77"/>
<path fill="none" stroke="#808080" stroke-width="1.25" d="M531.03,29.96L285,29
c0,0-122.24-2.75-178.19,35.57"/>
<polygon fill="#808080" points="529.23,23.73 540,30 529.18,36.19"/>
<polygon fill="#808080" points="104.63,58.57 99.67,70 112.05,68.58"/>
<path fill="none" stroke="#808080" stroke-width="1.25" d="M531.03,170.04
L285,171c0,0-122.24,2.75-178.19-35.57"/>
<polygon fill="#808080" points="529.18,163.81 540,170 529.23,176.27"/>
<polygon fill="#808080" points="112.05,131.42 99.67,130 104.63,141.43"/>
<path fill="#3A2D72" d="M250,88V70h-18c0,6.63-5.37,12-12,12c-6.63,0-12-5.37-12-12h-18v60h60v-18c6.63,0,12-5.37,12-12
C262,93.37,256.63,88,250,88z"/>
<path fill="#FFFFFF" d="M206.97,92.2l-0.87,1.33c-0.61-0.39-1.27-0.61-1.96-0.61c-0.65,0-0.96,0.24-0.96,0.6
c0,0.42,0.21,0.6,1.64,1.02c1.57,0.45,2.46,1.11,2.46,2.54c0,1.65-1.56,2.62-3.54,2.62c-1.38,0-2.55-0.48-3.33-1.18l1.16-1.29
c0.6,0.46,1.33,0.78,2.11,0.78c0.72,0,1.15-0.27,1.15-0.75c0-0.54-0.24-0.71-1.68-1.11c-1.58-0.45-2.35-1.26-2.35-2.49
c0-1.36,1.25-2.43,3.25-2.43C205.2,91.22,206.24,91.6,206.97,92.2z"/>
<path fill="#FFFFFF" d="M215.51,93.62v5.82h-2.37v-5.42c0-0.84-0.3-1.06-0.75-1.06c-0.52,0-0.96,0.38-1.38,1.02v5.46h-2.37V88.31
l2.37-0.24v4.24c0.65-0.72,1.37-1.09,2.29-1.09C214.68,91.22,215.51,92.11,215.51,93.62z"/>
<path fill="#FFFFFF" d="M224.31,98.11l-0.5,1.54c-0.93-0.08-1.54-0.36-1.92-1.14c-0.57,0.87-1.46,1.18-2.4,1.18
c-1.59,0-2.59-1.04-2.59-2.49c0-1.74,1.32-2.68,3.73-2.68h0.81v-0.34c0-0.95-0.37-1.23-1.35-1.23c-0.51,0-1.29,0.15-2.08,0.42
l-0.54-1.56c1-0.38,2.1-0.58,3-0.58c2.31,0,3.3,0.97,3.3,2.82v3.09C223.77,97.75,223.94,97.97,224.31,98.11z M221.45,97.25v-1.43
h-0.58c-1.08,0-1.6,0.38-1.6,1.17c0,0.63,0.34,1,0.93,1C220.73,98,221.16,97.72,221.45,97.25z"/>
<path fill="#FFFFFF" d="M233.28,95.44c0,2.46-1.2,4.26-3.16,4.26c-0.78,0-1.44-0.27-1.94-0.84v3.66l-2.37,0.25V91.48h2.08
l0.12,0.88c0.66-0.82,1.52-1.14,2.25-1.14C232.37,91.22,233.28,92.86,233.28,95.44z M230.82,95.47c0-1.98-0.48-2.5-1.31-2.5
c-0.51,0-0.99,0.34-1.33,0.93v3.36c0.33,0.48,0.72,0.7,1.21,0.7C230.28,97.96,230.82,97.25,230.82,95.47z"/>
<path fill="#FFFFFF" d="M241.82,96.16h-4.92c0.15,1.42,0.83,1.82,1.8,1.82c0.65,0,1.21-0.23,1.91-0.71l0.97,1.32
c-0.79,0.63-1.81,1.11-3.1,1.11c-2.65,0-4-1.71-4-4.2c0-2.38,1.31-4.27,3.72-4.27c2.28,0,3.67,1.5,3.67,4.08
C241.86,95.56,241.85,95.92,241.82,96.16z M239.54,94.63c-0.01-1.08-0.34-1.83-1.29-1.83c-0.79,0-1.25,0.5-1.37,1.93h2.65V94.63z"/>
<path fill="#FFFFFF" d="M224.9,112.02c0,2.12-1.54,3.42-4.4,3.42h-2.97l1.46-10.39h2.76c2.11,0,3.46,0.74,3.46,2.34
c0,1.46-1,2.26-2.19,2.56C224.06,110.16,224.9,110.72,224.9,112.02z M222.54,111.9c0-0.76-0.42-1.09-1.25-1.09h-0.81l-0.41,2.92
h0.66C222.12,113.73,222.54,112.86,222.54,111.9z M222.86,107.61c0-0.63-0.39-0.9-1.09-0.9h-0.71l-0.35,2.52h0.65
C222.36,109.23,222.86,108.59,222.86,107.61z"/>
<path fill="#3A2D72" d="M326.5,140c0,6.63-5.37,12-12,12c-6.63,0-12-5.37-12-12h-18v18c-6.63,0-12,5.37-12,12c0,6.63,5.37,12,12,12
v18h18c0-6.63,5.37-12,12-12c6.63,0,12,5.37,12,12h18v-60H326.5z"/>
<path fill="#FFFFFF" d="M300.97,159.2l-0.87,1.33c-0.61-0.39-1.27-0.61-1.96-0.61c-0.65,0-0.96,0.24-0.96,0.6
c0,0.42,0.21,0.6,1.64,1.02c1.57,0.45,2.46,1.11,2.46,2.54c0,1.65-1.56,2.62-3.54,2.62c-1.38,0-2.55-0.48-3.33-1.18l1.16-1.29
c0.6,0.46,1.33,0.78,2.11,0.78c0.72,0,1.15-0.27,1.15-0.75c0-0.54-0.24-0.71-1.68-1.11c-1.58-0.45-2.35-1.26-2.35-2.49
c0-1.36,1.25-2.43,3.25-2.43C299.2,158.22,300.24,158.6,300.97,159.2z"/>
<path fill="#FFFFFF" d="M309.51,160.62v5.82h-2.37v-5.42c0-0.84-0.3-1.06-0.75-1.06c-0.52,0-0.96,0.38-1.38,1.02v5.46h-2.37
v-11.13l2.37-0.24v4.24c0.65-0.72,1.37-1.09,2.29-1.09C308.68,158.22,309.51,159.11,309.51,160.62z"/>
<path fill="#FFFFFF" d="M318.31,165.11l-0.5,1.54c-0.93-0.08-1.54-0.36-1.92-1.14c-0.57,0.87-1.46,1.18-2.4,1.18
c-1.59,0-2.59-1.04-2.59-2.49c0-1.74,1.32-2.68,3.73-2.68h0.81v-0.34c0-0.95-0.37-1.23-1.35-1.23c-0.51,0-1.29,0.15-2.08,0.42
l-0.54-1.56c1-0.38,2.1-0.58,3-0.58c2.31,0,3.3,0.97,3.3,2.82v3.09C317.77,164.75,317.94,164.97,318.31,165.11z M315.45,164.25
v-1.43h-0.58c-1.08,0-1.6,0.38-1.6,1.17c0,0.63,0.34,1,0.93,1C314.73,165,315.16,164.72,315.45,164.25z"/>
<path fill="#FFFFFF" d="M327.28,162.44c0,2.46-1.2,4.26-3.16,4.26c-0.78,0-1.44-0.27-1.94-0.84v3.66l-2.37,0.25v-11.29h2.08
l0.12,0.88c0.66-0.82,1.52-1.14,2.25-1.14C326.37,158.22,327.28,159.86,327.28,162.44z M324.82,162.47c0-1.98-0.48-2.5-1.31-2.5
c-0.51,0-0.99,0.34-1.33,0.93v3.36c0.33,0.48,0.72,0.7,1.21,0.7C324.28,164.96,324.82,164.25,324.82,162.47z"/>
<path fill="#FFFFFF" d="M335.82,163.16h-4.92c0.15,1.42,0.83,1.82,1.8,1.82c0.65,0,1.21-0.23,1.91-0.71l0.97,1.32
c-0.79,0.63-1.81,1.11-3.1,1.11c-2.65,0-4-1.71-4-4.2c0-2.38,1.31-4.27,3.72-4.27c2.28,0,3.67,1.5,3.67,4.08
C335.86,162.56,335.85,162.92,335.82,163.16z M333.54,161.63c-0.01-1.08-0.34-1.83-1.29-1.83c-0.79,0-1.25,0.5-1.37,1.93h2.65
V161.63z"/>
<path fill="#FFFFFF" d="M319.68,172.96l-1.25,1.25c-0.42-0.42-0.85-0.67-1.41-0.67c-1.91,0-2.54,3.07-2.54,5.25
c0,1.5,0.52,2.1,1.4,2.1c0.67,0,1.21-0.38,1.8-0.81l0.87,1.33c-0.73,0.67-1.79,1.29-3.1,1.29c-1.99,0-3.36-1.33-3.36-4.04
c0-3.42,1.53-6.87,4.94-6.87C318.19,171.79,319.03,172.25,319.68,172.96z"/>
<path fill="#3A2D72" d="M345,18V0h-18c0,6.63-5.37,12-12,12c-6.63,0-12-5.37-12-12h-18v18v42h18c0,6.63,5.37,12,12,12
c6.63,0,12-5.37,12-12h18V42c6.63,0,12-5.37,12-12C357,23.37,351.63,18,345,18z"/>
<path fill="#FFFFFF" d="M301.97,24.2l-0.87,1.33c-0.61-0.39-1.27-0.61-1.96-0.61c-0.65,0-0.96,0.24-0.96,0.6
c0,0.42,0.21,0.6,1.64,1.02c1.57,0.45,2.46,1.11,2.46,2.54c0,1.65-1.56,2.62-3.54,2.62c-1.38,0-2.55-0.48-3.33-1.18l1.16-1.29
c0.6,0.46,1.33,0.78,2.11,0.78c0.72,0,1.15-0.27,1.15-0.75c0-0.54-0.24-0.71-1.68-1.11c-1.58-0.45-2.35-1.26-2.35-2.49
c0-1.36,1.25-2.43,3.25-2.43C300.2,23.22,301.24,23.6,301.97,24.2z"/>
<path fill="#FFFFFF" d="M310.51,25.62v5.82h-2.37v-5.42c0-0.84-0.3-1.06-0.75-1.06c-0.52,0-0.96,0.38-1.38,1.02v5.46h-2.37V20.31
l2.37-0.24v4.24c0.65-0.72,1.37-1.09,2.29-1.09C309.68,23.22,310.51,24.11,310.51,25.62z"/>
<path fill="#FFFFFF" d="M319.31,30.11l-0.5,1.54c-0.93-0.08-1.54-0.36-1.92-1.14c-0.57,0.87-1.46,1.18-2.4,1.18
c-1.59,0-2.59-1.04-2.59-2.49c0-1.74,1.32-2.68,3.73-2.68h0.81v-0.34c0-0.95-0.37-1.23-1.35-1.23c-0.51,0-1.29,0.15-2.08,0.42
l-0.54-1.56c1-0.38,2.1-0.58,3-0.58c2.31,0,3.3,0.97,3.3,2.82v3.09C318.77,29.75,318.94,29.97,319.31,30.11z M316.45,29.25v-1.43
h-0.58c-1.08,0-1.6,0.38-1.6,1.17c0,0.63,0.34,1,0.93,1C315.73,30,316.16,29.72,316.45,29.25z"/>
<path fill="#FFFFFF" d="M328.28,27.44c0,2.46-1.2,4.26-3.16,4.26c-0.78,0-1.44-0.27-1.94-0.84v3.66l-2.37,0.25V23.48h2.08
l0.12,0.88c0.66-0.82,1.52-1.14,2.25-1.14C327.37,23.22,328.28,24.86,328.28,27.44z M325.82,27.47c0-1.98-0.48-2.5-1.31-2.5
c-0.51,0-0.99,0.34-1.33,0.93v3.36c0.33,0.48,0.72,0.7,1.21,0.7C325.28,29.96,325.82,29.25,325.82,27.47z"/>
<path fill="#FFFFFF" d="M336.82,28.16h-4.92c0.15,1.42,0.83,1.82,1.8,1.82c0.65,0,1.21-0.23,1.91-0.71l0.97,1.32
c-0.79,0.63-1.81,1.11-3.1,1.11c-2.65,0-4-1.71-4-4.2c0-2.38,1.31-4.27,3.72-4.27c2.28,0,3.67,1.5,3.67,4.08
C336.86,27.56,336.85,27.92,336.82,28.16z M334.54,26.63c-0.01-1.08-0.34-1.83-1.29-1.83c-0.79,0-1.25,0.5-1.37,1.93h2.65V26.63z"/>
<path fill="#FFFFFF" d="M317.26,45.16h-2.4l-0.74,2.28h-2.38l4.06-10.39h2.79l1.15,10.39h-2.37L317.26,45.16z M317.17,43.47
l-0.24-4.83l-1.53,4.83H317.17z"/>
<path fill="#3D2C70" d="M540,40c0,11.05,8.95,20,20,20h60c11.05,0,20-8.95,20-20V20c0-11.05-8.95-20-20-20h-60
c-11.05,0-20,8.95-20,20V40z"/>
<path fill="#FFFFFF" d="M578.28,32.11l-0.5,1.54c-0.93-0.08-1.54-0.36-1.92-1.14c-0.57,0.87-1.46,1.19-2.4,1.19
c-1.59,0-2.6-1.03-2.6-2.49c0-1.74,1.32-2.69,3.74-2.69h0.81v-0.34c0-0.95-0.38-1.23-1.35-1.23c-0.51,0-1.29,0.15-2.08,0.42
l-0.54-1.56c1-0.38,2.1-0.58,3-0.58c2.31,0,3.3,0.98,3.3,2.82v3.09C577.74,31.75,577.9,31.97,578.28,32.11z M575.41,31.25v-1.42
h-0.58c-1.08,0-1.6,0.38-1.6,1.17c0,0.63,0.34,1,0.93,1C574.69,32,575.13,31.72,575.41,31.25z"/>
<path fill="#FFFFFF" d="M587.25,29.44c0,2.46-1.2,4.26-3.17,4.26c-0.78,0-1.44-0.27-1.93-0.84v3.66l-2.37,0.26V25.48h2.08
l0.12,0.89c0.66-0.83,1.51-1.14,2.25-1.14C586.33,25.22,587.25,26.86,587.25,29.44z M584.79,29.47c0-1.98-0.48-2.5-1.3-2.5
c-0.51,0-0.99,0.34-1.33,0.93v3.36c0.33,0.48,0.72,0.71,1.21,0.71C584.25,31.96,584.79,31.25,584.79,29.47z"/>
<path fill="#FFFFFF" d="M596.35,29.44c0,2.46-1.2,4.26-3.17,4.26c-0.78,0-1.44-0.27-1.93-0.84v3.66l-2.37,0.26V25.48h2.08
l0.12,0.89c0.66-0.83,1.51-1.14,2.25-1.14C595.44,25.22,596.35,26.86,596.35,29.44z M593.89,29.47c0-1.98-0.48-2.5-1.3-2.5
c-0.51,0-0.99,0.34-1.33,0.93v3.36c0.33,0.48,0.72,0.71,1.21,0.71C593.35,31.96,593.89,31.25,593.89,29.47z"/>
<path fill="#FFFFFF" d="M606.49,33.44h-2.32v-7.83l-2.18,1.33l-1.03-1.58l3.42-2.07h2.11V33.44z"/>
<path fill="#3D2C70" d="M540,180c0,11.05,8.95,20,20,20h60c11.05,0,20-8.95,20-20v-20c0-11.05-8.95-20-20-20h-60
c-11.05,0-20,8.95-20,20V180z"/>
<path fill="#FFFFFF" d="M577.86,172.11l-0.5,1.54c-0.93-0.08-1.54-0.36-1.92-1.14c-0.57,0.87-1.46,1.19-2.4,1.19
c-1.59,0-2.6-1.04-2.6-2.49c0-1.74,1.32-2.68,3.74-2.68h0.81v-0.34c0-0.95-0.38-1.23-1.35-1.23c-0.51,0-1.29,0.15-2.08,0.42
l-0.54-1.56c1-0.38,2.1-0.58,3-0.58c2.31,0,3.3,0.97,3.3,2.82v3.09C577.32,171.75,577.48,171.97,577.86,172.11z M574.99,171.25
v-1.42h-0.58c-1.08,0-1.6,0.38-1.6,1.17c0,0.63,0.34,1,0.93,1C574.27,172,574.71,171.72,574.99,171.25z"/>
<path fill="#FFFFFF" d="M586.83,169.44c0,2.46-1.2,4.26-3.17,4.26c-0.78,0-1.44-0.27-1.93-0.84v3.66l-2.37,0.25v-11.29h2.08
l0.12,0.89c0.66-0.83,1.51-1.14,2.25-1.14C585.91,165.22,586.83,166.86,586.83,169.44z M584.37,169.47c0-1.98-0.48-2.5-1.3-2.5
c-0.51,0-0.99,0.34-1.33,0.93v3.36c0.33,0.48,0.72,0.71,1.21,0.71C583.83,171.96,584.37,171.25,584.37,169.47z"/>
<path fill="#FFFFFF" d="M595.93,169.44c0,2.46-1.2,4.26-3.17,4.26c-0.78,0-1.44-0.27-1.93-0.84v3.66l-2.37,0.25v-11.29h2.08
l0.12,0.89c0.66-0.83,1.51-1.14,2.25-1.14C595.02,165.22,595.93,166.86,595.93,169.44z M593.47,169.47c0-1.98-0.48-2.5-1.3-2.5
c-0.51,0-0.99,0.34-1.33,0.93v3.36c0.33,0.48,0.72,0.71,1.21,0.71C592.93,171.96,593.47,171.25,593.47,169.47z"/>
<path fill="#FFFFFF" d="M607.3,165.67c0,1.23-0.74,2.05-1.98,2.42c1.26,0.13,2.31,0.88,2.31,2.49c0,1.69-1.37,3.12-3.87,3.12
c-1.53,0-2.68-0.57-3.48-1.53l1.27-1.25c0.67,0.68,1.28,0.98,2.07,0.98c0.93,0,1.57-0.54,1.57-1.47c0-1.07-0.58-1.46-1.65-1.46
h-0.84l0.25-1.63h0.58c0.9,0,1.46-0.48,1.46-1.32c0-0.73-0.53-1.17-1.35-1.17c-0.75,0-1.38,0.3-1.98,0.88l-1.17-1.28
c0.95-0.9,2.07-1.36,3.42-1.36C606.12,163.09,607.3,164.25,607.3,165.67z"/>
<path fill="#3D2C70" d="M390,110c0,11.05,8.95,20,20,20h60c11.05,0,20-8.95,20-20V90c0-11.05-8.95-20-20-20h-60
c-11.05,0-20,8.95-20,20V110z"/>
<path fill="#FFFFFF" d="M427.88,102.11l-0.5,1.54c-0.93-0.08-1.54-0.36-1.92-1.14c-0.57,0.87-1.46,1.18-2.4,1.18
c-1.59,0-2.6-1.03-2.6-2.49c0-1.74,1.32-2.69,3.74-2.69h0.81v-0.34c0-0.95-0.38-1.23-1.35-1.23c-0.51,0-1.29,0.15-2.08,0.42
l-0.54-1.56c1-0.38,2.1-0.58,3-0.58c2.31,0,3.3,0.98,3.3,2.82v3.09C427.34,101.75,427.5,101.97,427.88,102.11z M425.01,101.25
v-1.43h-0.58c-1.08,0-1.6,0.38-1.6,1.17c0,0.63,0.34,1.01,0.93,1.01C424.29,102,424.73,101.72,425.01,101.25z"/>
<path fill="#FFFFFF" d="M436.85,99.44c0,2.46-1.2,4.26-3.17,4.26c-0.78,0-1.44-0.27-1.93-0.84v3.66l-2.37,0.25V95.48h2.08
l0.12,0.89c0.66-0.83,1.51-1.14,2.25-1.14C435.93,95.22,436.85,96.86,436.85,99.44z M434.39,99.47c0-1.98-0.48-2.5-1.3-2.5
c-0.51,0-0.99,0.34-1.33,0.93v3.36c0.33,0.48,0.72,0.71,1.21,0.71C433.85,101.96,434.39,101.25,434.39,99.47z"/>
<path fill="#FFFFFF" d="M445.95,99.44c0,2.46-1.2,4.26-3.17,4.26c-0.78,0-1.44-0.27-1.93-0.84v3.66l-2.37,0.25V95.48h2.08
l0.12,0.89c0.66-0.83,1.51-1.14,2.25-1.14C445.04,95.22,445.95,96.86,445.95,99.44z M443.49,99.47c0-1.98-0.48-2.5-1.3-2.5
c-0.51,0-0.99,0.34-1.33,0.93v3.36c0.33,0.48,0.72,0.71,1.21,0.71C442.95,101.96,443.49,101.25,443.49,99.47z"/>
<path fill="#FFFFFF" d="M457.43,95.99c0,1.57-0.78,2.76-3.94,5.64h4.15l-0.24,1.81h-6.6v-1.68c3.41-3.36,4.2-4.27,4.2-5.54
c0-0.82-0.51-1.32-1.3-1.32c-0.74,0-1.25,0.33-1.83,1.05l-1.41-1.11c0.81-1.06,1.96-1.75,3.48-1.75
C456.2,93.09,457.43,94.41,457.43,95.99z"/>
<ellipse fill="#D8D5E3" cx="60" cy="100" rx="58.5" ry="38.5"/>
<path fill="#3A2D72" d="M60,63c31.43,0,57,16.6,57,37s-25.57,37-57,37c-31.43,0-57-16.6-57-37S28.57,63,60,63 M60,60
C26.86,60,0,77.91,0,100s26.86,40,60,40c33.14,0,60-17.91,60-40S93.14,60,60,60L60,60z"/>
<path fill="#3D2C70" d="M38.51,92.96l-1.56,11.14h-2.32l0.01-1.08c-0.5,0.71-1.26,1.35-2.35,1.35c-1.71,0-2.5-1.21-2.5-3.22
c0-2.2,1.02-5.31,3.94-5.31c0.66,0,1.26,0.27,1.67,0.71l0.54-3.85L38.51,92.96z M32.48,101.15c0,1.05,0.33,1.3,0.75,1.3
c0.57,0,1.1-0.67,1.52-1.36l0.4-2.85c-0.25-0.33-0.51-0.48-0.93-0.48C32.86,97.76,32.48,99.89,32.48,101.15z"/>
<path fill="#3D2C70" d="M46.63,96.72l-0.72,4.95c-0.01,0.13-0.03,0.24-0.03,0.34c0,0.34,0.12,0.5,0.39,0.6l-0.75,1.71
c-0.92-0.06-1.71-0.46-1.98-1.32c-0.54,0.79-1.29,1.36-2.35,1.36c-1.75,0-2.64-1.24-2.64-3.21c0-2.31,1.23-5.32,4.68-5.32
C44.32,95.84,45.53,96.09,46.63,96.72z M41.24,101.16c0,1.05,0.36,1.29,0.79,1.29c0.46,0,0.92-0.36,1.32-1l0.54-3.63
c-0.27-0.09-0.46-0.12-0.77-0.12C41.72,97.7,41.24,99.68,41.24,101.16z"/>
<path fill="#3D2C70" d="M51.65,102.03l0.67,1.74c-0.69,0.41-1.61,0.6-2.31,0.6c-1.86,0-2.59-1.08-2.32-3.07l0.48-3.36h-1.02
l0.24-1.83h1.14l0.5-1.74l2.29-0.27l-0.29,2.01h1.79l-0.51,1.83H50.8l-0.46,3.36c-0.12,0.76,0.08,0.97,0.48,0.97
C51.08,102.27,51.35,102.2,51.65,102.03z"/>
<path fill="#3D2C70" d="M60.82,96.72l-0.72,4.95c-0.01,0.13-0.03,0.24-0.03,0.34c0,0.34,0.12,0.5,0.39,0.6l-0.75,1.71
c-0.92-0.06-1.71-0.46-1.98-1.32c-0.54,0.79-1.29,1.36-2.35,1.36c-1.75,0-2.64-1.24-2.64-3.21c0-2.31,1.23-5.32,4.68-5.32
C58.51,95.84,59.72,96.09,60.82,96.72z M55.43,101.16c0,1.05,0.36,1.29,0.79,1.29c0.46,0,0.92-0.36,1.32-1l0.54-3.63
c-0.27-0.09-0.46-0.12-0.77-0.12C55.91,97.7,55.43,99.68,55.43,101.16z"/>
<path fill="#3D2C70" d="M72.79,98.94c0,2.31-1.05,5.43-4.25,5.43c-0.71,0-1.14-0.1-1.41-0.21l-0.45,3.03l-2.62,0.29l1.59-11.37
h2.32v0.86c0.81-0.84,1.64-1.12,2.34-1.12C71.96,95.84,72.79,96.96,72.79,98.94z M67.93,98.63l-0.52,3.66
c0.25,0.1,0.52,0.16,0.88,0.16c1.33,0,1.8-2.01,1.8-3.42c0-1.02-0.36-1.26-0.83-1.26C68.78,97.77,68.33,98.06,67.93,98.63z"/>
<path fill="#3D2C70" d="M81.41,99.26c-0.01,2.29-1.12,5.11-4.56,5.11c-2.16,0-3.42-1.27-3.42-3.42c0-2.31,1.12-5.12,4.54-5.12
C80.15,95.84,81.43,97.16,81.41,99.26z M76.12,101.1c0,0.96,0.3,1.33,0.94,1.33c1.42,0,1.65-2.2,1.67-3.33
c0.01-0.94-0.3-1.33-0.95-1.33C76.36,97.77,76.12,99.98,76.12,101.1z"/>
<path fill="#3D2C70" d="M90.82,92.96l-1.56,11.14h-2.32l0.01-1.08c-0.5,0.71-1.26,1.35-2.35,1.35c-1.71,0-2.5-1.21-2.5-3.22
c0-2.2,1.02-5.31,3.94-5.31c0.66,0,1.26,0.27,1.67,0.71l0.54-3.85L90.82,92.96z M84.79,101.15c0,1.05,0.33,1.3,0.75,1.3
c0.57,0,1.1-0.67,1.52-1.36l0.4-2.85c-0.25-0.33-0.51-0.48-0.93-0.48C85.16,97.76,84.79,99.89,84.79,101.15z"/>
</svg>
