<?xml version="1.0" encoding="utf-8"?>
<svg version="1.1" xmlns="http://www.w3.org/2000/svg" width="640" height="200">
<line fill="none" stroke="#808080" stroke-width="1.25" x1="128.97" y1="100" x2="340" y2="100"/>
<polygon fill="#808080" points="130.79,106.23 120,100 130.79,93.77"/>
<line fill="none" stroke="#808080" stroke-width="1.25" x1="371.25" y1="100" x2="472.15" y2="44.33"/>
<polygon fill="#808080" points="473.56,50.67 480,40 467.54,39.76"/>
<line fill="none" stroke="#808080" stroke-width="1.25" x1="371.25" y1="100" x2="472.16" y2="156.14"/>
<polygon fill="#808080" points="467.54,160.7 480,160.5 473.6,149.81"/>
<path fill="#C45814" d="M520,3.33h-33.33c-3.68,0-6.67,2.98-6.67,6.67v60h93.33V13.33h-46.67V10
C526.67,6.32,523.68,3.33,520,3.33z"/>
<rect x="496.67" y="34" fill="#E7BCA1" width="60" height="6"/>
<rect x="496.67" y="48" fill="#E7BCA1" width="40" height="6"/>
<path fill="#FFFFFF" d="M490.52,10.75v0.61h1.88l-0.26,1.65h-1.62v6.31h-2.37v-6.31h-1.2v-1.65h1.2v-0.7c0-1.53,1-2.72,3.04-2.72
c0.83,0,1.59,0.21,2.17,0.51L492.72,10c-0.45-0.23-0.9-0.3-1.24-0.3C490.79,9.7,490.52,10,490.52,10.75z"/>
<path fill="#FFFFFF" d="M500.52,15.36c0,2.55-1.47,4.23-3.9,4.23c-2.42,0-3.9-1.56-3.9-4.24c0-2.55,1.47-4.23,3.9-4.23
S500.52,12.67,500.52,15.36z M495.18,15.34c0,1.77,0.48,2.5,1.44,2.5s1.44-0.77,1.44-2.49c0-1.77-0.48-2.5-1.44-2.5
S495.18,13.62,495.18,15.34z"/>
<path fill="#FFFFFF" d="M507.2,11.25l-0.38,2.29c-0.25-0.06-0.45-0.1-0.72-0.1c-0.98,0-1.4,0.72-1.65,1.92v3.97h-2.37v-7.96h2.07
l0.2,1.53c0.36-1.1,1.14-1.75,2.05-1.75C506.7,11.14,506.94,11.17,507.2,11.25z"/>
<path fill="#FFFFFF" d="M519.13,13.51v5.82h-2.37v-5.41c0-0.84-0.31-1.06-0.67-1.06c-0.51,0-0.87,0.37-1.21,1.03v5.44h-2.37
v-5.41c0-0.84-0.31-1.06-0.67-1.06c-0.5,0-0.87,0.37-1.21,1.03v5.44h-2.37v-7.96h2.07l0.17,0.93c0.62-0.78,1.33-1.19,2.31-1.19
c0.88,0,1.56,0.45,1.88,1.26c0.63-0.82,1.37-1.26,2.38-1.26C518.28,11.11,519.13,12,519.13,13.51z"/>
<path fill="#FFFFFF" d="M565.7,64.05h-2.4l-0.74,2.28h-2.38l4.07-10.39h2.79l1.16,10.39h-2.37L565.7,64.05z M565.61,62.36
l-0.24-4.83l-1.53,4.83H565.61z"/>
<path fill="#C45814" d="M520,130h-33.33c-3.68,0-6.67,2.98-6.67,6.67v60h93.33V140h-46.67v-3.33
C526.67,132.98,523.68,130,520,130z"/>
<rect x="517" y="154" fill="#E7BCA1" width="40" height="4"/>
<path fill="#E7BCA1" d="M501.26,157.87h3.33v0.83h-3.33V157.87z"/>
<path fill="#E7BCA1" d="M504.4,157.87h3.33v0.83h-3.33V157.87z"/>
<path fill="#E7BCA1" d="M507.53,157.87h3.33v0.83h-3.33V157.87z"/>
<path fill="#E7BCA1" d="M513.25,154.76c0,0.33-0.27,0.6-0.6,0.6c-0.34,0-0.61-0.27-0.61-0.6s0.27-0.6,0.61-0.6
C512.98,154.16,513.25,154.44,513.25,154.76z M513.25,157.06c0,0.33-0.27,0.61-0.6,0.61c-0.34,0-0.61-0.27-0.61-0.61
c0-0.33,0.27-0.6,0.61-0.6C512.98,156.46,513.25,156.74,513.25,157.06z"/>
<rect x="517" y="182" fill="#E7BCA1" width="40" height="4"/>
<path fill="#E7BCA1" d="M495,185.87h3.33v0.83H495V185.87z"/>
<path fill="#E7BCA1" d="M498.13,185.87h3.33v0.83h-3.33V185.87z"/>
<path fill="#E7BCA1" d="M501.26,185.87h3.33v0.83h-3.33V185.87z"/>
<path fill="#E7BCA1" d="M504.4,185.87h3.33v0.83h-3.33V185.87z"/>
<path fill="#E7BCA1" d="M507.53,185.87h3.33v0.83h-3.33V185.87z"/>
<path fill="#E7BCA1" d="M513.25,182.76c0,0.33-0.27,0.6-0.6,0.6c-0.34,0-0.61-0.27-0.61-0.6s0.27-0.6,0.61-0.6
C512.98,182.16,513.25,182.43,513.25,182.76z M513.25,185.06c0,0.33-0.27,0.61-0.6,0.61c-0.34,0-0.61-0.27-0.61-0.61
c0-0.33,0.27-0.6,0.61-0.6C512.98,184.46,513.25,184.74,513.25,185.06z"/>
<rect x="517" y="163.33" fill="#E7BCA1" width="26.67" height="4"/>
<rect x="548.67" y="163.33" fill="#E7BCA1" width="8.33" height="4"/>
<path fill="#E7BCA1" d="M491.86,167.2h3.33v0.83h-3.33V167.2z"/>
<path fill="#E7BCA1" d="M495,167.2h3.33v0.83H495V167.2z"/>
<path fill="#E7BCA1" d="M498.13,167.2h3.33v0.83h-3.33V167.2z"/>
<path fill="#E7BCA1" d="M501.26,167.2h3.33v0.83h-3.33V167.2z"/>
<path fill="#E7BCA1" d="M504.4,167.2h3.33v0.83h-3.33V167.2z"/>
<path fill="#E7BCA1" d="M507.53,167.2h3.33v0.83h-3.33V167.2z"/>
<path fill="#E7BCA1" d="M513.24,164.09c0,0.33-0.27,0.6-0.6,0.6c-0.34,0-0.61-0.27-0.61-0.6s0.27-0.6,0.61-0.6
C512.98,163.49,513.24,163.77,513.24,164.09z M513.24,166.39c0,0.33-0.27,0.61-0.6,0.61c-0.34,0-0.61-0.27-0.61-0.61
c0-0.33,0.27-0.6,0.61-0.6C512.98,165.79,513.24,166.07,513.24,166.39z"/>
<path fill="#E7BCA1" d="M501.26,176.54h3.33v0.83h-3.33V176.54z"/>
<path fill="#E7BCA1" d="M504.4,176.54h3.33v0.83h-3.33V176.54z"/>
<path fill="#E7BCA1" d="M507.53,176.54h3.33v0.83h-3.33V176.54z"/>
<path fill="#E7BCA1" d="M513.25,173.43c0,0.33-0.27,0.6-0.6,0.6c-0.34,0-0.61-0.27-0.61-0.6s0.27-0.6,0.61-0.6
C512.98,172.83,513.25,173.1,513.25,173.43z M513.25,175.73c0,0.33-0.27,0.61-0.6,0.61c-0.34,0-0.61-0.27-0.61-0.61
c0-0.33,0.27-0.6,0.61-0.6C512.98,175.13,513.25,175.4,513.25,175.73z"/>
<path fill="#E7BCA1" d="M544.27,176.54h3.33v0.83h-3.33V176.54z"/>
<path fill="#E7BCA1" d="M547.4,176.54h3.33v0.83h-3.33V176.54z"/>
<path fill="#E7BCA1" d="M550.53,176.54h3.33v0.83h-3.33V176.54z"/>
<path fill="#E7BCA1" d="M553.67,176.54H557v0.83h-3.33V176.54z"/>
<circle fill="#E7BCA1" cx="541.12" cy="174.67" r="2"/>
<path fill="#E7BCA1" d="M522.15,176.54h3.33v0.83h-3.33V176.54z"/>
<path fill="#E7BCA1" d="M525.28,176.54h3.33v0.83h-3.33V176.54z"/>
<path fill="#E7BCA1" d="M528.42,176.54h3.33v0.83h-3.33V176.54z"/>
<path fill="#E7BCA1" d="M531.55,176.54h3.33v0.83h-3.33V176.54z"/>
<path fill="#E7BCA1" d="M519,172.67c-1.1,0-2,0.9-2,2c0,1.1,0.9,2,2,2s2-0.9,2-2C521,173.56,520.1,172.67,519,172.67z M519,176
c-0.74,0-1.33-0.6-1.33-1.33c0-0.74,0.6-1.33,1.33-1.33s1.33,0.6,1.33,1.33C520.33,175.4,519.74,176,519,176z"/>
<path fill="#FFFFFF" d="M490.51,138v0.61h1.88l-0.26,1.65h-1.62v6.31h-2.37v-6.31h-1.2v-1.65h1.2v-0.7c0-1.53,1-2.72,3.04-2.72
c0.83,0,1.59,0.21,2.17,0.51l-0.65,1.54c-0.45-0.23-0.9-0.3-1.24-0.3C490.78,136.95,490.51,137.25,490.51,138z"/>
<path fill="#FFFFFF" d="M500.52,142.61c0,2.55-1.47,4.23-3.9,4.23c-2.42,0-3.9-1.56-3.9-4.24c0-2.55,1.47-4.23,3.9-4.23
S500.52,139.92,500.52,142.61z M495.18,142.59c0,1.77,0.48,2.5,1.44,2.5s1.44-0.77,1.44-2.49c0-1.77-0.48-2.5-1.44-2.5
S495.18,140.87,495.18,142.59z"/>
<path fill="#FFFFFF" d="M507.19,138.5l-0.38,2.29c-0.25-0.06-0.45-0.11-0.72-0.11c-0.98,0-1.4,0.72-1.65,1.92v3.97h-2.37v-7.96
h2.07l0.2,1.53c0.36-1.09,1.14-1.75,2.05-1.75C506.7,138.39,506.94,138.42,507.19,138.5z"/>
<path fill="#FFFFFF" d="M519.13,140.76v5.82h-2.37v-5.41c0-0.84-0.31-1.07-0.67-1.07c-0.51,0-0.87,0.38-1.21,1.04v5.44h-2.37
v-5.41c0-0.84-0.31-1.07-0.67-1.07c-0.5,0-0.87,0.38-1.21,1.04v5.44h-2.37v-7.96h2.07l0.17,0.93c0.62-0.78,1.33-1.19,2.31-1.19
c0.88,0,1.56,0.45,1.88,1.26c0.63-0.82,1.37-1.26,2.38-1.26C518.28,138.36,519.13,139.25,519.13,140.76z"/>
<path fill="#FFFFFF" d="M568.29,189.91c0,2.12-1.54,3.42-4.39,3.42h-2.97l1.46-10.39h2.76c2.12,0,3.46,0.74,3.46,2.34
c0,1.46-1,2.27-2.19,2.57C567.45,188.05,568.29,188.61,568.29,189.91z M565.93,189.79c0-0.76-0.42-1.09-1.25-1.09h-0.81
l-0.41,2.92h0.66C565.51,191.62,565.93,190.75,565.93,189.79z M566.25,185.5c0-0.63-0.39-0.9-1.1-0.9h-0.71l-0.34,2.52h0.65
C565.75,187.12,566.25,186.48,566.25,185.5z"/>
<path fill="#3A2D72" d="M400,88V70h-18c0,6.63-5.37,12-12,12c-6.63,0-12-5.37-12-12h-18v60h60v-18c6.63,0,12-5.37,12-12
C412,93.37,406.63,88,400,88z"/>
<path fill="#FFFFFF" d="M356.97,96.2l-0.87,1.33c-0.62-0.39-1.28-0.61-1.96-0.61c-0.65,0-0.96,0.24-0.96,0.6
c0,0.42,0.21,0.6,1.63,1.02c1.58,0.45,2.46,1.11,2.46,2.54c0,1.65-1.56,2.62-3.54,2.62c-1.38,0-2.55-0.48-3.33-1.18l1.16-1.29
c0.6,0.46,1.33,0.78,2.12,0.78c0.72,0,1.15-0.27,1.15-0.75c0-0.54-0.24-0.71-1.68-1.11c-1.58-0.45-2.35-1.26-2.35-2.49
c0-1.36,1.25-2.43,3.25-2.43C355.2,95.22,356.24,95.6,356.97,96.2z"/>
<path fill="#FFFFFF" d="M365.51,97.62v5.82h-2.37v-5.42c0-0.84-0.3-1.06-0.75-1.06c-0.53,0-0.96,0.38-1.38,1.02v5.46h-2.37V92.31
l2.37-0.24v4.24c0.64-0.72,1.37-1.09,2.29-1.09C364.68,95.22,365.51,96.11,365.51,97.62z"/>
<path fill="#FFFFFF" d="M374.31,102.11l-0.5,1.54c-0.93-0.08-1.54-0.36-1.92-1.14c-0.57,0.87-1.46,1.18-2.4,1.18
c-1.59,0-2.59-1.04-2.59-2.49c0-1.74,1.32-2.68,3.74-2.68h0.81v-0.34c0-0.95-0.38-1.23-1.35-1.23c-0.51,0-1.29,0.15-2.08,0.42
l-0.54-1.56c1-0.38,2.1-0.58,3-0.58c2.31,0,3.3,0.97,3.3,2.82v3.09C373.77,101.75,373.94,101.97,374.31,102.11z M371.45,101.25
v-1.43h-0.58c-1.08,0-1.6,0.38-1.6,1.17c0,0.63,0.34,1,0.93,1C370.73,102,371.16,101.72,371.45,101.25z"/>
<path fill="#FFFFFF" d="M383.28,99.44c0,2.46-1.2,4.26-3.16,4.26c-0.78,0-1.44-0.27-1.94-0.84v3.66l-2.37,0.25V95.48h2.08
l0.12,0.88c0.66-0.82,1.52-1.14,2.25-1.14C382.37,95.22,383.28,96.86,383.28,99.44z M380.82,99.47c0-1.98-0.48-2.5-1.31-2.5
c-0.51,0-0.99,0.34-1.33,0.93v3.36c0.33,0.48,0.72,0.7,1.21,0.7C380.28,101.96,380.82,101.25,380.82,99.47z"/>
<path fill="#FFFFFF" d="M391.82,100.16h-4.92c0.15,1.42,0.83,1.82,1.8,1.82c0.65,0,1.21-0.23,1.91-0.71l0.97,1.32
c-0.79,0.63-1.81,1.11-3.1,1.11c-2.65,0-4-1.71-4-4.2c0-2.38,1.31-4.27,3.72-4.27c2.28,0,3.67,1.5,3.67,4.08
C391.86,99.56,391.85,99.92,391.82,100.16z M389.54,98.63c-0.01-1.08-0.34-1.83-1.29-1.83c-0.79,0-1.25,0.5-1.37,1.93h2.65V98.63z
"/>
<path fill="#3D2C70" d="M185,110c0,11.05,8.95,20,20,20h60c11.05,0,20-8.95,20-20V90c0-11.05-8.95-20-20-20h-60
c-11.05,0-20,8.95-20,20V110z"/>
<path fill="#FFFFFF" d="M228.68,102.11l-0.5,1.54c-0.93-0.08-1.54-0.36-1.92-1.14c-0.57,0.87-1.46,1.18-2.4,1.18
c-1.59,0-2.6-1.03-2.6-2.49c0-1.74,1.32-2.69,3.74-2.69h0.81v-0.34c0-0.95-0.38-1.23-1.35-1.23c-0.51,0-1.29,0.15-2.08,0.42
l-0.54-1.56c1-0.38,2.1-0.58,3-0.58c2.31,0,3.3,0.98,3.3,2.82v3.09C228.14,101.75,228.31,101.97,228.68,102.11z M225.82,101.25
v-1.43h-0.58c-1.08,0-1.6,0.38-1.6,1.17c0,0.63,0.34,1.01,0.93,1.01C225.1,102,225.53,101.72,225.82,101.25z"/>
<path fill="#FFFFFF" d="M237.65,99.44c0,2.46-1.2,4.26-3.17,4.26c-0.78,0-1.44-0.27-1.93-0.84v3.66l-2.37,0.25V95.48h2.08
l0.12,0.89c0.66-0.83,1.51-1.14,2.25-1.14C236.74,95.22,237.65,96.86,237.65,99.44z M235.19,99.47c0-1.98-0.48-2.5-1.3-2.5
c-0.51,0-0.99,0.34-1.33,0.93v3.36c0.33,0.48,0.72,0.71,1.21,0.71C234.65,101.96,235.19,101.25,235.19,99.47z"/>
<path fill="#FFFFFF" d="M246.76,99.44c0,2.46-1.2,4.26-3.17,4.26c-0.78,0-1.44-0.27-1.93-0.84v3.66l-2.37,0.25V95.48h2.08
l0.12,0.89c0.66-0.83,1.51-1.14,2.25-1.14C245.84,95.22,246.76,96.86,246.76,99.44z M244.3,99.47c0-1.98-0.48-2.5-1.3-2.5
c-0.51,0-0.99,0.34-1.33,0.93v3.36c0.33,0.48,0.72,0.71,1.21,0.71C243.76,101.96,244.3,101.25,244.3,99.47z"/>
<circle fill="#C45814" cx="614.94" cy="87.5" r="17.5"/>
<polygon fill="#C45814" points="624.38,99.96 605.62,100.04 590.14,130.11 640.14,129.89"/>
<ellipse fill="#D8D5E3" cx="60" cy="100" rx="58.5" ry="38.5"/>
<path fill="#3A2D72" d="M60,63c31.43,0,57,16.6,57,37s-25.57,37-57,37c-31.43,0-57-16.6-57-37S28.57,63,60,63 M60,60
C26.86,60,0,77.91,0,100s26.86,40,60,40c33.14,0,60-17.91,60-40S93.14,60,60,60L60,60z"/>
<path fill="#3D2C70" d="M38.51,92.96l-1.56,11.14h-2.32l0.01-1.08c-0.5,0.71-1.26,1.35-2.35,1.35c-1.71,0-2.5-1.21-2.5-3.22
c0-2.2,1.02-5.31,3.94-5.31c0.66,0,1.26,0.27,1.67,0.71l0.54-3.85L38.51,92.96z M32.48,101.15c0,1.05,0.33,1.3,0.75,1.3
c0.57,0,1.1-0.67,1.52-1.36l0.4-2.85c-0.25-0.33-0.51-0.48-0.93-0.48C32.86,97.76,32.48,99.89,32.48,101.15z"/>
<path fill="#3D2C70" d="M46.63,96.72l-0.72,4.95c-0.01,0.13-0.03,0.24-0.03,0.34c0,0.34,0.12,0.5,0.39,0.6l-0.75,1.71
c-0.92-0.06-1.71-0.46-1.98-1.32c-0.54,0.79-1.29,1.36-2.35,1.36c-1.75,0-2.64-1.24-2.64-3.21c0-2.31,1.23-5.32,4.68-5.32
C44.32,95.84,45.53,96.09,46.63,96.72z M41.24,101.16c0,1.05,0.36,1.29,0.79,1.29c0.46,0,0.92-0.36,1.32-1l0.54-3.63
c-0.27-0.09-0.46-0.12-0.77-0.12C41.72,97.7,41.24,99.68,41.24,101.16z"/>
<path fill="#3D2C70" d="M51.65,102.03l0.67,1.74c-0.69,0.41-1.61,0.6-2.31,0.6c-1.86,0-2.59-1.08-2.32-3.07l0.48-3.36h-1.02
l0.24-1.83h1.14l0.5-1.74l2.29-0.27l-0.29,2.01h1.79l-0.51,1.83H50.8l-0.46,3.36c-0.12,0.76,0.08,0.97,0.48,0.97
C51.08,102.27,51.35,102.2,51.65,102.03z"/>
<path fill="#3D2C70" d="M60.82,96.72l-0.72,4.95c-0.01,0.13-0.03,0.24-0.03,0.34c0,0.34,0.12,0.5,0.39,0.6l-0.75,1.71
c-0.92-0.06-1.71-0.46-1.98-1.32c-0.54,0.79-1.29,1.36-2.35,1.36c-1.75,0-2.64-1.24-2.64-3.21c0-2.31,1.23-5.32,4.68-5.32
C58.51,95.84,59.72,96.09,60.82,96.72z M55.43,101.16c0,1.05,0.36,1.29,0.79,1.29c0.46,0,0.92-0.36,1.32-1l0.54-3.63
c-0.27-0.09-0.46-0.12-0.77-0.12C55.91,97.7,55.43,99.68,55.43,101.16z"/>
<path fill="#3D2C70" d="M72.79,98.94c0,2.31-1.05,5.43-4.25,5.43c-0.71,0-1.14-0.1-1.41-0.21l-0.45,3.03l-2.62,0.29l1.59-11.37
h2.32v0.86c0.81-0.84,1.63-1.12,2.34-1.12C71.96,95.84,72.79,96.96,72.79,98.94z M67.93,98.63l-0.52,3.66
c0.25,0.1,0.52,0.16,0.88,0.16c1.33,0,1.8-2.01,1.8-3.42c0-1.02-0.36-1.26-0.83-1.26C68.78,97.77,68.33,98.06,67.93,98.63z"/>
<path fill="#3D2C70" d="M81.41,99.26c-0.01,2.29-1.12,5.11-4.56,5.11c-2.16,0-3.42-1.27-3.42-3.42c0-2.31,1.12-5.12,4.54-5.12
C80.15,95.84,81.43,97.16,81.41,99.26z M76.12,101.1c0,0.96,0.3,1.33,0.94,1.33c1.42,0,1.65-2.2,1.67-3.33
c0.01-0.94-0.3-1.33-0.95-1.33C76.36,97.77,76.12,99.98,76.12,101.1z"/>
<path fill="#3D2C70" d="M90.82,92.96l-1.56,11.14h-2.32l0.01-1.08c-0.5,0.71-1.26,1.35-2.35,1.35c-1.71,0-2.5-1.21-2.5-3.22
c0-2.2,1.02-5.31,3.94-5.31c0.66,0,1.26,0.27,1.67,0.71l0.54-3.85L90.82,92.96z M84.79,101.15c0,1.05,0.33,1.3,0.75,1.3
c0.57,0,1.1-0.67,1.52-1.36l0.4-2.85c-0.25-0.33-0.51-0.48-0.93-0.48C85.16,97.76,84.79,99.89,84.79,101.15z"/>
</svg>
