<?xml version="1.0" encoding="UTF-8" standalone="no"?>
<!DOCTYPE svg PUBLIC "-//W3C//DTD SVG 1.1//EN"
 "http://www.w3.org/Graphics/SVG/1.1/DTD/svg11.dtd">
<!-- Generated by graphviz version 2.38.0 (20140413.2041)
 -->
<!-- Title: %3 Pages: 1 -->
<svg width="2031pt" height="787pt"
 viewBox="0.00 0.00 2031.41 786.50" xmlns="http://www.w3.org/2000/svg" xmlns:xlink="http://www.w3.org/1999/xlink">
<g id="graph0" class="graph" transform="scale(1 1) rotate(0) translate(4 782.5)">
<title>%3</title>
<polygon fill="white" stroke="none" points="-4,4 -4,-782.5 2027.41,-782.5 2027.41,4 -4,4"/>
<text text-anchor="middle" x="1011.71" y="-67.8" font-family="Times,serif" font-size="14.00">Namespaces:</text>
<text text-anchor="middle" x="1011.71" y="-52.8" font-family="Times,serif" font-size="14.00">rdf: http://www.w3.org/1999/02/22&#45;rdf&#45;syntax&#45;ns#</text>
<text text-anchor="middle" x="1011.71" y="-37.8" font-family="Times,serif" font-size="14.00">rdfs: http://www.w3.org/2000/01/rdf&#45;schema#</text>
<text text-anchor="middle" x="1011.71" y="-22.8" font-family="Times,serif" font-size="14.00">schema: http://schema.org/</text>
<text text-anchor="middle" x="1011.71" y="-7.8" font-family="Times,serif" font-size="14.00">xml: http://www.w3.org/XML/1998/namespace</text>
<!-- Rschema:Book -->
<g id="node1" class="node"><title>Rschema:Book</title>
<ellipse fill="none" stroke="blue" cx="1544.22" cy="-724.5" rx="72.5877" ry="18"/>
<text text-anchor="middle" x="1544.22" y="-720.8" font-family="Times,serif" font-size="14.00">schema:Book</text>
</g>
<!-- Rrdfs:Class -->
<g id="node2" class="node"><title>Rrdfs:Class</title>
<ellipse fill="none" stroke="blue" cx="1965.57" cy="-724.5" rx="57.6901" ry="18"/>
<text text-anchor="middle" x="1965.57" y="-720.8" font-family="Times,serif" font-size="14.00">rdfs:Class</text>
</g>
<!-- Rschema:Book&#45;&gt;Rrdfs:Class -->
<g id="edge1" class="edge"><title>Rschema:Book&#45;&gt;Rrdfs:Class</title>
<path fill="none" stroke="black" d="M1617.31,-724.5C1695.97,-724.5 1820.9,-724.5 1897.51,-724.5"/>
<polygon fill="black" stroke="black" points="1897.53,-728 1907.53,-724.5 1897.53,-721 1897.53,-728"/>
<text text-anchor="middle" x="1860.72" y="-728.3" font-family="Times,serif" font-size="14.00">rdf:type</text>
</g>
<!-- Rhttp://worldcat.org/entity/work/id/2292573321 -->
<g id="node3" class="node"><title>Rhttp://worldcat.org/entity/work/id/2292573321</title>
<ellipse fill="none" stroke="blue" cx="228.13" cy="-301.5" rx="228.26" ry="18"/>
<text text-anchor="middle" x="228.13" y="-297.8" font-family="Times,serif" font-size="14.00">http://worldcat.org/entity/work/id/2292573321</text>
</g>
<!-- Rhttp://worldcat.org/entity/work/id/2292573321&#45;&gt;Rschema:Book -->
<g id="edge4" class="edge"><title>Rhttp://worldcat.org/entity/work/id/2292573321&#45;&gt;Rschema:Book</title>
<path fill="none" stroke="black" d="M240.678,-319.94C286.216,-390.495 461.841,-642.751 685.26,-710.5 966.94,-795.916 1324.9,-757.821 1473.59,-735.988"/>
<polygon fill="black" stroke="black" points="1474.13,-739.446 1483.51,-734.511 1473.1,-732.523 1474.13,-739.446"/>
<text text-anchor="middle" x="889.991" y="-767.3" font-family="Times,serif" font-size="14.00">rdf:type</text>
</g>
<!-- Rschema:Thing -->
<g id="node4" class="node"><title>Rschema:Thing</title>
<ellipse fill="none" stroke="blue" cx="1544.22" cy="-662.5" rx="75.2868" ry="18"/>
<text text-anchor="middle" x="1544.22" y="-658.8" font-family="Times,serif" font-size="14.00">schema:Thing</text>
</g>
<!-- Rhttp://worldcat.org/entity/work/id/2292573321&#45;&gt;Rschema:Thing -->
<g id="edge2" class="edge"><title>Rhttp://worldcat.org/entity/work/id/2292573321&#45;&gt;Rschema:Thing</title>
<path fill="none" stroke="black" d="M247.524,-319.718C305.686,-376.047 493.153,-547.958 685.26,-620.5 959.556,-724.078 1318.58,-693.333 1470.4,-673.492"/>
<polygon fill="black" stroke="black" points="1471.09,-676.932 1480.54,-672.144 1470.16,-669.993 1471.09,-676.932"/>
<text text-anchor="middle" x="889.991" y="-695.3" font-family="Times,serif" font-size="14.00">rdf:type</text>
</g>
<!-- Rschema:CreativeWork -->
<g id="node5" class="node"><title>Rschema:CreativeWork</title>
<ellipse fill="none" stroke="blue" cx="1544.22" cy="-592.5" rx="114.28" ry="18"/>
<text text-anchor="middle" x="1544.22" y="-588.8" font-family="Times,serif" font-size="14.00">schema:CreativeWork</text>
</g>
<!-- Rhttp://worldcat.org/entity/work/id/2292573321&#45;&gt;Rschema:CreativeWork -->
<g id="edge3" class="edge"><title>Rhttp://worldcat.org/entity/work/id/2292573321&#45;&gt;Rschema:CreativeWork</title>
<path fill="none" stroke="black" d="M265.357,-319.464C383.49,-376.824 769.692,-554.786 1112.72,-605.5 1226.21,-622.278 1358.3,-614.276 1445.92,-605.17"/>
<polygon fill="black" stroke="black" points="1446.55,-608.623 1456.12,-604.084 1445.81,-601.663 1446.55,-608.623"/>
<text text-anchor="middle" x="889.991" y="-605.3" font-family="Times,serif" font-size="14.00">rdf:type</text>
</g>
<!-- Rrdfs:Resource -->
<g id="node6" class="node"><title>Rrdfs:Resource</title>
<ellipse fill="none" stroke="blue" cx="1544.22" cy="-288.5" rx="75.2868" ry="18"/>
<text text-anchor="middle" x="1544.22" y="-284.8" font-family="Times,serif" font-size="14.00">rdfs:Resource</text>
</g>
<!-- Rhttp://worldcat.org/entity/work/id/2292573321&#45;&gt;Rrdfs:Resource -->
<g id="edge5" class="edge"><title>Rhttp://worldcat.org/entity/work/id/2292573321&#45;&gt;Rrdfs:Resource</title>
<path fill="none" stroke="black" d="M390.221,-288.807C592.553,-274.523 950.366,-254.755 1256.72,-266.5 1326.91,-269.191 1406.55,-275.576 1464.02,-280.779"/>
<polygon fill="black" stroke="black" points="1463.85,-284.278 1474.13,-281.702 1464.49,-277.307 1463.85,-284.278"/>
<text text-anchor="middle" x="889.991" y="-275.3" font-family="Times,serif" font-size="14.00">rdf:type</text>
</g>
<!-- LRouge et le noir -->
<g id="node7" class="node"><title>LRouge et le noir</title>
<polygon fill="none" stroke="black" points="824.491,-154.5 824.491,-190.5 955.491,-190.5 955.491,-154.5 824.491,-154.5"/>
<text text-anchor="middle" x="889.991" y="-168.8" font-family="Times,serif" font-size="14.00">Rouge et le noir</text>
</g>
<!-- Rhttp://worldcat.org/entity/work/id/2292573321&#45;&gt;LRouge et le noir -->
<g id="edge6" class="edge"><title>Rhttp://worldcat.org/entity/work/id/2292573321&#45;&gt;LRouge et le noir</title>
<path fill="none" stroke="black" d="M261.638,-283.659C307.489,-259.483 394.484,-217.195 474.26,-198.5 536.735,-183.859 712.644,-177.011 814.172,-174.195"/>
<polygon fill="black" stroke="black" points="814.46,-177.689 824.362,-173.919 814.271,-170.691 814.46,-177.689"/>
<text text-anchor="middle" x="570.76" y="-202.3" font-family="Times,serif" font-size="14.00">rdfs:label</text>
</g>
<!-- Rhttp://worldcat.org/entity/work/id/2292573321&#45;&gt;LRouge et le noir -->
<g id="edge9" class="edge"><title>Rhttp://worldcat.org/entity/work/id/2292573321&#45;&gt;LRouge et le noir</title>
<path fill="none" stroke="black" d="M251.338,-283.399C292.344,-251.281 384.022,-185.453 474.26,-161.5 536.18,-145.064 712.305,-156.782 814.017,-165.462"/>
<polygon fill="black" stroke="black" points="813.961,-168.97 824.226,-166.345 814.564,-161.996 813.961,-168.97"/>
<text text-anchor="middle" x="570.76" y="-165.3" font-family="Times,serif" font-size="14.00">schema:name</text>
</g>
<!-- Rhttp://viaf.org/viaf/17823 -->
<g id="node8" class="node"><title>Rhttp://viaf.org/viaf/17823</title>
<ellipse fill="none" stroke="blue" cx="1544.22" cy="-230.5" rx="126.178" ry="18"/>
<text text-anchor="middle" x="1544.22" y="-226.8" font-family="Times,serif" font-size="14.00">http://viaf.org/viaf/17823</text>
</g>
<!-- Rhttp://worldcat.org/entity/work/id/2292573321&#45;&gt;Rhttp://viaf.org/viaf/17823 -->
<g id="edge7" class="edge"><title>Rhttp://worldcat.org/entity/work/id/2292573321&#45;&gt;Rhttp://viaf.org/viaf/17823</title>
<path fill="none" stroke="black" d="M345.369,-286.038C386.117,-280.695 432.202,-274.736 474.26,-269.5 567.97,-257.832 591.038,-250.834 685.26,-244.5 940.53,-227.339 1239.43,-226.903 1408.54,-228.474"/>
<polygon fill="black" stroke="black" points="1408.7,-231.976 1418.74,-228.573 1408.77,-224.976 1408.7,-231.976"/>
<text text-anchor="middle" x="889.991" y="-248.3" font-family="Times,serif" font-size="14.00">schema:author</text>
</g>
<!-- Lfr -->
<g id="node9" class="node"><title>Lfr</title>
<polygon fill="none" stroke="black" points="862.991,-99.5 862.991,-135.5 916.991,-135.5 916.991,-99.5 862.991,-99.5"/>
<text text-anchor="middle" x="889.991" y="-113.8" font-family="Times,serif" font-size="14.00">fr</text>
</g>
<!-- Rhttp://worldcat.org/entity/work/id/2292573321&#45;&gt;Lfr -->
<g id="edge8" class="edge"><title>Rhttp://worldcat.org/entity/work/id/2292573321&#45;&gt;Lfr</title>
<path fill="none" stroke="black" d="M247.423,-283.504C285.652,-247.253 378.438,-166.202 474.26,-134.5 607.937,-90.2739 779.156,-103.655 852.737,-112.47"/>
<polygon fill="black" stroke="black" points="852.513,-115.97 862.869,-113.731 853.377,-109.023 852.513,-115.97"/>
<text text-anchor="middle" x="570.76" y="-138.3" font-family="Times,serif" font-size="14.00">schema:inLanguage</text>
</g>
<!-- Rhttp://worldcat.org/entity/work/id/460647 -->
<g id="node10" class="node"><title>Rhttp://worldcat.org/entity/work/id/460647</title>
<ellipse fill="none" stroke="blue" cx="889.991" cy="-418.5" rx="204.964" ry="18"/>
<text text-anchor="middle" x="889.991" y="-414.8" font-family="Times,serif" font-size="14.00">http://worldcat.org/entity/work/id/460647</text>
</g>
<!-- Rhttp://worldcat.org/entity/work/id/2292573321&#45;&gt;Rhttp://worldcat.org/entity/work/id/460647 -->
<g id="edge21" class="edge"><title>Rhttp://worldcat.org/entity/work/id/2292573321&#45;&gt;Rhttp://worldcat.org/entity/work/id/460647</title>
<path fill="none" stroke="black" d="M425.261,-310.614C501.418,-316.671 588.99,-326.746 667.26,-343.5 726.863,-356.258 792.741,-379.813 837.079,-397.133"/>
<polygon fill="black" stroke="black" points="835.894,-400.428 846.481,-400.838 838.46,-393.915 835.894,-400.428"/>
<text text-anchor="middle" x="570.76" y="-347.3" font-family="Times,serif" font-size="14.00">schema:workTranslation</text>
</g>
<!-- Rhttp://worldcat.org/entity/work/id/460647&#45;&gt;Rschema:Book -->
<g id="edge12" class="edge"><title>Rhttp://worldcat.org/entity/work/id/460647&#45;&gt;Rschema:Book</title>
<path fill="none" stroke="black" d="M916.757,-436.472C958.15,-466.29 1040.32,-529.478 1094.72,-597.5 1105.16,-610.547 1100.06,-619.606 1112.72,-630.5 1211.07,-715.093 1368.01,-728.862 1462.78,-728.518"/>
<polygon fill="black" stroke="black" points="1462.91,-732.017 1472.88,-728.427 1462.85,-725.017 1462.91,-732.017"/>
<text text-anchor="middle" x="1184.72" y="-704.3" font-family="Times,serif" font-size="14.00">rdf:type</text>
</g>
<!-- Rhttp://worldcat.org/entity/work/id/460647&#45;&gt;Rhttp://worldcat.org/entity/work/id/2292573321 -->
<g id="edge19" class="edge"><title>Rhttp://worldcat.org/entity/work/id/460647&#45;&gt;Rhttp://worldcat.org/entity/work/id/2292573321</title>
<path fill="none" stroke="black" d="M759.036,-404.662C676.997,-395.012 568.991,-380.626 474.26,-362.5 415.324,-351.223 349.364,-334.576 300.724,-321.52"/>
<polygon fill="black" stroke="black" points="301.492,-318.102 290.925,-318.875 299.668,-324.86 301.492,-318.102"/>
<text text-anchor="middle" x="570.76" y="-397.3" font-family="Times,serif" font-size="14.00">schema:translationOfWork</text>
</g>
<!-- Rhttp://worldcat.org/entity/work/id/460647&#45;&gt;Rschema:Thing -->
<g id="edge10" class="edge"><title>Rhttp://worldcat.org/entity/work/id/460647&#45;&gt;Rschema:Thing</title>
<path fill="none" stroke="black" d="M913.004,-436.407C951.455,-466.948 1034.25,-529.485 1112.72,-567.5 1180.78,-600.469 1201.18,-601.915 1274.72,-619.5 1338.45,-634.738 1412.01,-646.094 1466,-653.297"/>
<polygon fill="black" stroke="black" points="1465.82,-656.802 1476.19,-654.637 1466.73,-649.862 1465.82,-656.802"/>
<text text-anchor="middle" x="1184.72" y="-619.3" font-family="Times,serif" font-size="14.00">rdf:type</text>
</g>
<!-- Rhttp://worldcat.org/entity/work/id/460647&#45;&gt;Rschema:CreativeWork -->
<g id="edge11" class="edge"><title>Rhttp://worldcat.org/entity/work/id/460647&#45;&gt;Rschema:CreativeWork</title>
<path fill="none" stroke="black" d="M919.529,-436.326C960.61,-461.116 1039.54,-505.536 1112.72,-528.5 1128.59,-533.478 1326.23,-561.877 1448.13,-579.129"/>
<polygon fill="black" stroke="black" points="1447.83,-582.622 1458.22,-580.557 1448.81,-575.691 1447.83,-582.622"/>
<text text-anchor="middle" x="1184.72" y="-555.3" font-family="Times,serif" font-size="14.00">rdf:type</text>
</g>
<!-- Rhttp://worldcat.org/entity/work/id/460647&#45;&gt;Rrdfs:Resource -->
<g id="edge13" class="edge"><title>Rhttp://worldcat.org/entity/work/id/460647&#45;&gt;Rrdfs:Resource</title>
<path fill="none" stroke="black" d="M936.66,-400.912C981.061,-384.375 1050.69,-359.919 1112.72,-344.5 1231.63,-314.944 1373.12,-300.343 1460.56,-293.623"/>
<polygon fill="black" stroke="black" points="1460.98,-297.101 1470.69,-292.861 1460.45,-290.121 1460.98,-297.101"/>
<text text-anchor="middle" x="1184.72" y="-348.3" font-family="Times,serif" font-size="14.00">rdf:type</text>
</g>
<!-- Rhttp://worldcat.org/entity/work/id/460647&#45;&gt;Rhttp://viaf.org/viaf/17823 -->
<g id="edge16" class="edge"><title>Rhttp://worldcat.org/entity/work/id/460647&#45;&gt;Rhttp://viaf.org/viaf/17823</title>
<path fill="none" stroke="black" d="M918.182,-400.612C958.883,-374.586 1038.79,-326.354 1112.72,-298.5 1210.05,-261.832 1326.97,-244.937 1414.39,-237.152"/>
<polygon fill="black" stroke="black" points="1414.7,-240.638 1424.36,-236.292 1414.09,-233.664 1414.7,-240.638"/>
<text text-anchor="middle" x="1184.72" y="-302.3" font-family="Times,serif" font-size="14.00">schema:author</text>
</g>
<!-- LRed and Black : A New Translation, Backgrounds and Sources, Criticism -->
<g id="node11" class="node"><title>LRed and Black : A New Translation, Backgrounds and Sources, Criticism</title>
<polygon fill="none" stroke="black" points="1274.72,-493.5 1274.72,-529.5 1813.72,-529.5 1813.72,-493.5 1274.72,-493.5"/>
<text text-anchor="middle" x="1544.22" y="-507.8" font-family="Times,serif" font-size="14.00">Red and Black : A New Translation, Backgrounds and Sources, Criticism</text>
</g>
<!-- Rhttp://worldcat.org/entity/work/id/460647&#45;&gt;LRed and Black : A New Translation, Backgrounds and Sources, Criticism -->
<g id="edge14" class="edge"><title>Rhttp://worldcat.org/entity/work/id/460647&#45;&gt;LRed and Black : A New Translation, Backgrounds and Sources, Criticism</title>
<path fill="none" stroke="black" d="M990.718,-434.246C1097.88,-451.176 1253.43,-475.785 1256.72,-476.5 1264.84,-478.264 1266.57,-479.923 1274.72,-481.5 1295.39,-485.498 1317.06,-489.017 1338.75,-492.101"/>
<polygon fill="black" stroke="black" points="1338.33,-495.575 1348.71,-493.487 1339.29,-488.642 1338.33,-495.575"/>
<text text-anchor="middle" x="1184.72" y="-481.3" font-family="Times,serif" font-size="14.00">rdfs:label</text>
</g>
<!-- Rhttp://worldcat.org/entity/work/id/460647&#45;&gt;LRed and Black : A New Translation, Backgrounds and Sources, Criticism -->
<g id="edge18" class="edge"><title>Rhttp://worldcat.org/entity/work/id/460647&#45;&gt;LRed and Black : A New Translation, Backgrounds and Sources, Criticism</title>
<path fill="none" stroke="black" d="M933.014,-436.149C976.956,-453.69 1048.35,-479.638 1112.72,-491.5 1161.44,-500.478 1213.76,-506.15 1264.55,-509.625"/>
<polygon fill="black" stroke="black" points="1264.48,-513.128 1274.69,-510.291 1264.94,-506.143 1264.48,-513.128"/>
<text text-anchor="middle" x="1184.72" y="-513.3" font-family="Times,serif" font-size="14.00">schema:name</text>
</g>
<!-- LPsychological fiction, French -->
<g id="node12" class="node"><title>LPsychological fiction, French</title>
<polygon fill="none" stroke="black" points="1432.22,-436.5 1432.22,-472.5 1656.22,-472.5 1656.22,-436.5 1432.22,-436.5"/>
<text text-anchor="middle" x="1544.22" y="-450.8" font-family="Times,serif" font-size="14.00">Psychological fiction, French</text>
</g>
<!-- Rhttp://worldcat.org/entity/work/id/460647&#45;&gt;LPsychological fiction, French -->
<g id="edge15" class="edge"><title>Rhttp://worldcat.org/entity/work/id/460647&#45;&gt;LPsychological fiction, French</title>
<path fill="none" stroke="black" d="M1064.48,-427.946C1125.28,-431.267 1194.02,-435.035 1256.72,-438.5 1310.93,-441.496 1370.91,-444.841 1421.92,-447.695"/>
<polygon fill="black" stroke="black" points="1421.82,-451.194 1432,-448.259 1422.21,-444.205 1421.82,-451.194"/>
<text text-anchor="middle" x="1184.72" y="-442.3" font-family="Times,serif" font-size="14.00">schema:about</text>
</g>
<!-- Len -->
<g id="node13" class="node"><title>Len</title>
<polygon fill="none" stroke="black" points="1517.22,-381.5 1517.22,-417.5 1571.22,-417.5 1571.22,-381.5 1517.22,-381.5"/>
<text text-anchor="middle" x="1544.22" y="-395.8" font-family="Times,serif" font-size="14.00">en</text>
</g>
<!-- Rhttp://worldcat.org/entity/work/id/460647&#45;&gt;Len -->
<g id="edge17" class="edge"><title>Rhttp://worldcat.org/entity/work/id/460647&#45;&gt;Len</title>
<path fill="none" stroke="black" d="M1031.05,-405.45C1058.13,-403.403 1086.29,-401.602 1112.72,-400.5 1258.63,-394.418 1432.6,-397.037 1506.79,-398.619"/>
<polygon fill="black" stroke="black" points="1506.93,-402.122 1517,-398.843 1507.08,-395.124 1506.93,-402.122"/>
<text text-anchor="middle" x="1184.72" y="-404.3" font-family="Times,serif" font-size="14.00">schema:inLanguage</text>
</g>
<!-- Rhttp://viaf.org/viaf/8453420 -->
<g id="node14" class="node"><title>Rhttp://viaf.org/viaf/8453420</title>
<ellipse fill="none" stroke="blue" cx="1544.22" cy="-344.5" rx="137.576" ry="18"/>
<text text-anchor="middle" x="1544.22" y="-340.8" font-family="Times,serif" font-size="14.00">http://viaf.org/viaf/8453420</text>
</g>
<!-- Rhttp://worldcat.org/entity/work/id/460647&#45;&gt;Rhttp://viaf.org/viaf/8453420 -->
<g id="edge20" class="edge"><title>Rhttp://worldcat.org/entity/work/id/460647&#45;&gt;Rhttp://viaf.org/viaf/8453420</title>
<path fill="none" stroke="black" d="M971.522,-401.977C1013.47,-393.879 1065.69,-384.585 1112.72,-378.5 1210.43,-365.861 1321.26,-357.239 1406,-351.84"/>
<polygon fill="black" stroke="black" points="1406.44,-355.319 1416.2,-351.197 1406,-348.333 1406.44,-355.319"/>
<text text-anchor="middle" x="1184.72" y="-382.3" font-family="Times,serif" font-size="14.00">schema:translator</text>
</g>
</g>
</svg>

